<svg width="34" height="34" viewBox="0 0 34 34" fill="none" xmlns="http://www.w3.org/2000/svg">
<path d="M9.29746 0C6.84806 1.36884 4.74932 3.28685 3.16603 5.60342C1.58274 7.91999 0.558018 10.5721 0.172318 13.3514C-0.213379 16.1307 0.050457 18.9615 0.943096 21.6217C1.83574 24.2819 3.33289 26.6989 5.31699 28.683C7.30109 30.6671 9.71812 32.1643 12.3783 33.0569C15.0385 33.9495 17.8693 34.2134 20.6486 33.8277C23.4279 33.442 26.08 32.4173 28.3966 30.834C30.7131 29.2507 32.6312 27.1519 34 24.7025C27.0881 28.572 18.1803 27.5771 12.3026 21.6994C6.42286 15.8197 5.42597 6.91397 9.29746 0Z" fill="#E8E8E8"/>
</svg>
