<svg width="113" height="85" viewBox="0 0 113 85" fill="none" xmlns="http://www.w3.org/2000/svg">
<path d="M54.4907 0.00541497C54.6504 0.00509055 54.8101 0.00475206 54.9697 0.00440036C55.304 0.00380045 55.6384 0.00361138 55.9727 0.00367126C56.3104 0.00367937 56.648 0.00298989 56.9857 0.00160827C58.9023 -0.00611107 60.8001 0.00587147 62.7073 0.223502C62.7785 0.231355 62.8497 0.239207 62.9231 0.247297C63.3343 0.293277 63.7438 0.347211 64.1534 0.405831C64.3344 0.431312 64.3344 0.431312 64.5191 0.457308C65.768 0.638309 67.0045 0.873604 68.24 1.12886C68.3637 1.15371 68.3637 1.15371 68.4899 1.17906C70.4429 1.5724 72.336 2.1839 74.2255 2.80754C74.3332 2.84285 74.3332 2.84285 74.4432 2.87887C75.186 3.12288 75.8969 3.37668 76.5894 3.74434C76.7936 3.82503 76.999 3.90278 77.2056 3.97696C77.8675 4.22679 78.4901 4.53169 79.1183 4.85589C79.3122 4.95491 79.5073 5.05135 79.7028 5.14717C81.4766 6.01764 83.4228 6.98827 84.9389 8.27112C84.9389 8.33752 84.9389 8.40391 84.9389 8.47231C85.0094 8.49721 85.0799 8.52211 85.1526 8.54776C85.4816 8.69079 85.7578 8.86187 86.0454 9.07589C86.0454 9.14228 86.0454 9.20867 86.0454 9.27708C86.118 9.30197 86.1906 9.32687 86.2654 9.35252C86.5761 9.49061 86.8009 9.65165 87.0514 9.88065C87.0514 9.94704 87.0514 10.0134 87.0514 10.0818C87.1109 10.109 87.1704 10.1362 87.2317 10.1642C87.4523 10.2823 87.6063 10.4044 87.7877 10.5754C87.8495 10.6332 87.9112 10.691 87.9748 10.7505C88.0393 10.812 88.1039 10.8735 88.1705 10.9369C88.2702 11.0311 88.2702 11.0311 88.3719 11.1272C88.5695 11.3145 88.7662 11.5027 88.9627 11.6914C89.0182 11.7446 89.0738 11.7978 89.1311 11.8527C89.7487 12.4468 89.7487 12.4468 89.9686 12.6973C89.9686 12.7637 89.9686 12.8301 89.9686 12.8985C90.035 12.8985 90.1014 12.8985 90.1698 12.8985C90.6728 13.4494 90.6728 13.4494 90.6728 13.7033C90.7392 13.7033 90.8056 13.7033 90.874 13.7033C91.0459 13.9052 91.2061 14.1072 91.3644 14.3194C91.4081 14.3767 91.4518 14.434 91.4968 14.4931C92.2823 15.531 92.2823 15.531 92.2823 15.8158C92.3487 15.8158 92.4151 15.8158 92.4835 15.8158C92.6171 15.988 92.6171 15.988 92.7672 16.2268C92.821 16.3121 92.8748 16.3974 92.9303 16.4854C92.9862 16.5756 93.0421 16.6659 93.0996 16.7588C93.1563 16.8483 93.213 16.9378 93.2714 17.03C93.6906 17.7 93.6906 17.7 93.6906 17.9283C93.8004 17.9476 93.8004 17.9476 93.9123 17.9673C94.373 18.0681 94.796 18.2581 95.231 18.4375C95.3784 18.4981 95.3784 18.4981 95.5288 18.5598C96.3796 18.9141 97.1992 19.3138 98.0162 19.739C98.2172 19.84 98.4184 19.9406 98.6198 20.0408C98.7539 20.1078 98.8881 20.1749 99.0222 20.242C99.0222 20.3084 99.0222 20.3747 99.0222 20.4431C99.0737 20.4518 99.1251 20.4605 99.1782 20.4695C99.527 20.5746 99.8319 20.7492 100.148 20.9273C100.217 20.9666 100.287 21.0059 100.359 21.0464C101.125 21.4869 101.84 21.9953 102.552 22.5169C102.683 22.6122 102.816 22.7055 102.95 22.7971C103.12 22.9132 103.285 23.0356 103.448 23.1592C103.448 23.2256 103.448 23.292 103.448 23.3604C103.518 23.3818 103.588 23.4032 103.66 23.4252C104.031 23.5991 104.295 23.8524 104.586 24.1337C104.703 24.244 104.819 24.3541 104.936 24.4642C104.992 24.5171 105.048 24.5701 105.105 24.6246C105.292 24.7998 105.485 24.9673 105.68 25.1334C106.325 25.6922 106.966 26.2923 107.472 26.9818C107.472 27.0482 107.472 27.1146 107.472 27.183C107.539 27.183 107.605 27.183 107.673 27.183C110.356 30.208 112.134 34.2096 112.575 38.2142C112.597 38.4039 112.625 38.5931 112.655 38.7819C112.743 39.4597 112.728 40.1436 112.728 40.8263C112.728 40.905 112.729 40.9837 112.729 41.0648C112.728 42.2521 112.667 43.4004 112.443 44.5692C112.403 44.7795 112.368 44.9899 112.335 45.2014C111.839 48.1878 110.592 51.147 108.881 53.6396C108.837 53.7036 108.793 53.7676 108.748 53.8336C108.177 54.6642 107.594 55.4747 106.943 56.2448C106.755 56.4647 106.755 56.4647 106.567 56.758C106.5 56.758 106.434 56.758 106.366 56.758C106.366 56.8244 106.366 56.8908 106.366 56.9592C106.299 56.9592 106.233 56.9592 106.164 56.9592C106.14 57.0152 106.115 57.0713 106.089 57.129C105.94 57.4043 105.769 57.6309 105.561 57.8646C105.494 57.8646 105.428 57.8646 105.36 57.8646C105.36 57.931 105.36 57.9974 105.36 58.0658C105.293 58.0658 105.227 58.0658 105.158 58.0658C105.158 58.1322 105.158 58.1986 105.158 58.267C104.993 58.4371 104.993 58.4371 104.775 58.6253C104.704 58.6877 104.633 58.7501 104.559 58.8143C104.354 58.9711 104.354 58.9711 104.052 59.0717C104.052 59.1381 104.052 59.2045 104.052 59.2729C103.703 59.5975 103.32 59.8838 102.945 60.1783C102.843 60.2601 102.74 60.3419 102.634 60.4262C101.992 60.9322 101.333 61.4005 100.643 61.8394C99.965 62.2773 99.5504 62.7743 99.1605 63.4728C98.5842 64.4798 97.9555 65.45 97.3121 66.4152C97.2457 66.4152 97.1793 66.4152 97.1109 66.4152C97.0818 66.5085 97.0528 66.6019 97.0229 66.6981C96.9097 67.0188 96.9097 67.0188 96.7085 67.3205C96.6421 67.3205 96.5757 67.3205 96.5073 67.3205C96.4824 67.3915 96.4575 67.4624 96.4319 67.5355C96.2899 67.8606 96.1125 68.1216 95.9037 68.4082C95.8332 68.5064 95.7626 68.6046 95.69 68.7057C95.6277 68.7797 95.5655 68.8538 95.5014 68.9301C95.435 68.9301 95.3686 68.9301 95.3002 68.9301C95.2773 69.0006 95.2545 69.0711 95.231 69.1438C95.0649 69.5076 94.8685 69.7436 94.596 70.0366C94.5296 70.0366 94.4632 70.0366 94.3948 70.0366C94.3678 70.0942 94.3409 70.1518 94.3131 70.2111C94.1895 70.4469 94.0502 70.6527 93.8918 70.8665C93.814 70.9731 93.814 70.9731 93.7346 71.0819C93.6869 71.1353 93.6392 71.1887 93.59 71.2438C93.5236 71.2438 93.4573 71.2438 93.3889 71.2438C93.3477 71.3339 93.3477 71.3339 93.3056 71.4259C93.191 71.6399 93.0798 71.7795 92.9095 71.9504C92.8537 72.0067 92.798 72.0631 92.7406 72.1212C92.6507 72.2105 92.6507 72.2105 92.5589 72.3016C92.4663 72.3945 92.4663 72.3945 92.3718 72.4893C92.2415 72.6197 92.1109 72.7499 91.9801 72.8799C91.7794 73.0796 91.5797 73.2803 91.3801 73.4812C91.2534 73.6078 91.1266 73.7343 90.9997 73.8608C90.9098 73.9513 90.9098 73.9513 90.8181 74.0437C90.3941 74.4628 90.3941 74.4628 90.1698 74.4628C90.1698 74.5292 90.1698 74.5956 90.1698 74.664C89.9568 74.8597 89.9568 74.8597 89.6794 75.0789C89.5884 75.1518 89.4973 75.2247 89.4036 75.2998C89.1639 75.4688 89.1639 75.4688 88.9627 75.4688C88.9627 75.5351 88.9627 75.6015 88.9627 75.6699C88.8273 75.7944 88.8273 75.7944 88.6397 75.9317C88.5389 76.0056 88.5389 76.0056 88.4361 76.081C88.365 76.1321 88.294 76.1832 88.2208 76.2358C88.1505 76.2877 88.0802 76.3395 88.0078 76.393C87.4802 76.7765 87.4802 76.7765 87.2525 76.7765C87.2525 76.8429 87.2525 76.9093 87.2525 76.9777C87.0082 77.1462 86.7645 77.3024 86.5107 77.4555C86.4365 77.501 86.3623 77.5464 86.2859 77.5932C86.072 77.724 85.8575 77.8539 85.643 77.9836C85.5525 78.0393 85.462 78.0949 85.3687 78.1522C85.1264 78.3 84.8822 78.4442 84.6371 78.5872C84.5233 78.654 84.4096 78.7208 84.2924 78.7896C81.6544 80.3176 78.7926 81.5025 75.8853 82.4098C75.7754 82.4445 75.6656 82.4791 75.5524 82.5147C72.6298 83.3912 69.6014 83.918 66.567 84.1894C66.3829 84.2063 66.1988 84.224 66.0151 84.2459C65.2693 84.3314 64.5286 84.3374 63.7785 84.338C63.6391 84.3384 63.4997 84.3387 63.3603 84.339C63.0687 84.3396 62.777 84.3398 62.4853 84.3398C62.1915 84.3398 61.8978 84.3405 61.604 84.3418C59.8164 84.3501 58.0485 84.3167 56.2692 84.1199C56.1971 84.1121 56.125 84.1042 56.0507 84.0961C55.6383 84.0502 55.2276 83.9962 54.8169 83.9376C54.6963 83.9207 54.5758 83.9038 54.4516 83.8864C53.0304 83.6803 51.6147 83.4199 50.2252 83.0551C49.6868 82.9188 49.1644 82.8467 48.6114 82.8059C48.5174 82.7981 48.4235 82.7903 48.3267 82.7823C48.0235 82.7575 47.7202 82.7343 47.4168 82.7116C47.3153 82.704 47.2138 82.6964 47.1092 82.6885C46.9001 82.6729 46.6909 82.6572 46.4817 82.6415C43.2306 82.397 40.0238 82.0239 36.8229 81.4039C36.6917 81.3786 36.6917 81.3786 36.5578 81.3528C35.4691 81.1421 34.4026 80.8945 33.3335 80.5991C33.1171 80.5435 32.9006 80.4884 32.6839 80.4341C30.7027 79.9338 28.7135 79.4176 26.8262 78.6241C26.4757 78.4795 26.1219 78.3531 25.7637 78.2288C25.254 78.0493 24.7647 77.8486 24.276 77.6186C24.0533 77.5155 23.8306 77.4166 23.6048 77.3207C22.7897 76.9739 22.0056 76.5949 21.2283 76.1702C20.8673 75.9735 20.4999 75.7933 20.1304 75.6134C19.5958 75.3488 19.0969 75.0541 18.5986 74.7269C18.3612 74.574 18.1211 74.4347 17.8733 74.2993C17.5723 74.1348 17.2744 73.9669 16.9805 73.7901C16.9139 73.7503 16.8474 73.7105 16.7789 73.6694C16.7313 73.6325 16.6837 73.5955 16.6347 73.5574C16.6347 73.4911 16.6347 73.4247 16.6347 73.3563C16.4355 73.2899 16.2363 73.2235 16.0311 73.1551C16.0311 73.0887 16.0311 73.0223 16.0311 72.9539C15.9265 72.9191 15.9265 72.9191 15.8197 72.8835C15.4677 72.7256 15.1857 72.5078 14.8868 72.2686C14.7715 72.1777 14.6561 72.0869 14.5406 71.9963C14.4581 71.9314 14.4581 71.9314 14.374 71.8652C14.183 71.7179 13.9859 71.5807 13.7866 71.4449C13.6974 71.3786 13.6081 71.3122 13.5162 71.2438C13.5162 71.1774 13.5162 71.111 13.5162 71.0426C13.4498 71.0426 13.3834 71.0426 13.315 71.0426C13.315 70.9762 13.315 70.9098 13.315 70.8414C13.2259 70.8 13.2259 70.8 13.1349 70.7578C12.9208 70.6445 12.7585 70.5252 12.5759 70.3671C12.515 70.3146 12.4541 70.2622 12.3914 70.2081C12.329 70.1536 12.2665 70.0991 12.2022 70.0429C12.108 69.9617 12.108 69.9617 12.0118 69.8788C11.3923 69.3426 11.3923 69.3426 11.2025 69.1313C11.2025 69.0649 11.2025 68.9985 11.2025 68.9301C11.1361 68.9301 11.0697 68.9301 11.0013 68.9301C11.0013 68.8637 11.0013 68.7973 11.0013 68.7289C10.9349 68.7289 10.8686 68.7289 10.8001 68.7289C10.8001 68.6625 10.8001 68.5961 10.8001 68.5277C10.7338 68.5277 10.6674 68.5277 10.599 68.5277C10.599 68.4613 10.599 68.3949 10.599 68.3265C10.5326 68.3265 10.4662 68.3265 10.3978 68.3265C10.2453 68.1752 10.2453 68.1752 10.0708 67.9681C10.009 67.8951 9.94713 67.8221 9.8834 67.7469C9.82076 67.6726 9.75813 67.5983 9.6936 67.5217C9.63408 67.4547 9.57456 67.3876 9.51324 67.3186C9.45865 67.257 9.40405 67.1954 9.34781 67.1319C9.29814 67.0762 9.24848 67.0204 9.19731 66.963C9.09003 66.8176 9.09003 66.8176 9.09003 66.6164C9.02364 66.6164 8.95724 66.6164 8.88884 66.6164C8.71791 66.4097 8.71791 66.4097 8.51789 66.126C8.4115 65.9756 8.4115 65.9756 8.30295 65.8222C8.19461 65.6676 8.19461 65.6676 8.08408 65.5098C8.01496 65.414 7.94585 65.3182 7.87464 65.2194C7.81097 65.1306 7.7473 65.0418 7.6817 64.9503C7.6236 64.8692 7.56551 64.7882 7.50566 64.7047C7.37991 64.5039 7.37991 64.5039 7.37991 64.3027C7.31352 64.3027 7.24713 64.3027 7.17872 64.3027C5.33481 61.0736 5.33481 61.0736 4.86857 59.7617C4.76548 59.4655 4.76548 59.4655 4.61983 59.1539C4.41355 58.6787 4.28773 58.1818 4.15458 57.6823C4.12884 57.5883 4.10309 57.4944 4.07657 57.3976C3.36132 54.748 3.08625 51.6998 3.75848 49.0122C3.76988 48.8616 3.77605 48.7105 3.77734 48.5595C3.77877 48.4838 3.7802 48.4081 3.78167 48.33C3.75588 48.0818 3.68087 47.9194 3.55729 47.7045C3.4909 47.7045 3.42451 47.7045 3.3561 47.7045C3.19088 47.4708 3.03934 47.2381 2.89085 46.994C2.84614 46.9211 2.80144 46.8481 2.75538 46.773C1.99022 45.5122 1.39331 44.2816 0.941815 42.8759C0.903561 42.7606 0.865307 42.6453 0.825894 42.5266C0.575765 41.7497 0.378886 40.9637 0.237648 40.1598C0.21179 40.0238 0.21179 40.0238 0.18541 39.8851C0.00620759 38.8245 0.0024511 37.7715 0.00470198 36.6983C0.0050182 36.3842 0.00265819 36.0703 0.000109372 35.7562C-0.00404738 34.4154 0.11031 33.131 0.338243 31.8104C0.363064 31.6603 0.387823 31.5102 0.412511 31.3601C0.67874 29.7823 1.19238 28.2773 1.74658 26.7807C1.79183 26.6567 1.83709 26.5327 1.88372 26.405C2.83508 23.9073 4.32148 21.611 5.92757 19.4875C5.99058 19.4032 5.99058 19.4032 6.05486 19.3173C6.15627 19.1856 6.26452 19.0593 6.37396 18.9342C6.44035 18.9342 6.50674 18.9342 6.57515 18.9342C6.61094 18.8504 6.61094 18.8504 6.64745 18.7649C6.80659 18.4771 7.00536 18.2633 7.22902 18.0226C7.47099 17.7614 7.68512 17.5208 7.88289 17.2241C7.94928 17.2241 8.01567 17.2241 8.08408 17.2241C8.08408 17.1577 8.08408 17.0913 8.08408 17.0229C8.15047 17.0229 8.21686 17.0229 8.28527 17.0229C8.28527 16.9565 8.28527 16.8901 8.28527 16.8217C8.35166 16.8217 8.41805 16.8217 8.48646 16.8217C8.48646 16.7553 8.48646 16.6889 8.48646 16.6205C8.55285 16.6205 8.61924 16.6205 8.68765 16.6205C8.68765 16.5541 8.68765 16.4877 8.68765 16.4193C8.75404 16.4193 8.82043 16.4193 8.88884 16.4193C8.88884 16.3529 8.88884 16.2866 8.88884 16.2181C9.04013 16.0657 9.04013 16.0657 9.24721 15.8912C9.32022 15.8294 9.39322 15.7675 9.46844 15.7038C9.5799 15.6098 9.5799 15.6098 9.6936 15.514C9.76064 15.4545 9.82768 15.3949 9.89676 15.3336C9.95835 15.279 10.0199 15.2244 10.0834 15.1682C10.1392 15.1185 10.1949 15.0689 10.2524 15.0177C10.3978 14.9104 10.3978 14.9104 10.599 14.9104C10.599 14.844 10.599 14.7776 10.599 14.7092C10.7288 14.5855 10.7288 14.5855 10.9129 14.4459C11.0155 14.3677 11.0155 14.3677 11.1202 14.2878C11.1951 14.2318 11.27 14.1759 11.3471 14.1182C11.4237 14.0604 11.5003 14.0025 11.5792 13.9429C12.3797 13.3418 13.196 12.7638 14.0192 12.1943C14.1082 12.1322 14.1971 12.0701 14.2888 12.0061C14.7513 11.6893 15.2298 11.4197 15.7246 11.1566C16.0017 11.0034 16.2706 10.8407 16.5393 10.6733C18.0031 9.76637 19.5836 9.08225 21.1801 8.44535C21.4395 8.34071 21.6964 8.23017 21.9536 8.12023C24.3108 7.14233 26.7489 6.41678 29.229 5.82444C29.6352 5.72617 30.04 5.62259 30.4448 5.51895C30.7008 5.45852 30.9548 5.41269 31.2147 5.37272C31.7444 5.27081 32.1948 5.04669 32.6784 4.81355C33.2401 4.55301 33.8204 4.34705 34.4015 4.13498C34.6648 4.03738 34.9267 3.93648 35.1886 3.83511C36.6636 3.26704 38.1543 2.7804 39.671 2.336C39.7816 2.30295 39.8922 2.2699 40.0062 2.23585C40.8845 1.9777 41.769 1.77162 42.6637 1.58154C42.8788 1.5354 43.0939 1.48914 43.309 1.44287C43.4492 1.41271 43.5894 1.38261 43.7297 1.35256C44.1664 1.25881 44.6015 1.15988 45.0361 1.05732C47.1559 0.562684 49.3198 0.345836 51.4841 0.155645C51.6736 0.13836 51.8631 0.120445 52.052 0.0972809C52.8635 0.00218672 53.6749 0.00580938 54.4907 0.00541497ZM50.3341 4.85088C50.3341 4.88408 50.3341 4.91728 50.3341 4.95148C50.4302 4.96581 50.4302 4.96581 50.5282 4.98043C54.8406 5.6302 59.1357 6.67477 63.1761 8.33557C63.5059 8.4698 63.8383 8.59403 64.1722 8.71751C64.8173 8.96453 65.4267 9.26686 66.0401 9.58343C66.2366 9.68379 66.4343 9.78153 66.6325 9.87868C67.3626 10.2372 68.0753 10.6106 68.7745 11.0277C69.0986 11.2204 69.4278 11.4026 69.7584 11.5841C69.9233 11.6763 70.0849 11.7745 70.2457 11.8737C70.4423 12.0099 70.4423 12.0099 70.6543 11.9931C70.6543 12.0595 70.6543 12.1259 70.6543 12.1943C70.9531 12.2939 70.9531 12.2939 71.2579 12.3955C71.2579 12.4619 71.2579 12.5283 71.2579 12.5967C71.5819 12.8297 71.5819 12.8297 71.9621 12.8985C71.9621 12.9649 71.9621 13.0313 71.9621 13.0997C72.3275 13.3977 72.3275 13.3977 72.7668 13.5021C72.7668 13.5685 72.7668 13.6349 72.7668 13.7033C72.9393 13.863 72.9393 13.863 73.1566 14.0176C73.229 14.0718 73.3013 14.126 73.3759 14.1819C73.5612 14.3249 73.5612 14.3249 73.7728 14.3068C73.7728 14.3732 73.7728 14.4396 73.7728 14.508C73.9388 14.5744 74.1047 14.6408 74.2758 14.7092C74.2758 14.7756 74.2758 14.842 74.2758 14.9104C74.4481 15.0926 74.4481 15.0926 74.6656 15.2751C74.7741 15.3704 74.7741 15.3704 74.8848 15.4676C75.0665 15.6347 75.0665 15.6347 75.2817 15.6146C75.2817 15.681 75.2817 15.7474 75.2817 15.8158C75.3481 15.8158 75.4145 15.8158 75.4829 15.8158C75.4829 15.8822 75.4829 15.9486 75.4829 16.017C75.5493 16.017 75.6157 16.017 75.6841 16.017C75.6841 16.0834 75.6841 16.1497 75.6841 16.2181C75.7505 16.2181 75.8169 16.2181 75.8853 16.2181C75.8853 16.2845 75.8853 16.3509 75.8853 16.4193C75.9517 16.4193 76.0181 16.4193 76.0865 16.4193C76.0865 16.4857 76.0865 16.5521 76.0865 16.6205C76.2363 16.7641 76.2363 16.7641 76.4323 16.916C77.0461 17.4358 77.5524 18.0649 77.9978 18.733C78.0642 18.733 78.1306 18.733 78.199 18.733C78.199 18.7994 78.199 18.8658 78.199 18.9342C78.2654 18.9342 78.3318 18.9342 78.4002 18.9342C78.424 18.9866 78.4479 19.039 78.4725 19.093C78.6435 19.4163 78.847 19.7147 79.054 20.0156C79.0946 20.0762 79.1352 20.1367 79.177 20.1991C79.2816 20.3513 79.3936 20.4983 79.5067 20.6443C79.5731 20.6443 79.6395 20.6443 79.7079 20.6443C79.7433 20.747 79.7433 20.747 79.7794 20.8518C79.9384 21.214 80.1511 21.5271 80.3743 21.8515C80.4658 21.9871 80.5571 22.1228 80.6482 22.2586C80.6935 22.3259 80.7388 22.3933 80.7854 22.4627C81.4177 23.4067 81.9253 24.3644 82.4004 25.3939C82.6071 25.841 82.8282 26.2795 83.0527 26.7178C83.3392 27.2818 83.5866 27.8495 83.802 28.4452C83.9187 28.7549 84.0449 29.0575 84.1746 29.3619C84.4239 29.9576 84.6323 30.5595 84.8257 31.1754C84.8597 31.283 84.8937 31.3906 84.9287 31.5014C85.9396 34.7307 86.7964 38.0629 86.8502 41.4676C86.8522 41.5865 86.8543 41.7054 86.8564 41.8279C86.8991 44.5793 86.6624 47.2139 86.146 49.9176C86.3179 49.7543 86.4854 49.5863 86.649 49.4146C86.649 49.3482 86.649 49.2818 86.649 49.2134C86.7154 49.2134 86.7818 49.2134 86.8502 49.2134C87.1482 48.8479 87.1482 48.8479 87.2525 48.4086C87.3189 48.4086 87.3853 48.4086 87.4537 48.4086C87.6238 48.1579 87.7825 47.9075 87.9378 47.6479C88.1877 47.2347 88.4355 46.8257 88.7222 46.4368C88.9587 46.1117 89.1352 45.7731 89.3085 45.4096C89.5094 44.9935 89.7187 44.5918 89.9686 44.2025C90.3628 43.5644 90.6191 42.8666 90.894 42.1714C91.0016 41.9031 91.1173 41.6384 91.2323 41.3733C92.3562 38.6685 93.0294 35.7452 93.0871 32.8164C93.0899 32.7172 93.0928 32.618 93.0957 32.5158C93.1367 29.8176 92.6315 27.2756 91.7856 24.7247C91.7447 24.6009 91.7038 24.477 91.6616 24.3494C91.2519 23.1393 90.7714 21.9725 90.1447 20.8581C90.0744 20.7318 90.0744 20.7318 90.0028 20.6029C89.4904 19.6896 88.94 18.7996 88.3591 17.9283C88.2927 17.9283 88.2263 17.9283 88.1579 17.9283C88.1344 17.8563 88.111 17.7843 88.0868 17.7102C87.9328 17.373 87.7395 17.16 87.4852 16.8909C87.1936 16.5795 86.9046 16.2682 86.6301 15.9415C86.2668 15.5235 85.8765 15.1328 85.4858 14.7407C85.3896 14.6437 85.3896 14.6437 85.2914 14.5449C84.6908 13.8567 84.6908 13.8567 83.9329 13.5021C83.9329 13.4357 83.9329 13.3693 83.9329 13.3009C83.7521 13.1427 83.5716 12.9981 83.3796 12.8545C83.3211 12.8102 83.2626 12.7659 83.2023 12.7203C82.4897 12.186 81.7556 11.6837 81.0156 11.1884C80.9445 11.1405 80.8733 11.0925 80.8 11.0431C79.8599 10.4121 78.9213 9.86332 77.8972 9.37767C77.6535 9.25731 77.4107 9.13511 77.1679 9.01301C77.0509 8.95479 76.9339 8.89657 76.8134 8.83658C76.6192 8.73901 76.4256 8.64015 76.2334 8.53872C75.4745 8.1415 74.6784 7.85437 73.8734 7.56696C73.7696 7.52942 73.6659 7.49188 73.559 7.4532C71.8994 6.85464 70.241 6.34373 68.5257 5.92703C68.2809 5.86689 68.0374 5.804 67.794 5.73856C66.1636 5.30632 64.4826 5.04352 62.8079 4.85088C62.7348 4.84234 62.6617 4.8338 62.5864 4.825C58.5475 4.36075 54.3714 4.39541 50.3341 4.85088ZM36.1187 9.25821C36.0435 9.26698 35.9682 9.27574 35.8907 9.28476C34.5932 9.43644 33.308 9.62924 32.0257 9.88065C31.9435 9.89618 31.8612 9.9117 31.7765 9.9277C30.695 10.1324 29.6497 10.4081 28.5988 10.7345C28.1176 10.8838 27.6331 11.0185 27.1469 11.1507C26.2009 11.4099 25.2799 11.6993 24.3805 12.0937C24.1816 12.1697 23.9825 12.2451 23.7832 12.3201C22.6211 12.7664 21.4973 13.2634 20.4032 13.8582C20.3388 13.8932 20.2745 13.9281 20.2082 13.9642C20.1386 14.002 20.0689 14.0399 19.9972 14.0789C19.8152 14.1739 19.6309 14.2646 19.4456 14.3531C18.5443 14.7854 17.7196 15.294 16.8921 15.8538C16.6791 15.9978 16.4653 16.1404 16.2514 16.2828C15.5778 16.7334 14.9139 17.1948 14.2679 17.6842C14.2119 17.7262 14.1559 17.7681 14.0982 17.8114C13.9673 17.9124 13.8417 18.0203 13.7174 18.1295C13.7174 18.1959 13.7174 18.2622 13.7174 18.3306C13.661 18.355 13.6046 18.3794 13.5465 18.4045C13.2687 18.5573 13.0635 18.744 12.8309 18.9594C12.5241 19.2417 12.2157 19.5177 11.8941 19.783C11.7987 19.8681 11.7032 19.9531 11.6049 20.0408C11.6049 20.1072 11.6049 20.1736 11.6049 20.242C11.5385 20.242 11.4721 20.242 11.4037 20.242C11.4037 20.3084 11.4037 20.3747 11.4037 20.4431C11.3373 20.4431 11.2709 20.4431 11.2025 20.4431C11.0272 20.6087 11.0272 20.6087 10.8504 20.8204C10.7892 20.8904 10.728 20.9604 10.665 21.0326C10.5105 21.2323 10.4005 21.4208 10.2972 21.6503C10.2308 21.6503 10.1644 21.6503 10.096 21.6503C9.94463 21.8314 9.80133 22.0192 9.66217 22.2099C9.62185 22.2649 9.58152 22.3199 9.53998 22.3766C9.42304 22.5365 9.30682 22.697 9.19063 22.8574C9.13409 22.9333 9.07755 23.0092 9.0193 23.0873C8.76943 23.3927 8.76943 23.3927 8.68765 23.7628C8.62126 23.7628 8.55486 23.7628 8.48646 23.7628C8.45326 23.8956 8.42007 24.0284 8.38586 24.1652C8.31947 24.1652 8.25308 24.1652 8.18467 24.1652C8.04974 24.3932 7.91577 24.6216 7.78229 24.8505C7.74391 24.9151 7.70553 24.9798 7.66598 25.0464C7.43706 25.4348 7.43706 25.4348 7.37991 25.8753C7.31352 25.8753 7.24713 25.8753 7.17872 25.8753C7.13372 25.9786 7.08873 26.082 7.04237 26.1885C6.98095 26.3293 6.91952 26.4701 6.85807 26.6109C6.82593 26.6846 6.79379 26.7583 6.76067 26.8342C6.58152 27.2439 6.39882 27.6514 6.21049 28.057C6.1303 28.2348 6.05066 28.413 5.97158 28.5914C5.91147 28.725 5.91147 28.725 5.85016 28.8613C5.21701 30.3748 4.83558 32.0913 4.66384 33.7217C4.64731 33.8748 4.64731 33.8748 4.63044 34.031C4.39169 36.7209 4.35858 40.0193 5.66979 42.4735C5.73618 42.4735 5.80258 42.4735 5.87098 42.4735C5.89461 42.4211 5.91823 42.3687 5.94257 42.3147C6.87068 40.2726 7.97638 38.3561 9.29122 36.5384C9.36864 36.4313 9.44605 36.3242 9.52581 36.2138C9.99711 35.575 10.4962 34.9663 11.0143 34.3654C11.2232 34.1487 11.2232 34.1487 11.2025 33.9229C11.2689 33.9229 11.3353 33.9229 11.4037 33.9229C11.708 33.6155 11.708 33.6155 11.8061 33.2187C11.8725 33.2187 11.9389 33.2187 12.0073 33.2187C12.0073 33.1524 12.0073 33.086 12.0073 33.0176C12.0737 33.0176 12.1401 33.0176 12.2085 33.0176C12.3423 32.8852 12.3423 32.8852 12.4851 32.7032C12.8531 32.2696 13.2466 31.8666 13.6483 31.4646C13.7109 31.4015 13.7736 31.3384 13.8381 31.2734C13.8975 31.2142 13.9569 31.155 14.018 31.0941C14.0715 31.0407 14.1249 30.9874 14.18 30.9324C14.321 30.8045 14.321 30.8045 14.5222 30.7039C14.5222 30.6375 14.5222 30.5711 14.5222 30.5027C14.5886 30.5027 14.655 30.5027 14.7234 30.5027C14.7234 30.4363 14.7234 30.3699 14.7234 30.3015C14.8136 30.2579 14.8136 30.2579 14.9057 30.2135C15.1452 30.0955 15.1452 30.0955 15.4275 29.8991C15.4275 29.8327 15.4275 29.7663 15.4275 29.6979C15.5147 29.6575 15.5147 29.6575 15.6036 29.6162C15.8355 29.4938 16.0332 29.3656 16.2323 29.1949C16.2323 29.1285 16.2323 29.0622 16.2323 28.9937C16.2862 28.9688 16.3402 28.944 16.3958 28.9183C16.6933 28.7617 16.9664 28.5879 17.2382 28.3902C17.2382 28.3238 17.2382 28.2574 17.2382 28.189C17.3435 28.1534 17.3435 28.1534 17.4508 28.1171C17.7973 27.9628 18.064 27.7608 18.3637 27.5288C18.9328 27.0902 18.9328 27.0902 19.1496 26.9818C19.1496 26.9154 19.1496 26.8491 19.1496 26.7807C19.2594 26.7403 19.2594 26.7403 19.3715 26.6992C19.6499 26.5806 19.8758 26.4439 20.1249 26.273C20.2136 26.2128 20.3023 26.1526 20.3936 26.0906C20.5762 25.9654 20.7588 25.8402 20.9414 25.715C21.4862 25.3454 22.0375 25.0116 22.6187 24.7024C22.832 24.5887 23.0417 24.4714 23.2504 24.3495C24.2218 23.7848 25.2228 23.2978 26.2392 22.8197C26.6311 22.635 27.0177 22.4431 27.4019 22.243C28.9352 21.4474 30.5733 20.8295 32.219 20.3097C32.4649 20.23 32.7092 20.146 32.9535 20.0616C34.5378 19.5174 36.1394 19.0568 37.7597 18.6324C37.8406 18.6112 37.9215 18.59 38.0048 18.5681C41.514 17.6615 45.1402 17.1636 48.7382 16.7826C48.8335 16.7725 48.9289 16.7623 49.0271 16.7519C49.2067 16.7329 49.3863 16.7142 49.566 16.6958C49.9619 16.6542 50.3465 16.6016 50.7365 16.5199C57.596 15.7028 66.8369 16.6466 72.8548 20.3178C73.0707 20.4686 73.0707 20.4686 73.3704 20.4431C73.3704 20.3768 73.3704 20.3104 73.3704 20.242C73.304 20.242 73.2376 20.242 73.1692 20.242C73.1442 20.1843 73.1192 20.1265 73.0934 20.0671C72.6817 19.3199 71.8716 18.7623 71.2166 18.2387C70.9881 18.0546 70.7671 17.865 70.5474 17.6705C70.2901 17.4039 70.2901 17.4039 70.0508 17.4253C70.0508 17.3589 70.0508 17.2925 70.0508 17.2241C69.6853 16.9261 69.6853 16.9261 69.246 16.8217C69.246 16.7553 69.246 16.6889 69.246 16.6205C69.0347 16.4723 68.8257 16.3375 68.6047 16.2056C68.544 16.1681 68.4833 16.1306 68.4208 16.092C68.1019 15.8834 68.1019 15.8834 67.7371 15.8158C67.7371 15.7494 67.7371 15.683 67.7371 15.6146C66.2022 14.7182 64.6476 13.8823 63.0142 13.1791C62.7381 13.0597 62.4693 12.9315 62.2016 12.7944C61.8134 12.5977 61.418 12.4383 61.0098 12.2886C60.9398 12.2627 60.8698 12.2367 60.7978 12.2099C60.3461 12.0441 59.8928 11.893 59.4285 11.7656C59.2304 11.7048 59.0358 11.6326 58.8426 11.5574C58.2381 11.3279 57.6142 11.1622 56.9922 10.9872C56.8708 10.9527 56.7494 10.9182 56.6242 10.8827C56.2714 10.7827 55.9182 10.6837 55.565 10.5848C55.47 10.5578 55.375 10.5307 55.2771 10.5029C51.1741 9.35212 46.9008 8.95361 42.6541 8.96218C42.3371 8.96272 42.02 8.96218 41.7029 8.96154C39.83 8.96072 37.9789 9.03721 36.1187 9.25821ZM73.3704 20.4431C73.4368 20.5095 73.5032 20.5759 73.5716 20.6443C73.5716 20.5779 73.5716 20.5116 73.5716 20.4431C73.5052 20.4431 73.4388 20.4431 73.3704 20.4431ZM50.2335 21.1473C50.0385 21.1781 49.8434 21.2088 49.6484 21.2393C47.6059 21.5676 45.6416 22.0571 43.6948 22.7568C43.6039 22.7894 43.513 22.822 43.4194 22.8556C42.298 23.2616 41.2295 23.709 40.174 24.2658C39.9667 24.3689 39.7592 24.4716 39.5515 24.5738C38.9798 24.8593 38.4189 25.1628 37.8603 25.4729C37.8603 25.5393 37.8603 25.6057 37.8603 25.6741C37.8052 25.6837 37.7501 25.6933 37.6933 25.7032C36.7595 25.9869 35.9311 26.8303 35.2063 27.4624C34.943 27.686 34.943 27.686 34.7418 27.7866C34.7418 27.853 34.7418 27.9194 34.7418 27.9878C34.6754 27.9878 34.609 27.9878 34.5406 27.9878C34.5406 28.0542 34.5406 28.1206 34.5406 28.189C34.4831 28.2139 34.4255 28.2388 34.3662 28.2644C33.5868 28.6944 32.9286 29.5801 32.4281 30.3015C32.4281 30.3679 32.4281 30.4343 32.4281 30.5027C32.3617 30.5027 32.2953 30.5027 32.2269 30.5027C32.0906 30.6679 32.0906 30.6679 31.9566 30.8862C31.8766 31.0105 31.8766 31.0105 31.7951 31.1373C31.7101 31.2713 31.7101 31.2713 31.6234 31.408C31.5657 31.4963 31.508 31.5846 31.4485 31.6756C30.8416 32.6108 30.3243 33.5375 29.9411 34.5866C29.8565 34.812 29.7657 35.0352 29.6684 35.2554C28.9221 36.9634 28.5047 38.902 28.4043 40.7634C28.3999 40.8436 28.3955 40.9237 28.391 41.0063C28.2319 44.4822 29.2283 47.6301 30.718 50.7223C30.7844 50.7223 30.8508 50.7223 30.9192 50.7223C30.9296 50.7763 30.9399 50.8302 30.9506 50.8858C31.038 51.1876 31.1763 51.4504 31.3216 51.7283C31.388 51.7283 31.4544 51.7283 31.5228 51.7283C31.5487 51.8002 31.5746 51.8722 31.6014 51.9464C31.7314 52.2485 31.8877 52.4963 32.076 52.7657C32.1679 52.8989 32.1679 52.8989 32.2615 53.0348C32.3165 53.1016 32.3715 53.1684 32.4281 53.2372C32.4945 53.2372 32.5609 53.2372 32.6293 53.2372C32.6667 53.3461 32.6667 53.3461 32.7048 53.4573C32.8429 53.768 33.0039 53.9927 33.2329 54.2432C33.2993 54.2432 33.3657 54.2432 33.4341 54.2432C33.4341 54.3095 33.4341 54.3759 33.4341 54.4443C33.5005 54.4443 33.5669 54.4443 33.6353 54.4443C33.6591 54.5009 33.683 54.5574 33.7076 54.6157C33.8656 54.8989 34.0593 55.0962 34.2891 55.3246C34.369 55.405 34.4489 55.4854 34.5312 55.5682C34.7205 55.7741 34.7205 55.7741 34.943 55.7521C34.943 55.8185 34.943 55.8849 34.943 55.9533C35.0094 55.9533 35.0758 55.9533 35.1442 55.9533C35.1442 56.0197 35.1442 56.0861 35.1442 56.1545C35.2106 56.1545 35.277 56.1545 35.3454 56.1545C35.3454 56.2209 35.3454 56.2873 35.3454 56.3557C35.5352 56.5102 35.7247 56.6541 35.9238 56.7958C36.2981 57.0661 36.6298 57.3368 36.9549 57.6634C37.2197 57.7896 37.2197 57.7896 37.4579 57.8646C37.4579 57.931 37.4579 57.9974 37.4579 58.0658C37.7061 58.2427 37.9543 58.4072 38.2124 58.5688C38.2902 58.6181 38.3681 58.6675 38.4483 58.7183C38.61 58.8207 38.772 58.9228 38.9341 59.0246C39.1435 59.1568 39.3513 59.2911 39.5586 59.4266C42.5065 61.3369 46.3248 63.4469 49.8625 63.806C49.9837 63.8184 49.9837 63.8184 50.1072 63.8311C52.0176 64.0123 53.9492 64.0318 55.8668 64.0009C56.0167 63.999 56.0167 63.999 56.1695 63.9971C60.66 63.9284 65.0998 63.1763 69.3383 61.693C69.5458 61.6218 69.7542 61.5533 69.9633 61.4873C70.6188 61.2801 71.1995 61.0284 71.7923 60.6813C71.8673 60.6385 71.9423 60.5957 72.0196 60.5516C72.2357 60.4281 72.451 60.3033 72.6662 60.1783C72.9008 60.0438 73.1356 59.9099 73.3704 59.7759C73.3704 59.7095 73.3704 59.6431 73.3704 59.5747C73.4887 59.528 73.4887 59.528 73.6093 59.4804C73.8657 59.3807 73.8657 59.3807 74.0746 59.2729C74.0746 59.2065 74.0746 59.1401 74.0746 59.0717C74.1897 59.0282 74.1897 59.0282 74.3072 58.9837C74.5927 58.8743 74.5927 58.8743 74.8793 58.6693C74.8793 58.603 74.8793 58.5366 74.8793 58.4682C74.9333 58.4433 74.9872 58.4184 75.0428 58.3927C75.3403 58.2361 75.6134 58.0623 75.8853 57.8646C75.8853 57.7982 75.8853 57.7318 75.8853 57.6634C75.945 57.6364 76.0046 57.6093 76.0661 57.5815C76.2882 57.4619 76.4351 57.3407 76.613 57.1636C76.6707 57.1061 76.7284 57.0487 76.7879 56.9895C76.8469 56.9297 76.9059 56.8699 76.9667 56.8083C77.0272 56.7486 77.0878 56.6888 77.1502 56.6272C77.2074 56.5697 77.2646 56.5123 77.3235 56.4531C77.4018 56.3744 77.4018 56.3744 77.4817 56.2942C77.6166 56.1585 77.6166 56.1585 77.5954 55.9533C77.6618 55.9533 77.7282 55.9533 77.7966 55.9533C77.7966 55.8869 77.7966 55.8205 77.7966 55.7521C77.863 55.7521 77.9294 55.7521 77.9978 55.7521C78.239 55.4868 78.239 55.4868 78.2996 55.1485C78.366 55.1485 78.4323 55.1485 78.5008 55.1485C78.6611 54.9527 78.6611 54.9527 78.8151 54.7084C78.8693 54.6267 78.9235 54.545 78.9794 54.4609C79.121 54.2559 79.121 54.2559 79.1043 54.042C79.1707 54.042 79.2371 54.042 79.3055 54.042C79.3719 53.8428 79.4383 53.6436 79.5067 53.4384C79.5731 53.4384 79.6395 53.4384 79.7079 53.4384C79.7517 53.3496 79.7956 53.2607 79.8407 53.1692C79.9012 53.0473 79.9617 52.9253 80.0223 52.8034C80.0542 52.7388 80.0862 52.6742 80.1191 52.6076C80.307 52.2305 80.5064 51.8653 80.7201 51.5019C81.7103 49.7037 82.2515 47.3065 82.2566 45.269C82.2574 45.1645 82.2583 45.06 82.2591 44.9524C82.2611 44.6165 82.2611 44.2806 82.2605 43.9447C82.2604 43.8299 82.2604 43.7151 82.2603 43.5968C82.2564 41.8144 82.1848 40.099 81.8204 38.3491C81.7889 38.193 81.7889 38.193 81.7567 38.0338C81.323 35.9532 80.5942 33.9421 79.5067 32.1122C79.4425 32.0037 79.4425 32.0037 79.3771 31.8929C79.2415 31.6654 79.1043 31.439 78.966 31.2131C78.9228 31.1421 78.8797 31.0712 78.8352 30.998C78.7294 30.8292 78.6158 30.6653 78.5008 30.5027C78.4344 30.5027 78.368 30.5027 78.2996 30.5027C78.273 30.4452 78.2464 30.3878 78.219 30.3286C77.4834 28.9365 75.9573 27.569 74.6781 26.6801C74.6117 26.6801 74.5453 26.6801 74.4769 26.6801C74.4769 26.6137 74.4769 26.5473 74.4769 26.4789C74.2657 26.3307 74.0567 26.1959 73.8356 26.0639C73.7446 26.0077 73.7446 26.0077 73.6517 25.9503C73.3328 25.7418 73.3328 25.7418 72.968 25.6741C72.968 25.6077 72.968 25.5413 72.968 25.4729C68.6507 23.0581 64.1004 21.7272 59.2106 21.0893C59.0134 21.0635 58.8162 21.0372 58.6192 21.0097C55.8864 20.6336 52.9479 20.6815 50.2335 21.1473ZM96.4067 24.1652C96.5464 24.8347 96.6871 25.5026 96.8594 26.1645C97.3671 28.1715 97.5531 30.1676 97.5447 32.2317C97.5444 32.3749 97.5444 32.3749 97.544 32.5211C97.539 33.917 97.4897 35.2676 97.2115 36.639C97.1915 36.7446 97.1715 36.8503 97.1509 36.9591C96.6228 39.7389 95.8184 42.4456 94.5872 44.9962C94.4944 45.1917 94.4057 45.3887 94.3178 45.5865C93.5712 47.2506 92.6235 48.8266 91.5781 50.3199C91.5305 50.3883 91.4829 50.4567 91.4338 50.5271C90.4691 51.9103 90.4691 51.9103 90.1337 52.3197C89.9481 52.5146 89.9481 52.5146 89.9686 52.7342C89.9022 52.7342 89.8358 52.7342 89.7674 52.7342C89.701 52.9002 89.6346 53.0662 89.5662 53.2372C89.4998 53.2372 89.4334 53.2372 89.365 53.2372C89.1662 53.449 89.1662 53.449 88.9627 53.715C88.8921 53.8037 88.8216 53.8924 88.7489 53.9838C88.5912 54.2007 88.4684 54.4018 88.3591 54.6455C88.2927 54.6455 88.2263 54.6455 88.1579 54.6455C88.1579 54.7119 88.1579 54.7783 88.1579 54.8467C88.0915 54.8467 88.0251 54.8467 87.9567 54.8467C87.8229 54.9791 87.8229 54.9791 87.6801 55.1611C87.3121 55.5946 86.9186 55.9977 86.5169 56.3997C86.4543 56.4628 86.3916 56.5259 86.327 56.5909C86.2677 56.6501 86.2083 56.7092 86.1472 56.7702C86.0937 56.8236 86.0402 56.8769 85.9852 56.9319C85.8442 57.0598 85.8442 57.0598 85.643 57.1604C85.643 57.2268 85.643 57.2932 85.643 57.3616C85.5883 57.3843 85.5336 57.407 85.4772 57.4304C85.1666 57.6043 84.9344 57.8289 84.6748 58.0721C84.1536 58.559 84.1536 58.559 83.9329 58.6693C83.9329 58.7357 83.9329 58.8021 83.9329 58.8705C83.8665 58.8913 83.8001 58.912 83.7317 58.9334C83.3221 59.1211 82.9583 59.3711 82.6252 59.6753C82.6252 59.7417 82.6252 59.8081 82.6252 59.8765C82.5723 59.9007 82.5193 59.925 82.4648 59.95C82.1512 60.1154 81.862 60.3128 81.5689 60.5115C78.7721 62.3887 78.7721 62.3887 77.5954 62.9949C77.4767 63.059 77.3582 63.1233 77.2398 63.1879C76.2866 63.706 75.315 64.1658 74.3229 64.6053C74.2433 64.6405 74.1637 64.6758 74.0818 64.7121C73.9266 64.7808 73.7714 64.8492 73.6161 64.9173C73.1239 65.1341 72.6427 65.3667 72.1633 65.6104C72.465 65.7008 72.7061 65.7156 73.0191 65.6874C73.1087 65.6796 73.1983 65.6718 73.2906 65.6637C73.3875 65.6544 73.4843 65.6451 73.5842 65.6356C73.7371 65.6214 73.7371 65.6214 73.8931 65.607C79.6792 65.0596 85.5179 63.943 90.9172 61.7332C91.2222 61.6087 91.5287 61.4892 91.8361 61.3707C92.6565 61.0516 93.4376 60.6708 94.2197 60.2678C94.4483 60.1509 94.6794 60.0391 94.9104 59.9268C95.5587 59.6026 96.1829 59.235 96.8091 58.8705C96.9126 58.8115 97.016 58.7525 97.1227 58.6917C97.2142 58.6387 97.3058 58.5857 97.4001 58.531C97.4807 58.4846 97.5614 58.4382 97.6445 58.3904C97.7008 58.3496 97.7571 58.3089 97.815 58.267C97.815 58.2006 97.815 58.1342 97.815 58.0658C98.0142 57.9994 98.2134 57.933 98.4186 57.8646C98.4186 57.7982 98.4186 57.7318 98.4186 57.6634C98.4885 57.6395 98.5584 57.6157 98.6304 57.5911C98.9741 57.439 99.2593 57.2356 99.5566 57.0095C99.6119 56.9689 99.6672 56.9284 99.7242 56.8865C99.8632 56.7819 99.9965 56.6699 100.129 56.5568C100.129 56.4905 100.129 56.4241 100.129 56.3557C100.184 56.3308 100.24 56.3059 100.297 56.2802C100.577 56.1301 100.811 55.9496 101.059 55.7521C101.149 55.6815 101.239 55.611 101.331 55.5383C101.399 55.4761 101.467 55.4138 101.537 55.3497C101.537 55.2833 101.537 55.2169 101.537 55.1485C101.603 55.1485 101.67 55.1485 101.738 55.1485C101.906 55.0144 101.906 55.0144 102.04 54.8467C102.04 54.7803 102.04 54.7139 102.04 54.6455C102.106 54.6455 102.173 54.6455 102.241 54.6455C102.241 54.5791 102.241 54.5128 102.241 54.4443C102.308 54.4443 102.374 54.4443 102.442 54.4443C102.442 54.378 102.442 54.3116 102.442 54.2432C102.509 54.2432 102.575 54.2432 102.644 54.2432C102.803 54.0708 102.955 53.8914 103.103 53.7087C103.224 53.5599 103.224 53.5599 103.348 53.4081C103.563 53.1474 103.563 53.1474 103.65 52.8348C103.716 52.8348 103.782 52.8348 103.851 52.8348C104.015 52.6241 104.167 52.4146 104.316 52.1935C104.379 52.1025 104.379 52.1025 104.444 52.0096C104.679 51.6964 104.679 51.6964 104.756 51.3259C104.823 51.3259 104.889 51.3259 104.957 51.3259C105.423 50.7086 105.745 49.9691 106.084 49.2761C106.132 49.1772 106.132 49.1772 106.181 49.0763C106.224 48.9887 106.224 48.9887 106.267 48.8993C106.366 48.7104 106.366 48.7104 106.513 48.4753C108.3 45.3686 108.662 40.6142 107.8 37.1813C107.758 37.0338 107.716 36.8866 107.673 36.7396C107.652 36.6639 107.631 36.5883 107.61 36.5103C107.148 34.8806 106.413 33.3754 105.517 31.9424C105.465 31.8587 105.412 31.7749 105.358 31.6886C105.169 31.3893 105.169 31.3893 104.957 31.1062C104.891 31.1062 104.825 31.1062 104.756 31.1062C104.73 31.0497 104.705 30.9932 104.678 30.9349C103.874 29.4293 102.269 28.1086 100.933 27.0824C100.786 26.9642 100.786 26.9642 100.635 26.8435C98.6605 25.1366 98.6605 25.1366 96.4067 24.1652ZM28.7179 26.5472C28.6435 26.5869 28.569 26.6266 28.4923 26.6675C28.4048 26.7134 28.3173 26.7593 28.2271 26.8066C28.1196 26.8644 28.0121 26.9223 27.9013 26.9818C27.6791 27.1002 27.4568 27.2183 27.2344 27.3363C27.081 27.4178 26.9279 27.4996 26.7749 27.5818C26.7038 27.6198 26.6327 27.6578 26.5594 27.697C26.4639 27.7483 26.4639 27.7483 26.3665 27.8007C26.1912 27.8872 26.1912 27.8872 25.8894 27.9878C25.8894 28.0542 25.8894 28.1206 25.8894 28.189C25.8308 28.2015 25.7721 28.214 25.7116 28.227C25.4868 28.2897 25.3155 28.3714 25.1134 28.4868C25.0443 28.526 24.9753 28.5652 24.9041 28.6055C24.833 28.6465 24.7619 28.6875 24.6886 28.7297C24.6178 28.7699 24.5471 28.8101 24.4742 28.8515C24.337 28.9297 24.2001 29.0084 24.0634 29.0876C23.9018 29.1809 23.7387 29.2719 23.5754 29.3623C23.5091 29.4067 23.4428 29.451 23.3746 29.4967C23.3746 29.5631 23.3746 29.6295 23.3746 29.6979C23.2936 29.7187 23.2127 29.7394 23.1294 29.7608C22.6649 29.9401 22.2517 30.187 21.8656 30.5027C21.8656 30.5691 21.8656 30.6355 21.8656 30.7039C21.7921 30.7311 21.7186 30.7583 21.6428 30.7864C21.0318 31.0452 20.5141 31.4365 20.0549 31.911C19.8693 32.0443 19.6814 32.1726 19.4906 32.2985C19.4445 32.3366 19.3983 32.3747 19.3507 32.414C19.3507 32.4804 19.3507 32.5468 19.3507 32.6152C19.2932 32.6421 19.2356 32.6691 19.1763 32.6969C18.9404 32.8205 18.7347 32.9597 18.5208 33.1182C18.4142 33.196 18.4142 33.196 18.3055 33.2753C18.2521 33.3231 18.1986 33.3708 18.1436 33.4199C18.1436 33.4863 18.1436 33.5527 18.1436 33.6211C18.0772 33.6211 18.0108 33.6211 17.9424 33.6211C17.9424 33.6875 17.9424 33.7539 17.9424 33.8223C17.8855 33.8466 17.8285 33.8709 17.7698 33.896C17.4945 34.0488 17.3056 34.2319 17.0826 34.4542C16.9977 34.5389 16.9128 34.6235 16.8253 34.7108C16.6936 34.8436 16.6936 34.8436 16.5592 34.9792C16.4699 35.0677 16.3805 35.1563 16.2885 35.2475C16.1619 35.3746 16.1619 35.3746 16.0327 35.5041C15.9164 35.6208 15.9164 35.6208 15.7978 35.7397C15.6068 35.9171 15.6068 35.9171 15.6287 36.136C15.5623 36.136 15.4959 36.136 15.4275 36.136C15.2702 36.3063 15.1204 36.4836 14.9749 36.6641C14.895 36.7622 14.8151 36.8602 14.7328 36.9612C14.5637 37.1871 14.4335 37.3881 14.321 37.6449C14.2546 37.6449 14.1882 37.6449 14.1198 37.6449C13.9872 37.7841 13.9872 37.7841 13.8581 37.9679C13.8088 38.0351 13.7595 38.1023 13.7088 38.1715C13.6321 38.2781 13.6321 38.2781 13.5539 38.3868C13.5021 38.4571 13.4502 38.5274 13.3968 38.5998C13.1139 38.9441 13.1139 38.9441 13.0132 39.3551C12.9469 39.3551 12.8805 39.3551 12.8121 39.3551C12.6413 39.5845 12.4832 39.8133 12.3279 40.0529C12.2824 40.1224 12.2368 40.1918 12.1899 40.2633C11.9172 40.6822 11.6585 41.1047 11.4238 41.5461C11.2779 41.816 11.1207 42.078 10.9636 42.3415C9.82876 44.2901 9.05411 46.3321 8.48646 48.5092C8.43841 48.6874 8.43841 48.6874 8.3894 48.8692C7.3403 53.0238 8.38158 57.2451 10.4984 60.8824C10.7508 61.2894 11.0173 61.6859 11.2902 62.0794C11.5043 62.3914 11.5043 62.3914 11.6713 62.6845C11.738 62.7884 11.738 62.7884 11.8061 62.8943C11.8725 62.8943 11.9389 62.8943 12.0073 62.8943C12.0322 62.9483 12.0571 63.0022 12.0827 63.0578C12.2393 63.3553 12.4131 63.6284 12.6109 63.9003C12.6773 63.9003 12.7436 63.9003 12.8121 63.9003C12.839 63.9595 12.8659 64.0187 12.8937 64.0797C13.0147 64.3054 13.1426 64.4649 13.317 64.6516C13.3778 64.7168 13.4386 64.7821 13.5012 64.8493C13.5663 64.9179 13.6315 64.9865 13.6985 65.0571C13.7653 65.1278 13.832 65.1985 13.9008 65.2713C14.3409 65.7329 14.7909 66.1818 15.2578 66.6164C15.3125 66.6677 15.3673 66.7189 15.4237 66.7718C15.6855 67.0387 15.6855 67.0387 16.0311 67.1193C16.0311 67.1857 16.0311 67.2521 16.0311 67.3205C16.0975 67.3205 16.1639 67.3205 16.2323 67.3205C16.2323 67.3869 16.2323 67.4533 16.2323 67.5217C16.4048 67.6815 16.4048 67.6815 16.6221 67.8361C16.7306 67.9174 16.7306 67.9174 16.8414 68.0003C17.0266 68.1433 17.0266 68.1433 17.2382 68.1253C17.2382 68.1917 17.2382 68.2581 17.2382 68.3265C17.4489 68.4909 17.6585 68.6425 17.8795 68.7917C17.9402 68.834 18.0009 68.8763 18.0634 68.9198C18.3767 69.1548 18.3767 69.1548 18.7472 69.2318C18.7472 69.2982 18.7472 69.3646 18.7472 69.433C18.9464 69.4994 19.1455 69.5658 19.3507 69.6342C19.3507 69.7006 19.3507 69.767 19.3507 69.8354C19.5857 69.995 19.5857 69.995 19.8852 70.1561C20.3028 70.392 20.7103 70.6346 21.1112 70.898C21.5723 71.1942 22.0437 71.4428 22.5368 71.6811C22.7785 71.8011 23.0144 71.9241 23.2504 72.0544C24.1523 72.5507 25.0658 72.9693 26.024 73.3468C26.5044 73.5362 26.9663 73.7396 27.4254 73.9758C27.6474 74.0837 27.8705 74.1543 28.1088 74.2176C28.4605 74.3118 28.7835 74.4373 29.1169 74.5835C29.4618 74.7275 29.8162 74.8427 30.171 74.9595C30.2495 74.9854 30.3279 75.0112 30.4088 75.0379C31.6174 75.5366 31.6174 75.5366 32.8305 75.5694C32.7815 75.5345 32.7324 75.4996 32.6819 75.4637C31.8022 74.837 30.9309 74.2128 30.1113 73.5083C29.9283 73.3358 29.9283 73.3358 29.7121 73.3563C29.7121 73.2899 29.7121 73.2235 29.7121 73.1551C29.566 73.0266 29.566 73.0266 29.3725 72.8973C28.6079 72.3421 27.9343 71.6876 27.2734 71.0147C27.0599 70.8054 26.8283 70.6239 26.5936 70.439C26.5604 70.3726 26.5272 70.3062 26.493 70.2378C26.4266 70.2378 26.3602 70.2378 26.2918 70.2378C26.2918 70.1714 26.2918 70.105 26.2918 70.0366C26.2254 70.0366 26.159 70.0366 26.0906 70.0366C26.0906 69.9702 26.0906 69.9038 26.0906 69.8354C26.0242 69.8354 25.9578 69.8354 25.8894 69.8354C25.8894 69.769 25.8894 69.7026 25.8894 69.6342C25.823 69.6342 25.7567 69.6342 25.6882 69.6342C25.6592 69.5741 25.6302 69.5139 25.6002 69.4519C25.4823 69.2124 25.4823 69.2124 25.2859 68.9301C25.2195 68.9301 25.1531 68.9301 25.0847 68.9301C25.0617 68.876 25.0388 68.8219 25.0151 68.7662C24.8433 68.4548 24.6183 68.198 24.3868 67.9304C24.1372 67.6415 23.9016 67.3615 23.7074 67.0309C23.6639 66.9605 23.6205 66.8901 23.5757 66.8176C23.5094 66.8176 23.443 66.8176 23.3746 66.8176C23.3528 66.7516 23.331 66.6856 23.3085 66.6176C23.1256 66.2076 22.8748 65.8594 22.6201 65.491C21.2015 63.393 20.035 61.0952 19.3088 58.6639C19.2544 58.4825 19.1968 58.302 19.1389 58.1216C17.6175 53.19 18.116 47.8085 19.5519 42.9262C19.5758 42.8444 19.5996 42.7626 19.6242 42.6784C19.7697 42.1967 19.9483 41.7464 20.1585 41.2895C20.2865 40.9952 20.3837 40.6946 20.4819 40.3894C20.9237 39.0548 21.5152 37.7809 22.1674 36.5384C22.2396 36.3985 22.3118 36.2586 22.3839 36.1187C23.0504 34.8344 23.7482 33.5525 24.5856 32.3704C24.6998 32.215 24.6998 32.215 24.6823 32.0116C24.7487 32.0116 24.8151 32.0116 24.8835 32.0116C24.9987 31.8425 24.9987 31.8425 25.1161 31.6155C25.4203 31.0897 25.7714 30.6126 26.1409 30.1317C26.1958 30.0601 26.2507 29.9885 26.3073 29.9146C26.6214 29.5087 26.9452 29.1166 27.2893 28.7357C27.4186 28.5948 27.4186 28.5948 27.3984 28.3902C27.4648 28.3902 27.5312 28.3902 27.5996 28.3902C27.7458 28.2254 27.8851 28.0545 28.0208 27.8809C28.392 27.416 28.7763 26.9872 29.2091 26.5795C28.9253 26.4502 28.9253 26.4502 28.7179 26.5472ZM23.8775 44.2842C23.4748 45.5437 23.1893 46.8029 22.9722 48.1068C22.9492 48.2369 22.9263 48.367 22.9026 48.501C22.4364 51.647 22.7909 54.8566 23.7769 57.8646C23.8 57.9359 23.823 58.0073 23.8468 58.0808C24.2313 59.2481 24.7917 60.313 25.3865 61.3854C25.4478 61.4976 25.5091 61.6098 25.5723 61.7253C25.9898 62.4665 26.4757 63.1489 26.9767 63.8345C27.2132 64.1629 27.4375 64.4999 27.6624 64.8363C27.7309 64.9207 27.7309 64.9207 27.8007 65.0068C27.8671 65.0068 27.9335 65.0068 28.0019 65.0068C28.0268 65.0623 28.0517 65.1178 28.0774 65.175C28.2275 65.4546 28.408 65.689 28.6055 65.9374C28.6761 66.0271 28.7466 66.1168 28.8193 66.2093C28.8815 66.2772 28.9438 66.3452 29.0079 66.4152C29.0743 66.4152 29.1407 66.4152 29.2091 66.4152C29.2091 66.4816 29.2091 66.548 29.2091 66.6164C29.3432 66.784 29.3432 66.784 29.5109 66.9182C29.5773 66.9182 29.6437 66.9182 29.7121 66.9182C29.7121 66.9846 29.7121 67.0509 29.7121 67.1193C29.7785 67.1193 29.8448 67.1193 29.9132 67.1193C29.9132 67.1857 29.9132 67.2521 29.9132 67.3205C29.9796 67.3205 30.046 67.3205 30.1144 67.3205C30.1144 67.3869 30.1144 67.4533 30.1144 67.5217C30.1808 67.5217 30.2472 67.5217 30.3156 67.5217C30.3156 67.5881 30.3156 67.6545 30.3156 67.7229C30.382 67.7229 30.4484 67.7229 30.5168 67.7229C30.5168 67.7893 30.5168 67.8557 30.5168 67.9241C30.5832 67.9241 30.6496 67.9241 30.718 67.9241C30.718 67.9905 30.718 68.0569 30.718 68.1253C30.7844 68.1253 30.8508 68.1253 30.9192 68.1253C30.9192 68.1917 30.9192 68.2581 30.9192 68.3265C30.9856 68.3265 31.052 68.3265 31.1204 68.3265C31.1204 68.3929 31.1204 68.4593 31.1204 68.5277C31.2948 68.6893 31.4763 68.8433 31.6611 68.9929C31.7615 69.0751 31.8618 69.1574 31.9652 69.2421C32.2 69.4528 32.2 69.4528 32.4281 69.433C32.4281 69.4994 32.4281 69.5658 32.4281 69.6342C32.6006 69.794 32.6006 69.794 32.8179 69.9486C32.9265 70.0299 32.9265 70.0299 33.0372 70.1128C33.2225 70.2558 33.2225 70.2558 33.4341 70.2378C33.4341 70.3042 33.4341 70.3706 33.4341 70.439C33.6276 70.5952 33.8209 70.7379 34.0251 70.8791C34.0878 70.9231 34.1505 70.967 34.2151 71.0123C34.4235 71.1576 34.6328 71.3014 34.8424 71.4449C34.914 71.4941 34.9855 71.5433 35.0593 71.594C36.0777 72.2912 37.1165 72.9393 38.1862 73.5546C38.408 73.6842 38.6242 73.8222 38.8411 73.9598C40.9221 75.2084 43.3106 76.1964 45.6061 76.9777C45.6914 77.0068 45.7767 77.0358 45.8646 77.0658C51.602 78.9999 57.3563 79.8784 63.4115 79.7944C63.5093 79.7931 63.6071 79.7918 63.7078 79.7905C67.8612 79.719 71.9373 78.8596 75.8727 77.5687C76.017 77.5215 76.017 77.5215 76.1642 77.4734C76.7436 77.2785 77.2971 77.0504 77.8502 76.79C78.0853 76.6819 78.3219 76.5857 78.5636 76.4936C79.9071 75.9621 81.1796 75.2939 82.424 74.5634C82.5321 74.5006 82.6403 74.4379 82.7517 74.3732C83.6516 73.8364 84.4931 73.2231 85.3356 72.6013C85.4734 72.5011 85.6126 72.4028 85.7531 72.3064C85.9208 72.1914 86.0842 72.0703 86.2466 71.9479C86.2466 71.8815 86.2466 71.8151 86.2466 71.7467C86.3047 71.7198 86.3628 71.6928 86.4226 71.665C86.6546 71.5426 86.8522 71.4144 87.0514 71.2438C87.0514 71.1774 87.0514 71.111 87.0514 71.0426C87.1074 71.0177 87.1634 70.9928 87.2211 70.9671C87.4964 70.8183 87.723 70.6468 87.9567 70.439C87.9567 70.3726 87.9567 70.3062 87.9567 70.2378C88.0231 70.2378 88.0895 70.2378 88.1579 70.2378C88.1579 70.1714 88.1579 70.105 88.1579 70.0366C88.2243 70.0366 88.2907 70.0366 88.3591 70.0366C88.3591 69.9702 88.3591 69.9038 88.3591 69.8354C88.4255 69.8354 88.4919 69.8354 88.5603 69.8354C88.5603 69.769 88.5603 69.7026 88.5603 69.6342C88.6267 69.6342 88.6931 69.6342 88.7615 69.6342C88.7615 69.5678 88.7615 69.5014 88.7615 69.433C88.8279 69.433 88.8943 69.433 88.9627 69.433C88.9627 69.3666 88.9627 69.3003 88.9627 69.2318C89.0291 69.2318 89.0954 69.2318 89.1639 69.2318C89.3184 69.0829 89.3184 69.0829 89.4782 68.8861C89.8171 68.4858 90.1668 68.0974 90.5215 67.7111C90.6937 67.5359 90.6937 67.5359 90.6728 67.3205C90.7392 67.3205 90.8056 67.3205 90.874 67.3205C91.0339 67.1175 91.0339 67.1175 91.1883 66.8679C91.2425 66.7838 91.2967 66.6998 91.3526 66.6132C91.4144 66.5152 91.4144 66.5152 91.4775 66.4152C90.9085 66.5815 90.3452 66.7579 89.7854 66.953C88.4318 67.4218 87.0521 67.7847 85.6659 68.1419C85.4103 68.208 85.1552 68.2756 84.9003 68.345C81.8933 69.1413 78.7587 69.606 75.6715 69.9549C75.6026 69.9628 75.5337 69.9707 75.4627 69.9789C72.9565 70.2639 70.4565 70.3725 67.9363 70.3646C67.5663 70.3635 67.1964 70.3642 66.8264 70.3653C64.2131 70.3722 61.6226 70.2254 59.023 69.9486C58.8994 69.9356 58.8994 69.9356 58.7734 69.9223C53.2749 69.3405 47.6873 68.4469 42.634 66.1249C42.4255 66.0302 42.2163 65.9396 42.0047 65.8521C39.6939 64.8882 37.4662 63.5742 35.4305 62.1198C35.1171 61.8714 35.1171 61.8714 34.7418 61.7878C34.7418 61.7214 34.7418 61.655 34.7418 61.5866C34.3763 61.2886 34.3763 61.2886 33.9371 61.1842C33.9371 61.1178 33.9371 61.0514 33.9371 60.983C33.7711 60.9166 33.6051 60.8503 33.4341 60.7818C33.4341 60.7155 33.4341 60.6491 33.4341 60.5807C33.2547 60.4225 33.2547 60.4225 33.0254 60.26C32.6523 59.9785 32.3241 59.6839 32.0002 59.348C31.8154 59.1632 31.6216 58.9954 31.4222 58.8265C31.0622 58.5184 30.7603 58.1814 30.461 57.8147C30.413 57.7648 30.3651 57.7148 30.3156 57.6634C30.2492 57.6634 30.1828 57.6634 30.1144 57.6634C30.0854 57.6032 30.0563 57.5431 30.0264 57.4811C29.9085 57.2416 29.9085 57.2416 29.7121 56.9592C29.6457 56.9592 29.5793 56.9592 29.5109 56.9592C29.4858 56.9031 29.4608 56.8469 29.435 56.7891C29.2883 56.5173 29.1104 56.298 28.9136 56.0602C28.6996 55.8014 28.5093 55.5585 28.3411 55.2676C28.2955 55.1951 28.25 55.1226 28.2031 55.0479C28.1367 55.0479 28.0703 55.0479 28.0019 55.0479C27.9355 54.8487 27.8692 54.6496 27.8007 54.4443C27.7344 54.4443 27.668 54.4443 27.5996 54.4443C27.5739 54.3569 27.5482 54.2695 27.5218 54.1795C27.3946 53.8304 27.2363 53.5605 27.0337 53.2498C26.1685 51.8781 25.5825 50.4518 25.0847 48.9116C25.058 48.8312 25.0312 48.7509 25.0037 48.6681C24.5284 47.232 24.2398 45.7726 23.9781 44.2842C23.9449 44.2842 23.9117 44.2842 23.8775 44.2842Z" fill="#E8E8E8"/>
</svg>
