<svg width="62" height="47" viewBox="0 0 62 47" fill="none" xmlns="http://www.w3.org/2000/svg">
<g clip-path="url(#clip0_5_10)">
<path d="M30.5803 0.00682449C30.5476 0.00767517 30.437 0.0102272 30.3344 0.0127754C25.9927 0.118633 21.6023 1.11555 17.5345 2.91807C17.462 2.95038 17.3946 2.97844 17.384 2.98056C17.373 2.98269 17.2454 3.00819 17.0995 3.03711C13.7526 3.70285 10.6392 4.91998 8.03676 6.58008C6.40779 7.61908 4.987 8.82898 3.8134 10.1758C2.28831 11.926 1.20883 13.8705 0.58514 15.991C0.163271 17.4254 -0.0410923 19.0175 0.0085145 20.4782C0.0894965 22.8453 0.793319 24.8821 2.09327 26.5111L2.17001 26.6068L2.15348 26.6897C2.04197 27.2445 1.96523 27.846 1.93555 28.4025C1.91477 28.7958 1.91604 29.2179 1.93979 29.5992C2.01822 30.8568 2.34385 32.1466 2.8997 33.402C3.00909 33.6485 3.18038 34.0014 3.30291 34.2331C3.91303 35.3839 4.71268 36.496 5.67683 37.5342C5.96218 37.8415 6.33783 38.2161 6.65031 38.5056C9.43677 41.0861 13.1908 43.0323 17.7228 44.246C20.5487 45.0032 23.6163 45.4619 26.9531 45.6264L27.0866 45.6332L27.2159 45.6647C29.07 46.117 30.9746 46.3895 32.8592 46.4724C33.3286 46.4928 33.5609 46.4975 34.1036 46.4975C34.5921 46.4975 34.7472 46.4949 35.1318 46.4809C38.4826 46.3555 41.7087 45.6107 44.6016 44.2945C45.5009 43.8855 46.3951 43.4064 47.1528 42.9277C49.3647 41.5303 51.3621 39.582 53.1433 37.0835C53.7072 36.2932 54.2758 35.4098 54.807 34.4992C54.8851 34.3657 54.8885 34.361 54.9109 34.3466C54.9236 34.3385 54.9715 34.3075 55.0169 34.2786C55.3044 34.0936 55.6423 33.8615 55.9391 33.6447C57.136 32.7702 58.182 31.7763 59.041 30.6982C60.0225 29.4657 60.7726 28.1194 61.2941 26.6531C61.6524 25.6456 61.8868 24.5118 61.9657 23.4073C61.9873 23.1051 61.9958 22.8644 61.9958 22.5379C61.9958 22.1035 61.9793 21.768 61.9385 21.3561C61.7321 19.2887 60.9625 17.3548 59.6515 15.6106C58.302 13.8153 56.3873 12.247 54.0205 10.9992C53.2722 10.6047 52.462 10.2387 51.7225 9.96109C51.628 9.92538 51.5483 9.89349 51.5453 9.88924C51.5419 9.88542 51.5084 9.82845 51.4707 9.76298C51.1523 9.21287 50.7579 8.6296 50.3492 8.10287C49.6823 7.24285 48.9127 6.43299 48.0529 5.68562C45.5157 3.48051 42.2277 1.83443 38.4834 0.895332C36.7536 0.461708 34.9444 0.181976 33.1136 0.065918C32.7282 0.0416832 32.4352 0.02808 31.9264 0.012352C31.7967 0.0080986 30.7198 0.00384903 30.5803 0.00682449ZM31.6551 2.45724C32.7651 2.47977 33.8001 2.55629 34.8393 2.6936C37.8933 3.0962 40.7149 3.9711 43.1367 5.2673C45.6357 6.60474 47.6378 8.35795 48.9772 10.3815C49.3537 10.9504 49.6645 11.5136 49.9736 12.1883C50.4327 13.1908 50.78 14.2519 50.9911 15.3006C51.1408 16.0446 51.2209 16.7376 51.2438 17.4853C51.2493 17.666 51.2468 18.1213 51.2392 18.2803C51.2239 18.614 51.2002 18.901 51.1645 19.188C50.9271 21.1074 50.2733 23.0549 49.2367 24.9293C48.7427 25.8224 48.1504 26.7097 47.5047 27.5225C47.369 27.693 47.2613 27.8248 47.2592 27.8226C47.2583 27.8218 47.2668 27.7886 47.2787 27.7491C47.2901 27.71 47.3109 27.6364 47.3249 27.5863C47.7201 26.1659 47.8807 24.6385 47.807 23.012C47.7056 20.7903 47.1617 18.3887 46.2022 15.9251C44.9942 12.8247 43.1779 10.2128 40.8154 8.17897C39.2136 6.79987 37.362 5.68052 35.1678 4.7648C33.8297 4.20619 32.4204 3.73983 30.9788 3.37805C29.8396 3.09237 28.7109 2.87598 27.5148 2.71486C27.3902 2.69786 27.3537 2.69148 27.3664 2.68935C27.3906 2.68553 27.6399 2.65577 27.7968 2.63834C28.7037 2.53674 29.6369 2.47552 30.5464 2.45766C30.7906 2.45256 31.4236 2.45256 31.6551 2.45724ZM23.5908 4.88469C24.1102 4.89107 24.5041 4.90425 24.9751 4.93145C28.0758 5.11043 31.0988 5.77192 33.8641 6.87724C36.0909 7.76745 37.9085 8.85917 39.4408 10.2281C39.9025 10.6404 40.3935 11.134 40.762 11.5566L40.773 11.5689L40.7581 11.5604C40.6725 11.5102 40.3019 11.3168 40.1116 11.2229C38.2066 10.2863 36.0302 9.64097 33.5418 9.27451C32.6014 9.13593 31.4558 9.02497 30.6587 8.99478C30.4798 8.98841 29.8667 8.98841 29.6645 8.99478C28.8224 9.02284 28.0397 9.09384 27.2316 9.21457C27.1617 9.2252 27.034 9.24051 26.9475 9.24858C21.6909 9.74895 17.069 11.0847 13.1331 13.2418C10.6125 14.623 8.3946 16.3452 6.62657 18.2931C5.1655 19.903 3.99953 21.6609 3.19013 23.4728L3.14646 23.5706L3.13544 23.5451C2.56305 22.2642 2.343 20.7214 2.4914 19.0285C2.55924 18.2501 2.70339 17.4675 2.91115 16.7435C3.19395 15.7598 3.60055 14.8122 4.13224 13.8986C5.24733 11.9826 6.91954 10.2604 9.02762 8.85662C9.89468 8.27888 10.841 7.75172 11.8505 7.28324C12.9533 6.77181 14.1426 6.33011 15.3697 5.97556C17.68 5.30854 20.1535 4.93996 22.6665 4.88894C22.789 4.88639 22.951 4.88384 23.0269 4.88342C23.1028 4.88299 23.1859 4.88214 23.2113 4.88171C23.2372 4.88086 23.4076 4.88256 23.5908 4.88469ZM30.6969 11.4482C31.0662 11.4664 31.6428 11.5128 32.1024 11.5617C34.5297 11.8185 36.6785 12.3571 38.4856 13.1618C40.6449 14.1235 42.2981 15.4545 43.4229 17.1367C44.3413 18.5107 44.9251 20.1322 45.1719 21.9959C45.3037 22.9932 45.3381 24.0552 45.2758 25.1971C45.2541 25.5882 45.2457 25.6647 45.191 25.9666C44.8904 27.619 44.2518 29.061 43.2495 30.3496C42.7975 30.9311 42.254 31.4944 41.6528 32.0037C40.9748 32.5781 40.2159 33.0993 39.3581 33.5797C39.2403 33.6456 39.2169 33.657 39.1165 33.697C37.0058 34.5358 34.69 35.0604 32.272 35.247C31.7963 35.2836 31.4291 35.3027 30.858 35.3201C30.6278 35.3274 29.6653 35.3274 29.427 35.3201C28.5854 35.295 27.9609 35.2559 27.1587 35.1786C27.0103 35.1641 26.9959 35.1616 26.758 35.0978C26.5125 35.0319 26.3472 34.9809 26.1665 34.9154C24.5685 34.3338 23.1028 33.6366 21.8291 32.8523C20.0861 31.7788 18.6865 30.5392 17.669 29.1677C16.4924 27.5816 15.8102 25.8131 15.6304 23.8835C15.5914 23.463 15.5842 23.0171 15.6096 22.5762C15.6978 21.0317 16.1494 19.4639 16.9037 18.0826C17.8067 16.4289 19.1131 15.0779 20.7967 14.0555C20.8561 14.0193 20.9108 13.9853 20.9176 13.9802C20.9345 13.9675 21.1279 13.8539 21.2678 13.7753C21.8198 13.4628 22.421 13.1674 23.0142 12.9165C24.3459 12.3533 25.7761 11.94 27.2392 11.6956C28.0974 11.5523 28.9267 11.4703 29.7768 11.4443C29.9328 11.4397 30.5769 11.4426 30.6969 11.4482ZM53.145 13.3085C54.3271 13.953 55.4227 14.728 56.3143 15.5506C56.5886 15.804 56.8931 16.1122 57.1288 16.3758C58.2159 17.5921 58.9401 18.9257 59.295 20.3656C59.5337 21.3344 59.6087 22.3692 59.5154 23.4116C59.4345 24.312 59.2373 25.1831 58.9253 26.0154C58.1108 28.1883 56.6747 30.0465 54.629 31.5761C53.9273 32.1007 53.1497 32.5883 52.2949 33.0406C52.0176 33.1873 51.608 33.3896 51.2998 33.5321C48.5621 34.7985 45.1812 35.6904 41.5129 36.1138C40.8976 36.1848 40.2269 36.2469 39.6452 36.286C39.5591 36.292 39.4752 36.2979 39.4586 36.2992L39.4289 36.3017L39.5053 36.2647C39.6452 36.1963 40.0124 36.0101 40.1391 35.9434C40.2349 35.8923 40.2964 35.8634 40.402 35.8196C40.9235 35.602 41.3526 35.4051 41.8817 35.1399C42.1874 34.9868 42.3591 34.8976 42.6046 34.7636C44.2976 33.8394 45.8431 32.7243 47.2346 31.4234C47.5801 31.0999 47.9715 30.7084 48.2929 30.3645C49.8205 28.7265 51.0848 26.858 52.0087 24.8719C52.7897 23.1926 53.3176 21.4428 53.5559 19.7449C53.6233 19.2636 53.658 18.8776 53.6822 18.3441C53.6894 18.1813 53.6898 17.4471 53.6822 17.2834C53.6686 16.9739 53.6529 16.7346 53.6305 16.4884C53.5355 15.4477 53.3324 14.4049 53.0212 13.3638C52.9987 13.289 52.9796 13.2252 52.9784 13.2222C52.9771 13.2188 52.986 13.2218 52.9992 13.229C53.0119 13.2358 53.0776 13.2719 53.145 13.3085ZM16.182 14.5737C15.7216 15.0311 15.351 15.4354 14.9516 15.9166C13.6449 17.4904 12.4064 19.5421 11.5453 21.558C10.6735 23.5986 10.1724 25.5882 10.0507 27.4885C10.0282 27.8397 10.0215 28.1037 10.0244 28.5045C10.027 28.8255 10.0291 28.902 10.0422 29.1486C10.0812 29.8581 10.1796 30.5762 10.3305 31.2525C10.869 33.666 12.1172 36.0109 13.9785 38.1081C14.4004 38.5834 14.8872 39.0778 15.3866 39.539C16.1193 40.215 16.974 40.8986 17.8394 41.5006C17.9763 41.5958 18.2596 41.788 18.3537 41.8492C18.394 41.8755 18.4262 41.8976 18.4254 41.8985C18.4237 41.9006 18.2676 41.8589 18.0535 41.7999C14.3546 40.7766 11.2476 39.2202 8.85336 37.1907C8.33185 36.7485 7.81713 36.2541 7.36855 35.7635C6.87333 35.2219 6.43408 34.6612 6.04697 34.0766C5.08113 32.6176 4.51595 31.0931 4.39045 29.6099C4.35738 29.2145 4.35441 28.7805 4.38197 28.3558C4.45277 27.2789 4.73218 26.1277 5.20239 24.9756C5.46229 24.3388 5.78876 23.6802 6.15594 23.0511C7.03911 21.5368 8.19702 20.0854 9.51012 18.8453C11.2807 17.1733 13.4494 15.7253 15.87 14.5988C16.054 14.5133 16.3898 14.3611 16.3949 14.3607C16.3957 14.3607 16.2999 14.4563 16.182 14.5737ZM13.2179 24.315C13.3595 25.6069 13.6741 26.8181 14.1698 27.9778C15.0555 30.0494 16.5123 31.9043 18.5157 33.5108C20.2642 34.9129 22.3854 36.093 24.8649 37.0431C25.422 37.2566 25.6111 37.3195 26.0394 37.4347C27.3334 37.782 29.2774 38.1519 31.0869 38.3946C33.9128 38.7743 36.5458 38.9035 38.9647 38.7819C43.0846 38.574 47.093 37.7918 50.4294 36.5441C50.5171 36.5113 50.518 36.5109 50.5091 36.5232C50.4942 36.5445 50.267 36.8293 50.186 36.9284C48.7618 38.6726 47.2108 40.0458 45.528 41.0529C44.2811 41.799 42.8162 42.4588 41.3623 42.929C38.673 43.7988 35.8361 44.1623 32.8507 44.019C29.1438 43.8417 25.4199 42.8648 22.1238 41.2047C20.1612 40.2163 18.4037 39.0098 16.949 37.6515C16.6327 37.3556 16.2465 36.9662 15.9632 36.6563C14.9223 35.5187 14.1036 34.319 13.5223 33.0789C12.9109 31.7754 12.5641 30.4291 12.4848 29.0508C12.4708 28.8136 12.4679 28.6933 12.4679 28.4004C12.4679 28.1079 12.4708 27.9876 12.4844 27.7393C12.5387 26.7628 12.7159 25.7446 13.0127 24.7018C13.0678 24.5097 13.1357 24.2852 13.1789 24.1555L13.1963 24.1024L13.2018 24.1598C13.2048 24.1912 13.212 24.261 13.2179 24.315Z" fill="#E8E8E8"/>
<path d="M29.9091 18.6897C29.4444 20.1237 29.045 21.3552 29.0217 21.4271L28.9793 21.558H26.1067C24.4405 21.558 23.2351 21.5597 23.2363 21.5619C23.2376 21.564 24.2836 22.3267 25.5602 23.2568C27.3096 24.5309 27.8811 24.9497 27.8794 24.9543C27.8773 24.9599 27.2655 26.847 26.122 30.3764C26.1067 30.424 26.1063 30.4261 26.1152 30.4206C26.1203 30.4172 27.1642 29.6571 28.4353 28.7311C29.706 27.8056 30.7482 27.0468 30.7507 27.0451C30.7541 27.043 31.619 27.6705 33.0784 28.7337C34.3559 29.6643 35.4014 30.4248 35.4023 30.4244C35.4027 30.4236 35.0046 29.1924 34.517 27.6879C34.0294 26.1838 33.6313 24.9509 33.6326 24.9484C33.6334 24.9458 34.6781 24.1832 35.9539 23.2539C37.2297 22.3245 38.2735 21.5631 38.2735 21.561C38.2735 21.5593 36.9812 21.558 35.4019 21.558H32.5306L31.6449 18.8245C31.1577 17.3213 30.7579 16.0892 30.7562 16.0871C30.7549 16.0846 30.3738 17.2558 29.9091 18.6897Z" fill="#E8E8E8"/>
</g>
<defs>
<clipPath id="clip0_5_10">
<rect width="62" height="46.5" fill="white"/>
</clipPath>
</defs>
</svg>
