<svg width="300" height="225" viewBox="0 0 300 225" fill="none" xmlns="http://www.w3.org/2000/svg">
<g clip-path="url(#clip0_92_2)">
<path d="M179.936 187.313C153.255 187.313 127.853 181.457 122.879 179.662C109.261 174.749 97.666 168.38 88.4185 160.733C73.6353 148.51 65.3346 133.477 63.7446 116.055C62.8496 106.24 64.7607 95.5044 69.1275 85.8253C74.5068 73.9035 83.4873 63.9739 95.0998 57.1092L101.119 67.2916C91.4787 72.9897 84.3435 80.8623 79.9097 90.6895C76.4203 98.4234 74.822 107.277 75.5241 114.979C76.8166 129.148 83.6907 141.475 95.956 151.616C104.152 158.392 114.56 164.085 126.894 168.534C132.586 170.587 161.597 176.531 187.361 175.312C204.601 174.497 221.322 171.524 235.714 166.714C261.968 157.94 278.755 143.757 285.611 124.562C287.083 120.441 289.334 112.043 287.873 102.104C285.985 89.2606 278.354 78.0856 265.19 68.8911C254.505 61.4277 244.145 58.1677 243.709 58.0324L247.213 46.7339C248.485 47.1291 259.992 50.8302 271.964 59.1932C287.681 70.1718 297.229 84.4152 299.576 100.384C301.411 112.863 298.594 123.381 296.751 128.54C292.279 141.062 284.271 151.873 272.95 160.676C263.873 167.734 252.606 173.54 239.464 177.933C224.054 183.083 206.23 186.263 187.919 187.127C185.258 187.253 182.589 187.311 179.936 187.311V187.313Z" fill="#E8E8E8"/>
<path d="M131.7 220.229C94.56 218.625 63.1613 209.219 40.8995 193.028C21.9518 179.246 10.4075 160.956 9.22673 142.846C8.63046 133.698 10.6827 123.512 15.1624 113.391C19.9325 102.614 27.4217 92.1302 36.8185 83.0733C52.6284 67.8361 81.8761 48.7427 131.429 44.3112L132.482 56.0931C86.3628 60.2176 59.4673 77.6728 45.0275 91.5904C32.6152 103.553 19.7925 123.097 21.0298 142.076C21.9812 156.668 31.7591 171.754 47.8571 183.461C73.5989 202.185 107.938 207.364 132.211 208.412L131.7 220.23V220.229Z" fill="#E8E8E8"/>
<path d="M145.918 182.254C140.614 182.254 135.066 181.975 129.265 181.37L130.489 169.605C172.171 173.942 199.361 160.171 214.831 147.855C232.932 133.444 245.224 112.69 247.712 92.3372C249.179 80.3425 246.52 67.1305 240.224 55.1346C230.056 35.7624 208.262 21.0674 180.431 14.8201C150.628 8.12942 117.913 11.8129 88.3126 25.193L83.4402 14.4143C115.366 -0.0160481 150.731 -3.97117 183.022 3.27813C214.246 10.2887 238.913 27.1853 250.698 49.6376C258.101 63.7411 261.21 79.4157 259.454 93.7732C258.092 104.907 254.144 116.44 248.036 127.123C241.478 138.592 232.785 148.682 222.198 157.11C207.187 169.061 182.355 182.255 145.918 182.255V182.254Z" fill="#E8E8E8"/>
<path d="M177.199 180.605L173.428 169.392C194.306 162.371 208.279 151.555 214.959 137.244C223.811 118.281 218.578 96.17 212.628 80.9611C207.478 67.795 199.823 56.7846 189.875 48.2358C182.976 42.3072 174.923 37.4865 165.256 33.4996C147.675 26.2491 127.893 22.7503 108.044 23.3713C88.8925 23.9746 70.5129 28.3461 54.8947 36.0129C44.3736 41.1782 35.4989 47.6348 28.5166 55.2028C21.2944 63.0307 16.3055 71.8512 13.6887 81.4209C12.0258 87.5024 7.64254 108.442 21.065 122.561L12.4915 130.711C5.04107 122.874 0.831914 112.87 -0.0183851 100.975C-0.722851 91.127 1.1177 82.5417 2.27731 78.3008C5.3986 66.8859 11.3013 56.4153 19.8207 47.182C27.7968 38.5367 37.844 31.2063 49.6812 25.3953C66.7977 16.9923 86.8509 12.2045 107.671 11.5482C129.176 10.8708 150.649 14.6801 169.765 22.5633C180.615 27.0383 189.715 32.5011 197.584 39.2635C209.014 49.086 217.782 61.6653 223.643 76.6508C230.435 94.0143 236.301 119.488 225.677 142.247C217.573 159.605 201.262 172.51 177.198 180.604L177.199 180.605Z" fill="#E8E8E8"/>
<path d="M165.062 224.39C164.907 224.39 164.755 224.39 164.601 224.39C144.308 224.321 123.814 219.741 105.335 211.15C90.8083 204.396 78.0715 195.32 68.4994 184.903C58.27 173.771 51.6475 161.053 49.3471 148.123C46.9197 134.473 49.0366 119.678 55.6391 104.148C57.943 98.7291 62.0193 90.4284 68.3524 81.6597C79.8332 65.7615 95.4267 54.5207 114.699 48.2499C131.945 42.6388 146.172 43.0175 150.122 43.2669C170.475 44.5535 198.355 50.2586 215.588 70.1295C227.465 83.8248 232.585 102.197 230.804 124.737L219.012 123.805C220.532 104.542 216.374 89.0912 206.651 77.8798C192.101 61.1031 167.474 56.2166 149.375 55.0723C146.94 54.9182 134.002 54.4078 118.359 59.4978C101.522 64.9759 87.9246 74.762 77.9421 88.5844C72.2511 96.464 68.5923 103.914 66.5248 108.776C60.835 122.158 58.9733 134.698 60.9926 146.05C62.9249 156.912 68.3806 167.291 77.2082 176.898C85.7383 186.182 97.1885 194.315 110.32 200.422C127.261 208.298 146.044 212.495 164.64 212.56C164.78 212.56 164.921 212.56 165.061 212.56C184.886 212.56 203.718 207.727 219.547 198.573C238.21 187.78 249.767 169.947 256.836 157.474L267.128 163.306C259.378 176.981 246.628 196.577 225.469 208.813C207.843 219.006 186.963 224.388 165.061 224.389L165.062 224.39Z" fill="#E8E8E8"/>
</g>
<defs>
<clipPath id="clip0_92_2">
<rect width="300" height="224.125" fill="white"/>
</clipPath>
</defs>
</svg>
