<svg width="413" height="85" viewBox="0 0 413 85" fill="none" xmlns="http://www.w3.org/2000/svg">
<g clip-path="url(#clip0_60_29)">
<path d="M54.4543 0.407423C54.6139 0.407099 54.7736 0.40676 54.9333 0.406408C55.2676 0.405809 55.6019 0.405619 55.9362 0.405679C56.2739 0.405687 56.6116 0.404998 56.9492 0.403616C58.8659 0.395897 60.7636 0.40788 62.6708 0.62551C62.7421 0.633363 62.8133 0.641215 62.8867 0.649305C63.2978 0.695285 63.7074 0.749219 64.1169 0.807839C64.298 0.83332 64.298 0.83332 64.4827 0.859316C65.7316 1.04032 66.968 1.27561 68.2036 1.53087C68.3273 1.55572 68.3273 1.55572 68.4535 1.58107C70.4064 1.97441 72.2995 2.58591 74.189 3.20955C74.2968 3.24486 74.2968 3.24486 74.4067 3.28087C75.1495 3.52489 75.8605 3.77869 76.553 4.14634C76.7572 4.22704 76.9625 4.30479 77.1691 4.37897C77.831 4.6288 78.4537 4.9337 79.0819 5.2579C79.2758 5.35692 79.4708 5.45335 79.6663 5.54918C81.4401 6.41965 83.3863 7.39028 84.9024 8.67313C84.9024 8.73952 84.9024 8.80592 84.9024 8.87432C84.9729 8.89922 85.0435 8.92412 85.1162 8.94977C85.4451 9.09279 85.7214 9.26387 86.0089 9.47789C86.0089 9.54429 86.0089 9.61068 86.0089 9.67908C86.0816 9.70398 86.1542 9.72888 86.229 9.75453C86.5397 9.89262 86.7644 10.0537 87.0149 10.2827C87.0149 10.349 87.0149 10.4154 87.0149 10.4838C87.0744 10.511 87.1339 10.5382 87.1952 10.5662C87.4158 10.6843 87.5698 10.8064 87.7513 10.9774C87.813 11.0352 87.8747 11.093 87.9383 11.1525C88.0029 11.214 88.0675 11.2755 88.134 11.3389C88.2337 11.4331 88.2337 11.4331 88.3354 11.5292C88.533 11.7166 88.7298 11.9048 88.9262 12.0934C88.9818 12.1466 89.0374 12.1998 89.0946 12.2547C89.7122 12.8488 89.7122 12.8488 89.9322 13.0993C89.9322 13.1657 89.9322 13.2321 89.9322 13.3005C89.9986 13.3005 90.0649 13.3005 90.1333 13.3005C90.6363 13.8514 90.6363 13.8514 90.6363 14.1053C90.7027 14.1053 90.7691 14.1053 90.8375 14.1053C91.0095 14.3072 91.1697 14.5092 91.3279 14.7214C91.3716 14.7787 91.4153 14.8361 91.4603 14.8951C92.2459 15.933 92.2459 15.933 92.2459 16.2178C92.3122 16.2178 92.3786 16.2178 92.447 16.2178C92.5807 16.39 92.5807 16.39 92.7308 16.6288C92.7846 16.7141 92.8384 16.7995 92.8938 16.8874C92.9497 16.9776 93.0056 17.0679 93.0632 17.1609C93.1199 17.2503 93.1765 17.3398 93.2349 17.432C93.6542 18.102 93.6542 18.102 93.6542 18.3303C93.7639 18.3496 93.7639 18.3496 93.8759 18.3694C94.3366 18.4701 94.7596 18.6601 95.1945 18.8395C95.3419 18.9001 95.3419 18.9001 95.4923 18.9618C96.3431 19.3161 97.1627 19.7158 97.9798 20.141C98.1808 20.242 98.3819 20.3426 98.5834 20.4428C98.7175 20.5098 98.8516 20.5769 98.9857 20.644C98.9857 20.7104 98.9857 20.7768 98.9857 20.8452C99.0372 20.8538 99.0887 20.8625 99.1417 20.8715C99.4905 20.9766 99.7955 21.1512 100.111 21.3293C100.181 21.3686 100.251 21.4079 100.323 21.4484C101.088 21.8889 101.804 22.3973 102.515 22.919C102.647 23.0142 102.78 23.1075 102.914 23.1991C103.083 23.3152 103.248 23.4377 103.412 23.5612C103.412 23.6276 103.412 23.694 103.412 23.7624C103.482 23.7838 103.552 23.8052 103.624 23.8273C103.995 24.0011 104.259 24.2544 104.55 24.5357C104.666 24.646 104.783 24.7561 104.9 24.8662C104.955 24.9191 105.011 24.9721 105.069 25.0266C105.256 25.2018 105.449 25.3693 105.644 25.5354C106.289 26.0942 106.93 26.6943 107.436 27.3838C107.436 27.4502 107.436 27.5166 107.436 27.585C107.502 27.585 107.569 27.585 107.637 27.585C110.32 30.61 112.098 34.6116 112.538 38.6162C112.561 38.8059 112.589 38.9951 112.618 39.1839C112.706 39.8617 112.691 40.5456 112.692 41.2283C112.692 41.307 112.692 41.3857 112.692 41.4669C112.692 42.6541 112.63 43.8024 112.406 44.9712C112.366 45.1815 112.332 45.3919 112.299 45.6034C111.802 48.5898 110.556 51.549 108.844 54.0416C108.8 54.1056 108.756 54.1696 108.711 54.2356C108.14 55.0662 107.558 55.8767 106.907 56.6469C106.718 56.8667 106.718 56.8667 106.53 57.16C106.464 57.16 106.398 57.16 106.329 57.16C106.329 57.2264 106.329 57.2928 106.329 57.3612C106.263 57.3612 106.196 57.3612 106.128 57.3612C106.103 57.4173 106.078 57.4733 106.053 57.531C105.904 57.8063 105.732 58.0329 105.524 58.2666C105.458 58.2666 105.392 58.2666 105.323 58.2666C105.323 58.333 105.323 58.3994 105.323 58.4678C105.257 58.4678 105.19 58.4678 105.122 58.4678C105.122 58.5342 105.122 58.6006 105.122 58.669C104.957 58.8391 104.957 58.8391 104.739 59.0273C104.667 59.0897 104.596 59.1521 104.523 59.2164C104.317 59.3731 104.317 59.3731 104.015 59.4737C104.015 59.5401 104.015 59.6065 104.015 59.6749C103.666 59.9995 103.284 60.2858 102.909 60.5803C102.806 60.6621 102.703 60.7439 102.597 60.8282C101.955 61.3342 101.297 61.8025 100.607 62.2415C99.9285 62.6793 99.5139 63.1763 99.1241 63.8748C98.5477 64.8818 97.919 65.8521 97.2756 66.8172C97.2092 66.8172 97.1428 66.8172 97.0744 66.8172C97.0454 66.9106 97.0163 67.0039 96.9864 67.1001C96.8732 67.4208 96.8732 67.4208 96.672 67.7225C96.6056 67.7225 96.5393 67.7225 96.4709 67.7225C96.446 67.7935 96.4211 67.8644 96.3954 67.9375C96.2535 68.2626 96.076 68.5236 95.8673 68.8102C95.7967 68.9084 95.7262 69.0066 95.6535 69.1077C95.5913 69.1817 95.529 69.2558 95.4649 69.3321C95.3985 69.3321 95.3321 69.3321 95.2637 69.3321C95.2409 69.4026 95.2181 69.4732 95.1945 69.5458C95.0285 69.9096 94.8321 70.1457 94.5595 70.4386C94.4931 70.4386 94.4268 70.4386 94.3584 70.4386C94.3314 70.4962 94.3044 70.5538 94.2766 70.6131C94.153 70.8489 94.0138 71.0547 93.8554 71.2685C93.7776 71.3751 93.7776 71.3751 93.6982 71.4839C93.6505 71.5373 93.6028 71.5907 93.5536 71.6458C93.4872 71.6458 93.4208 71.6458 93.3524 71.6458C93.3112 71.7359 93.3112 71.7359 93.2692 71.8279C93.1545 72.0419 93.0434 72.1815 92.873 72.3524C92.8173 72.4087 92.7615 72.4651 92.7041 72.5232C92.6142 72.6125 92.6142 72.6125 92.5225 72.7036C92.4299 72.7965 92.4299 72.7965 92.3353 72.8913C92.205 73.0218 92.0745 73.152 91.9437 73.2819C91.7429 73.4816 91.5432 73.6823 91.3436 73.8832C91.2169 74.0098 91.0901 74.1363 90.9633 74.2628C90.8733 74.3533 90.8733 74.3533 90.7816 74.4457C90.3577 74.8648 90.3577 74.8648 90.1333 74.8648C90.1333 74.9312 90.1333 74.9976 90.1333 75.066C89.9204 75.2617 89.9204 75.2617 89.6429 75.481C89.5519 75.5538 89.4609 75.6267 89.3671 75.7018C89.1274 75.8708 89.1274 75.8708 88.9262 75.8708C88.9262 75.9372 88.9262 76.0035 88.9262 76.072C88.7909 76.1964 88.7909 76.1964 88.6032 76.3337C88.5024 76.4076 88.5024 76.4076 88.3997 76.483C88.3286 76.5341 88.2575 76.5852 88.1843 76.6378C88.114 76.6897 88.0438 76.7415 87.9713 76.795C87.4437 77.1785 87.4437 77.1785 87.2161 77.1785C87.2161 77.2449 87.2161 77.3113 87.2161 77.3797C86.9718 77.5482 86.728 77.7045 86.4742 77.8575C86.4 77.903 86.3259 77.9484 86.2494 77.9952C86.0355 78.126 85.8211 78.2559 85.6066 78.3856C85.5161 78.4413 85.4255 78.4969 85.3323 78.5542C85.0899 78.702 84.8458 78.8462 84.6006 78.9892C84.4869 79.056 84.3732 79.1228 84.256 79.1916C81.6179 80.7196 78.7561 81.9045 75.8488 82.8118C75.739 82.8465 75.6292 82.8811 75.516 82.9168C72.5933 83.7932 69.5649 84.32 66.5306 84.5914C66.3464 84.6083 66.1623 84.6261 65.9787 84.648C65.2328 84.7334 64.4922 84.7394 63.742 84.74C63.6027 84.7404 63.4633 84.7407 63.3239 84.7411C63.0322 84.7417 62.7405 84.7418 62.4488 84.7418C62.1551 84.7418 61.8613 84.7425 61.5675 84.7439C59.7799 84.7521 58.012 84.7187 56.2328 84.522C56.1606 84.5141 56.0885 84.5062 56.0142 84.4982C55.6019 84.4522 55.1911 84.3982 54.7804 84.3396C54.6599 84.3227 54.5394 84.3058 54.4152 84.2884C52.994 84.0823 51.5783 83.8219 50.1888 83.4571C49.6504 83.3208 49.128 83.2487 48.5749 83.2079C48.481 83.2001 48.387 83.1924 48.2902 83.1843C47.987 83.1595 47.6837 83.1363 47.3804 83.1136C47.2789 83.106 47.1774 83.0984 47.0728 83.0905C46.8636 83.0749 46.6544 83.0592 46.4452 83.0436C43.1942 82.7991 39.9874 82.4259 36.7864 81.8059C36.6552 81.7806 36.6552 81.7806 36.5213 81.7548C35.4326 81.5441 34.3662 81.2965 33.297 81.0011C33.0807 80.9455 32.8642 80.8904 32.6475 80.8361C30.6662 80.3358 28.677 79.8196 26.7898 79.0262C26.4393 78.8815 26.0854 78.7551 25.7272 78.6308C25.2176 78.4513 24.7283 78.2506 24.2395 78.0206C24.0168 77.9175 23.7941 77.8186 23.5684 77.7227C22.7532 77.3759 21.9691 76.997 21.1918 76.5722C20.8308 76.3755 20.4635 76.1953 20.0939 76.0154C19.5593 75.7508 19.0604 75.4562 18.5622 75.1289C18.3247 74.976 18.0846 74.8367 17.8368 74.7013C17.5359 74.5368 17.2379 74.3689 16.944 74.1921C16.8775 74.1523 16.811 74.1125 16.7424 74.0714C16.6948 74.0345 16.6473 73.9975 16.5982 73.9595C16.5982 73.8931 16.5982 73.8267 16.5982 73.7583C16.399 73.6919 16.1999 73.6255 15.9946 73.5571C15.9946 73.4907 15.9946 73.4243 15.9946 73.3559C15.89 73.3211 15.89 73.3211 15.7832 73.2855C15.4313 73.1276 15.1493 72.9098 14.8504 72.6706C14.7351 72.5797 14.6197 72.4889 14.5042 72.3983C14.4217 72.3334 14.4217 72.3334 14.3375 72.2672C14.1465 72.1199 13.9495 71.9827 13.7501 71.847C13.6609 71.7806 13.5717 71.7142 13.4798 71.6458C13.4798 71.5794 13.4798 71.513 13.4798 71.4446C13.4134 71.4446 13.347 71.4446 13.2786 71.4446C13.2786 71.3782 13.2786 71.3118 13.2786 71.2434C13.1894 71.202 13.1894 71.202 13.0984 71.1599C12.8843 71.0465 12.722 70.9272 12.5394 70.7691C12.4786 70.7166 12.4177 70.6642 12.3549 70.6101C12.2925 70.5556 12.2301 70.5011 12.1657 70.4449C12.0715 70.3637 12.0715 70.3637 11.9754 70.2809C11.3559 69.7446 11.3559 69.7446 11.1661 69.5333C11.1661 69.4669 11.1661 69.4005 11.1661 69.3321C11.0997 69.3321 11.0333 69.3321 10.9649 69.3321C10.9649 69.2657 10.9649 69.1993 10.9649 69.1309C10.8985 69.1309 10.8321 69.1309 10.7637 69.1309C10.7637 69.0645 10.7637 68.9981 10.7637 68.9297C10.6973 68.9297 10.6309 68.9297 10.5625 68.9297C10.5625 68.8633 10.5625 68.7969 10.5625 68.7285C10.4961 68.7285 10.4297 68.7285 10.3613 68.7285C10.2089 68.5772 10.2089 68.5772 10.0344 68.3701C9.97253 68.2971 9.91067 68.2241 9.84694 68.1489C9.78431 68.0746 9.72168 68.0003 9.65715 67.9237C9.59763 67.8567 9.53811 67.7897 9.47678 67.7206C9.42219 67.659 9.3676 67.5974 9.31135 67.5339C9.26169 67.4782 9.21202 67.4224 9.16085 67.365C9.05358 67.2196 9.05358 67.2196 9.05358 67.0184C8.98718 67.0184 8.92079 67.0184 8.85239 67.0184C8.68145 66.8117 8.68145 66.8117 8.48144 66.528C8.37504 66.3776 8.37504 66.3776 8.2665 66.2242C8.15816 66.0696 8.15816 66.0696 8.04762 65.9118C7.97851 65.816 7.90939 65.7202 7.83818 65.6214C7.77451 65.5326 7.71084 65.4438 7.64524 65.3523C7.58715 65.2712 7.52906 65.1902 7.4692 65.1067C7.34346 64.9059 7.34346 64.9059 7.34346 64.7047C7.27706 64.7047 7.21067 64.7047 7.14227 64.7047C5.29835 61.4756 5.29835 61.4756 4.83211 60.1638C4.72903 59.8675 4.72903 59.8675 4.58338 59.5559C4.3771 59.0807 4.25127 58.5838 4.11812 58.0843C4.09238 57.9903 4.06664 57.8964 4.04012 57.7996C3.32487 55.15 3.04979 52.1018 3.72203 49.4142C3.73343 49.2636 3.7396 49.1126 3.74089 48.9615C3.74232 48.8858 3.74374 48.8101 3.74521 48.732C3.71943 48.4838 3.64441 48.3214 3.52084 48.1065C3.45444 48.1065 3.38805 48.1065 3.31965 48.1065C3.15443 47.8728 3.00288 47.6401 2.85439 47.396C2.80969 47.3231 2.76498 47.2501 2.71892 47.175C1.95377 45.9143 1.35685 44.6837 0.905361 43.2779C0.867108 43.1626 0.828854 43.0473 0.789441 42.9286C0.539312 42.1518 0.342433 41.3657 0.201195 40.5618C0.175337 40.4259 0.175337 40.4259 0.148957 40.2871C-0.0302457 39.2266 -0.0340021 38.1735 -0.0317513 37.1003C-0.031435 36.7862 -0.0337951 36.4723 -0.0363439 36.1582C-0.0405006 34.8174 0.0738568 33.533 0.30179 32.2124C0.326611 32.0623 0.35137 31.9122 0.376057 31.7621C0.642287 30.1843 1.15592 28.6793 1.71012 27.1827C1.75538 27.0587 1.80064 26.9347 1.84726 26.807C2.79863 24.3093 4.28503 22.0131 5.89111 19.8895C5.95412 19.8053 5.95412 19.8053 6.0184 19.7193C6.11982 19.5876 6.22807 19.4613 6.3375 19.3362C6.4039 19.3362 6.47029 19.3362 6.5387 19.3362C6.57449 19.2524 6.57449 19.2524 6.611 19.1669C6.77014 18.8792 6.9689 18.6653 7.19256 18.4246C7.43453 18.1634 7.64867 17.9228 7.84643 17.6261C7.91283 17.6261 7.97922 17.6261 8.04762 17.6261C8.04762 17.5597 8.04762 17.4933 8.04762 17.4249C8.11402 17.4249 8.18041 17.4249 8.24881 17.4249C8.24881 17.3585 8.24881 17.2921 8.24881 17.2237C8.31521 17.2237 8.3816 17.2237 8.45001 17.2237C8.45001 17.1573 8.45001 17.0909 8.45001 17.0225C8.5164 17.0225 8.58279 17.0225 8.6512 17.0225C8.6512 16.9561 8.6512 16.8898 8.6512 16.8213C8.71759 16.8213 8.78398 16.8213 8.85239 16.8213C8.85239 16.755 8.85239 16.6886 8.85239 16.6202C9.00367 16.4677 9.00367 16.4677 9.21076 16.2932C9.28376 16.2314 9.35677 16.1695 9.43199 16.1058C9.54344 16.0118 9.54344 16.0118 9.65715 15.916C9.72419 15.8565 9.79123 15.7969 9.8603 15.7356C9.9219 15.681 9.98349 15.6264 10.047 15.5702C10.1027 15.5205 10.1585 15.4709 10.2159 15.4197C10.3613 15.3124 10.3613 15.3124 10.5625 15.3124C10.5625 15.246 10.5625 15.1796 10.5625 15.1112C10.6924 14.9875 10.6924 14.9875 10.8765 14.848C10.9791 14.7697 10.9791 14.7697 11.0838 14.6898C11.1586 14.6339 11.2335 14.5779 11.3107 14.5202C11.3873 14.4624 11.4638 14.4045 11.5427 14.345C12.3432 13.7438 13.1595 13.1658 13.9827 12.5963C14.0717 12.5342 14.1607 12.4721 14.2523 12.4081C14.7148 12.0913 15.1933 11.8217 15.6881 11.5586C15.9653 11.4054 16.2341 11.2427 16.5028 11.0753C17.9666 10.1684 19.5472 9.48425 21.1436 8.84736C21.4031 8.74272 21.6599 8.63218 21.9172 8.52224C24.2743 7.54434 26.7124 6.81879 29.1925 6.22645C29.5987 6.12817 30.0035 6.02459 30.4083 5.92096C30.6643 5.86053 30.9184 5.8147 31.1782 5.77473C31.708 5.67282 32.1583 5.44869 32.642 5.21556C33.2037 4.95502 33.7839 4.74906 34.365 4.53699C34.6283 4.43939 34.8903 4.33849 35.1522 4.23712C36.6272 3.66904 38.1179 3.18241 39.6345 2.73801C39.7451 2.70496 39.8558 2.67191 39.9697 2.63786C40.848 2.37971 41.7325 2.17362 42.6272 1.98355C42.8424 1.93741 43.0574 1.89115 43.2725 1.84488C43.4127 1.81472 43.553 1.78462 43.6932 1.75457C44.1299 1.66082 44.565 1.56189 44.9997 1.45933C47.1194 0.964692 49.2834 0.747844 51.4476 0.557653C51.6371 0.540368 51.8266 0.522453 52.0155 0.499289C52.827 0.404195 53.6385 0.407817 54.4543 0.407423ZM50.2976 5.25289C50.2976 5.28609 50.2976 5.31929 50.2976 5.35349C50.3937 5.36782 50.3937 5.36782 50.4918 5.38244C54.8041 6.0322 59.0992 7.07677 63.1396 8.73758C63.4694 8.87181 63.8018 8.99604 64.1358 9.11952C64.7808 9.36654 65.3902 9.66887 66.0036 9.98544C66.2002 10.0858 66.3979 10.1835 66.596 10.2807C67.3262 10.6393 68.0388 11.0126 68.738 11.4297C69.0622 11.6224 69.3914 11.8046 69.7219 11.9861C69.8868 12.0783 70.0484 12.1765 70.2092 12.2757C70.4058 12.4119 70.4058 12.4119 70.6179 12.3952C70.6179 12.4615 70.6179 12.5279 70.6179 12.5963C70.9166 12.6959 70.9166 12.6959 71.2214 12.7975C71.2214 12.8639 71.2214 12.9303 71.2214 12.9987C71.5455 13.2317 71.5455 13.2317 71.9256 13.3005C71.9256 13.3669 71.9256 13.4333 71.9256 13.5017C72.2911 13.7997 72.2911 13.7997 72.7304 13.9041C72.7304 13.9705 72.7304 14.0369 72.7304 14.1053C72.9029 14.265 72.9029 14.265 73.1202 14.4196C73.1925 14.4738 73.2649 14.528 73.3394 14.5839C73.5247 14.7269 73.5247 14.7269 73.7363 14.7088C73.7363 14.7752 73.7363 14.8416 73.7363 14.91C73.9023 14.9764 74.0683 15.0428 74.2393 15.1112C74.2393 15.1776 74.2393 15.244 74.2393 15.3124C74.4117 15.4946 74.4117 15.4946 74.6291 15.6771C74.7376 15.7724 74.7376 15.7724 74.8484 15.8696C75.0301 16.0367 75.0301 16.0367 75.2453 16.0166C75.2453 16.083 75.2453 16.1494 75.2453 16.2178C75.3116 16.2178 75.378 16.2178 75.4464 16.2178C75.4464 16.2842 75.4464 16.3506 75.4464 16.419C75.5128 16.419 75.5792 16.419 75.6476 16.419C75.6476 16.4854 75.6476 16.5518 75.6476 16.6202C75.714 16.6202 75.7804 16.6202 75.8488 16.6202C75.8488 16.6865 75.8488 16.7529 75.8488 16.8213C75.9152 16.8213 75.9816 16.8213 76.05 16.8213C76.05 16.8877 76.05 16.9541 76.05 17.0225C76.1999 17.1662 76.1999 17.1662 76.3958 17.318C77.0096 17.8378 77.5159 18.4669 77.9613 19.135C78.0277 19.135 78.0941 19.135 78.1625 19.135C78.1625 19.2014 78.1625 19.2678 78.1625 19.3362C78.2289 19.3362 78.2953 19.3362 78.3637 19.3362C78.3876 19.3886 78.4114 19.441 78.436 19.495C78.6071 19.8183 78.8106 20.1167 79.0176 20.4176C79.0582 20.4782 79.0988 20.5387 79.1406 20.6011C79.2451 20.7533 79.3572 20.9004 79.4703 21.0463C79.5366 21.0463 79.603 21.0463 79.6714 21.0463C79.7068 21.149 79.7068 21.149 79.743 21.2538C79.9019 21.616 80.1146 21.9291 80.3379 22.2535C80.4293 22.3891 80.5206 22.5248 80.6118 22.6606C80.657 22.728 80.7023 22.7953 80.749 22.8647C81.3813 23.8087 81.8888 24.7664 82.3639 25.7959C82.5706 26.243 82.7917 26.6815 83.0162 27.1198C83.3027 27.6838 83.5501 28.2515 83.7656 28.8472C83.8823 29.1569 84.0085 29.4595 84.1381 29.7639C84.3875 30.3596 84.5959 30.9615 84.7892 31.5774C84.8232 31.685 84.8572 31.7926 84.8923 31.9034C85.9031 35.1327 86.7599 38.4649 86.8137 41.8696C86.8158 41.9885 86.8178 42.1074 86.8199 42.23C86.8626 44.9813 86.626 47.6159 86.1095 50.3196C86.2814 50.1563 86.449 49.9883 86.6125 49.8166C86.6125 49.7502 86.6125 49.6838 86.6125 49.6154C86.6789 49.6154 86.7453 49.6154 86.8137 49.6154C87.1117 49.2499 87.1117 49.2499 87.2161 48.8106C87.2825 48.8106 87.3489 48.8106 87.4173 48.8106C87.5873 48.5599 87.7461 48.3095 87.9014 48.0499C88.1513 47.6367 88.399 47.2277 88.6857 46.8388C88.9222 46.5137 89.0988 46.1751 89.272 45.8116C89.473 45.3955 89.6822 44.9938 89.9322 44.6045C90.3264 43.9664 90.5827 43.2686 90.8576 42.5734C90.9652 42.3051 91.0808 42.0404 91.1959 41.7753C92.3198 39.0705 92.993 36.1473 93.0506 33.2184C93.0535 33.1192 93.0563 33.02 93.0593 32.9178C93.1002 30.2196 92.5951 27.6776 91.7492 25.1267C91.7082 25.0029 91.6673 24.8791 91.6252 24.7515C91.2155 23.5413 90.735 22.3745 90.1082 21.2601C90.038 21.1338 90.038 21.1338 89.9664 21.0049C89.4539 20.0916 88.9035 19.2016 88.3226 18.3303C88.2562 18.3303 88.1898 18.3303 88.1214 18.3303C88.098 18.2583 88.0745 18.1863 88.0503 18.1122C87.8964 17.775 87.703 17.562 87.4487 17.2929C87.1572 16.9815 86.8681 16.6702 86.5937 16.3435C86.2304 15.9255 85.84 15.5349 85.4494 15.1427C85.3532 15.0457 85.3532 15.0457 85.255 14.9469C84.6544 14.2587 84.6544 14.2587 83.8964 13.9041C83.8964 13.8377 83.8964 13.7713 83.8964 13.7029C83.7157 13.5447 83.5351 13.4001 83.3432 13.2565C83.2847 13.2122 83.2261 13.1679 83.1659 13.1223C82.4532 12.588 81.7192 12.0857 80.9792 11.5904C80.908 11.5425 80.8369 11.4945 80.7636 11.4451C79.8235 10.8141 78.8848 10.2653 77.8607 9.77968C77.617 9.65931 77.3743 9.53712 77.1314 9.41502C77.0144 9.3568 76.8975 9.29857 76.777 9.23859C76.5828 9.14102 76.3892 9.04216 76.197 8.94073C75.4381 8.54351 74.6419 8.25638 73.8369 7.96896C73.7332 7.93142 73.6294 7.89388 73.5226 7.85521C71.863 7.25665 70.2045 6.74573 68.4892 6.32904C68.2445 6.2689 68.0009 6.20601 67.7576 6.14057C66.1271 5.70833 64.4461 5.44552 62.7714 5.25289C62.6984 5.24435 62.6253 5.23581 62.55 5.22701C58.5111 4.76276 54.335 4.79742 50.2976 5.25289ZM36.0823 9.66022C36.007 9.66898 35.9318 9.67774 35.8543 9.68677C34.5567 9.83844 33.2716 10.0312 31.9893 10.2827C31.907 10.2982 31.8248 10.3137 31.74 10.3297C30.6585 10.5344 29.6133 10.8101 28.5624 11.1365C28.0811 11.2858 27.5966 11.4205 27.1104 11.5527C26.1645 11.8119 25.2435 12.1013 24.3441 12.4958C24.1452 12.5717 23.946 12.6471 23.7468 12.7221C22.5846 13.1684 21.4608 13.6654 20.3667 14.2602C20.3024 14.2952 20.238 14.3302 20.1717 14.3662C20.1021 14.404 20.0325 14.4419 19.9608 14.4809C19.7787 14.5759 19.5944 14.6666 19.4091 14.7551C18.5078 15.1874 17.6831 15.696 16.8556 16.2558C16.6427 16.3998 16.4289 16.5424 16.2149 16.6848C15.5413 17.1354 14.8774 17.5968 14.2315 18.0863C14.1755 18.1282 14.1195 18.1701 14.0618 18.2134C13.9308 18.3144 13.8052 18.4223 13.681 18.5315C13.681 18.5979 13.681 18.6643 13.681 18.7327C13.6245 18.757 13.5681 18.7814 13.51 18.8065C13.2322 18.9593 13.0271 19.146 12.7945 19.3614C12.4876 19.6437 12.1793 19.9197 11.8577 20.185C11.7622 20.2701 11.6668 20.3551 11.5685 20.4428C11.5685 20.5092 11.5685 20.5756 11.5685 20.644C11.5021 20.644 11.4357 20.644 11.3673 20.644C11.3673 20.7104 11.3673 20.7768 11.3673 20.8452C11.3009 20.8452 11.2345 20.8452 11.1661 20.8452C10.9908 21.0107 10.9908 21.0107 10.814 21.2224C10.7528 21.2924 10.6916 21.3624 10.6285 21.4346C10.474 21.6343 10.3641 21.8228 10.2607 22.0523C10.1943 22.0523 10.1279 22.0523 10.0595 22.0523C9.90818 22.2334 9.76487 22.4212 9.62571 22.6119C9.58539 22.6669 9.54507 22.7219 9.50353 22.7786C9.38658 22.9385 9.27036 23.099 9.15417 23.2594C9.09763 23.3353 9.0411 23.4112 8.98285 23.4893C8.73298 23.7947 8.73298 23.7947 8.6512 24.1648C8.5848 24.1648 8.51841 24.1648 8.45001 24.1648C8.41681 24.2976 8.38361 24.4304 8.34941 24.5672C8.28302 24.5672 8.21662 24.5672 8.14822 24.5672C8.01329 24.7952 7.87931 25.0236 7.74584 25.2525C7.70746 25.3171 7.66907 25.3818 7.62953 25.4484C7.40061 25.8368 7.40061 25.8368 7.34346 26.2773C7.27706 26.2773 7.21067 26.2773 7.14227 26.2773C7.09727 26.3807 7.05227 26.484 7.00591 26.5905C6.9445 26.7313 6.88307 26.8721 6.82162 27.0129C6.78948 27.0866 6.75733 27.1603 6.72422 27.2362C6.54507 27.6459 6.36237 28.0534 6.17404 28.459C6.09384 28.6368 6.0142 28.815 5.93512 28.9934C5.87502 29.127 5.87502 29.127 5.8137 29.2633C5.18055 30.7769 4.79913 32.4933 4.62739 34.1237C4.61085 34.2768 4.61085 34.2768 4.59398 34.433C4.35524 37.1229 4.32212 40.4213 5.63334 42.8755C5.69973 42.8755 5.76612 42.8755 5.83453 42.8755C5.85815 42.8231 5.88178 42.7707 5.90612 42.7167C6.83422 40.6746 7.93993 38.7581 9.25477 36.9404C9.33218 36.8333 9.4096 36.7262 9.48936 36.6158C9.96066 35.977 10.4597 35.3683 10.9779 34.7674C11.1867 34.5507 11.1867 34.5507 11.1661 34.3249C11.2325 34.3249 11.2989 34.3249 11.3673 34.3249C11.6716 34.0175 11.6716 34.0175 11.7696 33.6208C11.836 33.6208 11.9024 33.6208 11.9708 33.6208C11.9708 33.5544 11.9708 33.488 11.9708 33.4196C12.0372 33.4196 12.1036 33.4196 12.172 33.4196C12.3058 33.2872 12.3058 33.2872 12.4487 33.1052C12.8166 32.6716 13.2101 32.2686 13.6118 31.8666C13.6745 31.8035 13.7371 31.7404 13.8017 31.6754C13.861 31.6162 13.9204 31.557 13.9816 31.4961C14.035 31.4427 14.0885 31.3894 14.1436 31.3344C14.2845 31.2065 14.2845 31.2065 14.4857 31.1059C14.4857 31.0395 14.4857 30.9731 14.4857 30.9047C14.5521 30.9047 14.6185 30.9047 14.6869 30.9047C14.6869 30.8383 14.6869 30.7719 14.6869 30.7035C14.7772 30.6599 14.7772 30.6599 14.8692 30.6155C15.1087 30.4975 15.1087 30.4975 15.3911 30.3011C15.3911 30.2347 15.3911 30.1683 15.3911 30.0999C15.4782 30.0595 15.4782 30.0595 15.5671 30.0182C15.799 29.8958 15.9967 29.7676 16.1958 29.5969C16.1958 29.5306 16.1958 29.4642 16.1958 29.3958C16.2498 29.3709 16.3037 29.346 16.3593 29.3203C16.6568 29.1637 16.9299 28.9899 17.2018 28.7922C17.2018 28.7258 17.2018 28.6594 17.2018 28.591C17.307 28.5554 17.307 28.5554 17.4144 28.5191C17.7608 28.3649 18.0275 28.1628 18.3272 27.9308C18.8963 27.4922 18.8963 27.4922 19.1131 27.3838C19.1131 27.3175 19.1131 27.2511 19.1131 27.1827C19.223 27.1423 19.223 27.1423 19.3351 27.1012C19.6135 26.9826 19.8393 26.8459 20.0884 26.675C20.1771 26.6148 20.2658 26.5546 20.3572 26.4926C20.5398 26.3674 20.7224 26.2422 20.905 26.117C21.4498 25.7474 22.001 25.4137 22.5822 25.1044C22.7955 24.9907 23.0053 24.8734 23.2139 24.7515C24.1853 24.1868 25.1863 23.6999 26.2027 23.2217C26.5946 23.037 26.9813 22.8451 27.3655 22.645C28.8988 21.8494 30.5369 21.2315 32.1826 20.7117C32.4285 20.632 32.6727 20.548 32.9171 20.4636C34.5014 19.9194 36.1029 19.4588 37.7232 19.0344C37.8041 19.0132 37.885 18.992 37.9684 18.9701C41.4776 18.0635 45.1038 17.5656 48.7017 17.1846C48.7971 17.1745 48.8924 17.1644 48.9906 17.1539C49.1702 17.135 49.3499 17.1162 49.5295 17.0978C49.9254 17.0563 50.31 17.0036 50.7 16.9219C57.5596 16.1048 66.8005 17.0486 72.8184 20.7198C73.0342 20.8706 73.0342 20.8706 73.3339 20.8452C73.3339 20.7788 73.3339 20.7124 73.3339 20.644C73.2676 20.644 73.2012 20.644 73.1328 20.644C73.1077 20.5863 73.0827 20.5286 73.0569 20.4691C72.6452 19.7219 71.8351 19.1643 71.1802 18.6407C70.9516 18.4566 70.7307 18.267 70.511 18.0725C70.2537 17.8059 70.2537 17.8059 70.0143 17.8273C70.0143 17.7609 70.0143 17.6945 70.0143 17.6261C69.6488 17.3281 69.6488 17.3281 69.2095 17.2237C69.2095 17.1573 69.2095 17.0909 69.2095 17.0225C68.9983 16.8744 68.7893 16.7396 68.5682 16.6076C68.5076 16.5701 68.4469 16.5326 68.3843 16.494C68.0654 16.2854 68.0654 16.2854 67.7006 16.2178C67.7006 16.1514 67.7006 16.085 67.7006 16.0166C66.1657 15.1202 64.6112 14.2843 62.9777 13.5811C62.7016 13.4617 62.4329 13.3335 62.1651 13.1964C61.777 12.9997 61.3816 12.8403 60.9733 12.6907C60.9033 12.6647 60.8334 12.6387 60.7613 12.6119C60.3096 12.4461 59.8563 12.295 59.3921 12.1676C59.1939 12.1068 58.9993 12.0346 58.8062 11.9594C58.2017 11.7299 57.5777 11.5642 56.9558 11.3892C56.8343 11.3547 56.7129 11.3202 56.5878 11.2847C56.2349 11.1847 55.8818 11.0857 55.5286 10.9868C55.4335 10.9598 55.3385 10.9327 55.2406 10.9049C51.1377 9.75412 46.8643 9.35562 42.6177 9.36418C42.3006 9.36472 41.9835 9.36418 41.6665 9.36354C39.7935 9.36273 37.9424 9.43921 36.0823 9.66022ZM73.3339 20.8452C73.4003 20.9116 73.4667 20.9779 73.5351 21.0463C73.5351 20.98 73.5351 20.9136 73.5351 20.8452C73.4687 20.8452 73.4023 20.8452 73.3339 20.8452ZM50.197 21.5493C50.002 21.5801 49.807 21.6108 49.6119 21.6413C47.5695 21.9696 45.6051 22.4591 43.6583 23.1588C43.5675 23.1914 43.4766 23.224 43.3829 23.2576C42.2616 23.6636 41.1931 24.111 40.1375 24.6678C39.9302 24.7709 39.7228 24.8736 39.5151 24.9759C38.9434 25.2613 38.3825 25.5648 37.8238 25.8749C37.8238 25.9413 37.8238 26.0077 37.8238 26.0761C37.7687 26.0857 37.7136 26.0953 37.6568 26.1052C36.723 26.3889 35.8946 27.2323 35.1698 27.8644C34.9066 28.088 34.9066 28.088 34.7054 28.1886C34.7054 28.255 34.7054 28.3214 34.7054 28.3898C34.639 28.3898 34.5726 28.3898 34.5042 28.3898C34.5042 28.4562 34.5042 28.5226 34.5042 28.591C34.4466 28.6159 34.389 28.6408 34.3297 28.6664C33.5504 29.0964 32.8921 29.9821 32.3917 30.7035C32.3917 30.7699 32.3917 30.8363 32.3917 30.9047C32.3253 30.9047 32.2589 30.9047 32.1905 30.9047C32.0542 31.0699 32.0542 31.0699 31.9201 31.2882C31.8402 31.4125 31.8402 31.4125 31.7586 31.5393C31.6736 31.6733 31.6736 31.6733 31.5869 31.81C31.5292 31.8983 31.4715 31.9867 31.4121 32.0776C30.8052 33.0129 30.2878 33.9395 29.9047 34.9886C29.8201 35.214 29.7292 35.4372 29.632 35.6574C28.8856 37.3654 28.4683 39.304 28.3679 41.1654C28.3635 41.2456 28.359 41.3257 28.3545 41.4083C28.1955 44.8842 29.1919 48.0321 30.6816 51.1243C30.7479 51.1243 30.8143 51.1243 30.8827 51.1243C30.8931 51.1783 30.9035 51.2322 30.9142 51.2878C31.0015 51.5896 31.1399 51.8524 31.2851 52.1303C31.3515 52.1303 31.4179 52.1303 31.4863 52.1303C31.5123 52.2023 31.5382 52.2742 31.5649 52.3484C31.6949 52.6505 31.8513 52.8983 32.0396 53.1677C32.1314 53.3009 32.1314 53.3009 32.2251 53.4368C32.28 53.5036 32.335 53.5704 32.3917 53.6392C32.4581 53.6392 32.5245 53.6392 32.5929 53.6392C32.6302 53.7481 32.6302 53.7481 32.6683 53.8593C32.8064 54.17 32.9674 54.3947 33.1964 54.6452C33.2628 54.6452 33.3292 54.6452 33.3976 54.6452C33.3976 54.7116 33.3976 54.778 33.3976 54.8464C33.464 54.8464 33.5304 54.8464 33.5988 54.8464C33.6227 54.9029 33.6465 54.9594 33.6711 55.0177C33.8291 55.3009 34.0228 55.4982 34.2527 55.7266C34.3326 55.807 34.4124 55.8874 34.4947 55.9702C34.684 56.1761 34.684 56.1761 34.9066 56.1541C34.9066 56.2205 34.9066 56.2869 34.9066 56.3553C34.973 56.3553 35.0393 56.3553 35.1077 56.3553C35.1077 56.4217 35.1077 56.4881 35.1077 56.5565C35.1741 56.5565 35.2405 56.5565 35.3089 56.5565C35.3089 56.6229 35.3089 56.6893 35.3089 56.7577C35.4987 56.9123 35.6883 57.0561 35.8874 57.1978C36.2617 57.4681 36.5933 57.7389 36.9185 58.0654C37.1833 58.1916 37.1833 58.1916 37.4214 58.2666C37.4214 58.333 37.4214 58.3994 37.4214 58.4678C37.6696 58.6447 37.9179 58.8092 38.1759 58.9708C38.2538 59.0201 38.3316 59.0695 38.4118 59.1203C38.5736 59.2227 38.7355 59.3248 38.8977 59.4266C39.107 59.5589 39.3148 59.6931 39.5222 59.8286C42.47 61.7389 46.2884 63.8489 49.8261 64.208C49.9472 64.2204 49.9472 64.2204 50.0708 64.2331C51.9811 64.4144 53.9127 64.4338 55.8304 64.4029C55.9802 64.401 55.9802 64.401 56.1331 64.3991C60.6236 64.3304 65.0633 63.5783 69.3019 62.095C69.5093 62.0238 69.7177 61.9553 69.9269 61.8893C70.5824 61.6821 71.1631 61.4304 71.7559 61.0833C71.8309 61.0405 71.9059 60.9977 71.9832 60.9536C72.1993 60.8301 72.4145 60.7053 72.6298 60.5803C72.8643 60.4459 73.0991 60.3119 73.3339 60.1779C73.3339 60.1115 73.3339 60.0451 73.3339 59.9767C73.4522 59.93 73.4522 59.93 73.5729 59.8824C73.8292 59.7827 73.8292 59.7827 74.0381 59.6749C74.0381 59.6085 74.0381 59.5421 74.0381 59.4737C74.1533 59.4302 74.1533 59.4302 74.2707 59.3857C74.5562 59.2763 74.5562 59.2763 74.8429 59.0714C74.8429 59.005 74.8429 58.9386 74.8429 58.8702C74.8968 58.8453 74.9508 58.8204 75.0063 58.7947C75.3038 58.6381 75.5769 58.4643 75.8488 58.2666C75.8488 58.2002 75.8488 58.1338 75.8488 58.0654C75.9085 58.0384 75.9682 58.0113 76.0297 57.9835C76.2517 57.8639 76.3986 57.7428 76.5766 57.5656C76.6343 57.5081 76.692 57.4507 76.7514 57.3915C76.8104 57.3317 76.8694 57.2719 76.9302 57.2103C76.9908 57.1506 77.0513 57.0908 77.1137 57.0292C77.1709 56.9717 77.2281 56.9143 77.287 56.8551C77.3654 56.7764 77.3654 56.7764 77.4453 56.6962C77.5801 56.5605 77.5801 56.5605 77.5589 56.3553C77.6253 56.3553 77.6917 56.3553 77.7601 56.3553C77.7601 56.2889 77.7601 56.2225 77.7601 56.1541C77.8265 56.1541 77.8929 56.1541 77.9613 56.1541C78.2026 55.8888 78.2026 55.8888 78.2631 55.5505C78.3295 55.5505 78.3959 55.5505 78.4643 55.5505C78.6246 55.3547 78.6246 55.3547 78.7787 55.1104C78.8329 55.0287 78.8871 54.947 78.9429 54.8629C79.0846 54.6579 79.0846 54.6579 79.0679 54.444C79.1343 54.444 79.2007 54.444 79.2691 54.444C79.3355 54.2448 79.4018 54.0456 79.4703 53.8404C79.5366 53.8404 79.603 53.8404 79.6714 53.8404C79.7153 53.7516 79.7591 53.6627 79.8043 53.5712C79.8647 53.4493 79.9253 53.3273 79.9858 53.2054C80.0178 53.1408 80.0497 53.0762 80.0826 53.0096C80.2706 52.6325 80.47 52.2673 80.6837 51.9039C81.6739 50.1057 82.215 47.7085 82.2201 45.671C82.221 45.5665 82.2218 45.4621 82.2227 45.3544C82.2246 45.0185 82.2246 44.6826 82.224 44.3467C82.224 44.2319 82.2239 44.1171 82.2239 43.9988C82.22 42.2164 82.1483 40.501 81.7839 38.7511C81.7524 38.595 81.7524 38.595 81.7202 38.4358C81.2866 36.3552 80.5577 34.3441 79.4703 32.5142C79.4061 32.4057 79.4061 32.4057 79.3406 32.2949C79.2051 32.0674 79.0678 31.841 78.9296 31.6151C78.8864 31.5441 78.8432 31.4732 78.7987 31.4C78.6929 31.2312 78.5793 31.0674 78.4643 30.9047C78.3979 30.9047 78.3315 30.9047 78.2631 30.9047C78.2365 30.8472 78.2099 30.7898 78.1826 30.7306C77.447 29.3385 75.9208 27.971 74.6417 27.0821C74.5753 27.0821 74.5089 27.0821 74.4405 27.0821C74.4405 27.0157 74.4405 26.9493 74.4405 26.8809C74.2292 26.7327 74.0202 26.5979 73.7992 26.4659C73.7082 26.4097 73.7082 26.4097 73.6153 26.3524C73.2964 26.1438 73.2964 26.1438 72.9316 26.0761C72.9316 26.0097 72.9316 25.9433 72.9316 25.8749C68.6142 23.4601 64.064 22.1292 59.1742 21.4913C58.9769 21.4655 58.7798 21.4392 58.5828 21.4117C55.85 21.0356 52.9115 21.0835 50.197 21.5493ZM96.3703 24.5672C96.5099 25.2367 96.6506 25.9046 96.8229 26.5665C97.3307 28.5735 97.5167 30.5696 97.5082 32.6337C97.5079 32.7769 97.5079 32.7769 97.5076 32.9231C97.5025 34.319 97.4533 35.6696 97.175 37.041C97.155 37.1466 97.135 37.2523 97.1145 37.3611C96.5863 40.1409 95.782 42.8476 94.5507 45.3982C94.4579 45.5937 94.3692 45.7907 94.2813 45.9885C93.5348 47.6526 92.587 49.2286 91.5417 50.7219C91.494 50.7903 91.4464 50.8587 91.3973 50.9291C90.4327 52.3123 90.4327 52.3123 90.0972 52.7217C89.9116 52.9166 89.9116 52.9166 89.9322 53.1362C89.8658 53.1362 89.7994 53.1362 89.731 53.1362C89.6646 53.3022 89.5982 53.4682 89.5298 53.6392C89.4634 53.6392 89.397 53.6392 89.3286 53.6392C89.1298 53.851 89.1298 53.851 88.9262 54.117C88.8557 54.2057 88.7851 54.2944 88.7124 54.3858C88.5547 54.6027 88.432 54.8039 88.3226 55.0475C88.2562 55.0475 88.1898 55.0475 88.1214 55.0475C88.1214 55.1139 88.1214 55.1803 88.1214 55.2487C88.0551 55.2487 87.9887 55.2487 87.9203 55.2487C87.7865 55.3811 87.7865 55.3811 87.6436 55.5631C87.2757 55.9967 86.8821 56.3997 86.4805 56.8017C86.4178 56.8648 86.3552 56.9279 86.2906 56.9929C86.2312 57.0521 86.1719 57.1113 86.1107 57.1722C86.0573 57.2256 86.0038 57.2789 85.9487 57.3339C85.8078 57.4618 85.8078 57.4618 85.6066 57.5624C85.6066 57.6288 85.6066 57.6952 85.6066 57.7636C85.5518 57.7863 85.4971 57.809 85.4407 57.8324C85.1301 58.0063 84.8979 58.2309 84.6383 58.4741C84.1172 58.961 84.1172 58.961 83.8964 59.0714C83.8964 59.1377 83.8964 59.2041 83.8964 59.2725C83.8301 59.2933 83.7637 59.314 83.6953 59.3354C83.2856 59.5232 82.9219 59.7731 82.5887 60.0773C82.5887 60.1437 82.5887 60.2101 82.5887 60.2785C82.5358 60.3027 82.4829 60.327 82.4284 60.352C82.1147 60.5175 81.8256 60.7148 81.5325 60.9135C78.7356 62.7907 78.7356 62.7907 77.5589 63.397C77.4403 63.461 77.3217 63.5254 77.2033 63.5899C76.2501 64.108 75.2786 64.5678 74.2865 65.0073C74.2069 65.0425 74.1273 65.0778 74.0453 65.1141C73.8902 65.1828 73.735 65.2512 73.5796 65.3193C73.0875 65.5362 72.6062 65.7687 72.1268 66.0124C72.4285 66.1028 72.6697 66.1176 72.9826 66.0894C73.0722 66.0816 73.1618 66.0738 73.2541 66.0657C73.351 66.0564 73.4479 66.0471 73.5477 66.0376C73.7006 66.0235 73.7006 66.0235 73.8566 66.009C79.6427 65.4616 85.4815 64.345 90.8807 62.1352C91.1858 62.0107 91.4923 61.8912 91.7997 61.7727C92.62 61.4536 93.4012 61.0728 94.1832 60.6698C94.4119 60.5529 94.6429 60.4411 94.8739 60.3288C95.5223 60.0046 96.1464 59.637 96.7726 59.2725C96.8761 59.2135 96.9796 59.1545 97.0862 59.0938C97.1778 59.0407 97.2693 58.9877 97.3636 58.933C97.4443 58.8866 97.5249 58.8402 97.608 58.7924C97.6643 58.7516 97.7206 58.7109 97.7786 58.669C97.7786 58.6026 97.7786 58.5362 97.7786 58.4678C97.9778 58.4014 98.1769 58.335 98.3822 58.2666C98.3822 58.2002 98.3822 58.1338 98.3822 58.0654C98.4521 58.0415 98.5219 58.0177 98.594 57.9931C98.9376 57.841 99.2229 57.6376 99.5201 57.4115C99.5754 57.3709 99.6308 57.3304 99.6877 57.2885C99.8267 57.1839 99.9601 57.0719 100.092 56.9589C100.092 56.8925 100.092 56.8261 100.092 56.7577C100.148 56.7328 100.203 56.7079 100.26 56.6822C100.54 56.5321 100.774 56.3516 101.023 56.1541C101.113 56.0836 101.202 56.013 101.295 55.9403C101.363 55.8781 101.431 55.8158 101.501 55.7517C101.501 55.6853 101.501 55.6189 101.501 55.5505C101.567 55.5505 101.633 55.5505 101.702 55.5505C101.869 55.4164 101.869 55.4164 102.004 55.2487C102.004 55.1823 102.004 55.116 102.004 55.0475C102.07 55.0475 102.136 55.0475 102.205 55.0475C102.205 54.9812 102.205 54.9148 102.205 54.8464C102.271 54.8464 102.338 54.8464 102.406 54.8464C102.406 54.78 102.406 54.7136 102.406 54.6452C102.472 54.6452 102.539 54.6452 102.607 54.6452C102.767 54.4728 102.919 54.2934 103.066 54.1108C103.188 53.962 103.188 53.962 103.312 53.8101C103.526 53.5494 103.526 53.5494 103.613 53.2368C103.68 53.2368 103.746 53.2368 103.814 53.2368C103.979 53.0261 104.13 52.8166 104.28 52.5955C104.343 52.5045 104.343 52.5045 104.408 52.4116C104.643 52.0984 104.643 52.0984 104.72 51.7279C104.786 51.7279 104.852 51.7279 104.921 51.7279C105.387 51.1106 105.709 50.3711 106.047 49.6781C106.096 49.5792 106.096 49.5792 106.145 49.4783C106.187 49.3907 106.187 49.3907 106.231 49.3013C106.329 49.1124 106.329 49.1124 106.477 48.8773C108.264 45.7706 108.625 41.0162 107.763 37.5833C107.722 37.4358 107.68 37.2886 107.637 37.1416C107.616 37.0659 107.595 36.9903 107.573 36.9123C107.111 35.2826 106.377 33.7774 105.48 32.3445C105.428 32.2607 105.376 32.1769 105.322 32.0906C105.132 31.7913 105.132 31.7913 104.921 31.5083C104.854 31.5083 104.788 31.5083 104.72 31.5083C104.694 31.4517 104.668 31.3952 104.642 31.3369C103.838 29.8313 102.232 28.5106 100.897 27.4844C100.749 27.3662 100.749 27.3662 100.599 27.2455C98.6241 25.5386 98.6241 25.5386 96.3703 24.5672ZM28.6814 26.9492C28.607 26.9889 28.5326 27.0286 28.4559 27.0695C28.3684 27.1154 28.2808 27.1613 28.1906 27.2086C28.0831 27.2664 27.9756 27.3243 27.8649 27.3838C27.6427 27.5022 27.4203 27.6203 27.1979 27.7383C27.0446 27.8198 26.8914 27.9017 26.7384 27.9838C26.6673 28.0218 26.5962 28.0599 26.523 28.099C26.4275 28.1503 26.4275 28.1503 26.3301 28.2027C26.1548 28.2892 26.1548 28.2892 25.853 28.3898C25.853 28.4562 25.853 28.5226 25.853 28.591C25.7943 28.6035 25.7356 28.6161 25.6751 28.629C25.4503 28.6917 25.279 28.7734 25.0769 28.8888C25.0079 28.928 24.9388 28.9672 24.8677 29.0075C24.7965 29.0485 24.7254 29.0895 24.6521 29.1317C24.5814 29.1719 24.5107 29.2121 24.4378 29.2535C24.3006 29.3317 24.1636 29.4104 24.027 29.4896C23.8653 29.5829 23.7022 29.6739 23.5389 29.7643C23.4726 29.8087 23.4064 29.853 23.3381 29.8987C23.3381 29.9651 23.3381 30.0315 23.3381 30.0999C23.2572 30.1207 23.1763 30.1414 23.0929 30.1628C22.6284 30.3421 22.2152 30.589 21.8292 30.9047C21.8292 30.9711 21.8292 31.0375 21.8292 31.1059C21.7556 31.1331 21.6821 31.1603 21.6064 31.1884C20.9954 31.4472 20.4777 31.8385 20.0185 32.313C19.8329 32.4463 19.6449 32.5746 19.4542 32.7005C19.408 32.7386 19.3619 32.7767 19.3143 32.816C19.3143 32.8824 19.3143 32.9488 19.3143 33.0172C19.2567 33.0442 19.1991 33.0711 19.1398 33.0989C18.904 33.2225 18.6982 33.3617 18.4844 33.5202C18.3778 33.598 18.3778 33.598 18.269 33.6773C18.2156 33.7251 18.1622 33.7728 18.1071 33.8219C18.1071 33.8883 18.1071 33.9547 18.1071 34.0231C18.0408 34.0231 17.9744 34.0231 17.906 34.0231C17.906 34.0895 17.906 34.1559 17.906 34.2243C17.849 34.2486 17.792 34.273 17.7334 34.298C17.4581 34.4508 17.2691 34.6339 17.0462 34.8562C16.9612 34.9409 16.8763 35.0255 16.7888 35.1128C16.6571 35.2456 16.6571 35.2456 16.5228 35.3812C16.4334 35.4697 16.3441 35.5583 16.252 35.6496C16.1254 35.7766 16.1254 35.7766 15.9962 35.9062C15.88 36.0228 15.88 36.0228 15.7613 36.1417C15.5703 36.3191 15.5703 36.3191 15.5923 36.538C15.5259 36.538 15.4595 36.538 15.3911 36.538C15.2337 36.7083 15.0839 36.8856 14.9384 37.0661C14.8585 37.1642 14.7786 37.2622 14.6963 37.3632C14.5272 37.5891 14.3971 37.7901 14.2845 38.0469C14.2181 38.0469 14.1517 38.0469 14.0833 38.0469C13.9508 38.1861 13.9508 38.1861 13.8216 38.37C13.7724 38.4371 13.7231 38.5043 13.6723 38.5735C13.5957 38.6801 13.5957 38.6801 13.5175 38.7888C13.4656 38.8591 13.4138 38.9294 13.3603 39.0018C13.0774 39.3461 13.0774 39.3461 12.9768 39.7571C12.9104 39.7571 12.844 39.7571 12.7756 39.7571C12.6048 39.9865 12.4467 40.2153 12.2915 40.4549C12.2459 40.5244 12.2004 40.5938 12.1534 40.6653C11.8808 41.0842 11.6221 41.5067 11.3873 41.9482C11.2415 42.218 11.0842 42.48 10.9272 42.7435C9.79231 44.6921 9.01766 46.7341 8.45001 48.9112C8.40196 49.0894 8.40196 49.0894 8.35295 49.2712C7.30385 53.4258 8.34513 57.6471 10.4619 61.2845C10.7143 61.6914 10.9808 62.088 11.2537 62.4814C11.4679 62.7934 11.4679 62.7934 11.6349 63.0865C11.7016 63.1904 11.7016 63.1904 11.7696 63.2964C11.836 63.2964 11.9024 63.2964 11.9708 63.2964C11.9957 63.3503 12.0206 63.4042 12.0463 63.4598C12.2029 63.7573 12.3767 64.0304 12.5744 64.3023C12.6408 64.3023 12.7072 64.3023 12.7756 64.3023C12.8025 64.3615 12.8295 64.4207 12.8572 64.4817C12.9783 64.7075 13.1061 64.8669 13.2805 65.0536C13.3413 65.1189 13.4021 65.1841 13.4648 65.2513C13.5299 65.3199 13.595 65.3885 13.6621 65.4592C13.7288 65.5298 13.7956 65.6005 13.8643 65.6733C14.3044 66.1349 14.7545 66.5838 15.2213 67.0184C15.2761 67.0697 15.3308 67.121 15.3873 67.1738C15.649 67.4407 15.649 67.4407 15.9946 67.5214C15.9946 67.5878 15.9946 67.6541 15.9946 67.7225C16.061 67.7225 16.1274 67.7225 16.1958 67.7225C16.1958 67.7889 16.1958 67.8553 16.1958 67.9237C16.3684 68.0835 16.3684 68.0835 16.5856 68.2381C16.6942 68.3194 16.6942 68.3194 16.8049 68.4024C16.9902 68.5454 16.9902 68.5454 17.2018 68.5273C17.2018 68.5937 17.2018 68.6601 17.2018 68.7285C17.4125 68.8929 17.6221 69.0445 17.8431 69.1938C17.9038 69.236 17.9645 69.2783 18.027 69.3219C18.3402 69.5568 18.3402 69.5568 18.7107 69.6339C18.7107 69.7003 18.7107 69.7666 18.7107 69.835C18.9099 69.9014 19.1091 69.9678 19.3143 70.0362C19.3143 70.1026 19.3143 70.169 19.3143 70.2374C19.5493 70.397 19.5493 70.397 19.8487 70.5581C20.2663 70.7941 20.6738 71.0366 21.0747 71.3C21.5358 71.5962 22.0072 71.8448 22.5003 72.0831C22.7421 72.2031 22.978 72.3261 23.2139 72.4564C24.1159 72.9527 25.0293 73.3713 25.9875 73.7488C26.4679 73.9382 26.9298 74.1416 27.389 74.3778C27.611 74.4857 27.834 74.5563 28.0724 74.6196C28.424 74.7138 28.747 74.8394 29.0804 74.9855C29.4253 75.1295 29.7797 75.2447 30.1346 75.3615C30.213 75.3874 30.2915 75.4133 30.3723 75.4399C31.581 75.9386 31.581 75.9386 32.7941 75.9714C32.745 75.9365 32.6959 75.9016 32.6454 75.8657C31.7658 75.239 30.8944 74.6148 30.0748 73.9103C29.8918 73.7378 29.8918 73.7378 29.6756 73.7583C29.6756 73.6919 29.6756 73.6255 29.6756 73.5571C29.5295 73.4286 29.5295 73.4286 29.3361 73.2993C28.5715 72.7441 27.8979 72.0896 27.237 71.4167C27.0234 71.2074 26.7918 71.0259 26.5572 70.841C26.524 70.7746 26.4908 70.7082 26.4566 70.6398C26.3902 70.6398 26.3238 70.6398 26.2554 70.6398C26.2554 70.5734 26.2554 70.507 26.2554 70.4386C26.189 70.4386 26.1226 70.4386 26.0542 70.4386C26.0542 70.3722 26.0542 70.3058 26.0542 70.2374C25.9878 70.2374 25.9214 70.2374 25.853 70.2374C25.853 70.171 25.853 70.1046 25.853 70.0362C25.7866 70.0362 25.7202 70.0362 25.6518 70.0362C25.6227 69.9761 25.5937 69.9159 25.5638 69.8539C25.4458 69.6144 25.4458 69.6144 25.2494 69.3321C25.183 69.3321 25.1166 69.3321 25.0482 69.3321C25.0253 69.278 25.0023 69.2239 24.9787 69.1682C24.8068 68.8568 24.5819 68.6 24.3503 68.3324C24.1007 68.0435 23.8651 67.7635 23.6709 67.4329C23.6275 67.3625 23.584 67.2921 23.5393 67.2196C23.4729 67.2196 23.4065 67.2196 23.3381 67.2196C23.3163 67.1536 23.2945 67.0876 23.2721 67.0196C23.0892 66.6096 22.8384 66.2614 22.5836 65.893C21.165 63.795 19.9985 61.4972 19.2724 59.066C19.218 58.8845 19.1604 58.704 19.1025 58.5236C17.581 53.592 18.0795 48.2105 19.5155 43.3282C19.5393 43.2464 19.5632 43.1646 19.5877 43.0804C19.7333 42.5987 19.9118 42.1484 20.1221 41.6915C20.2501 41.3972 20.3472 41.0966 20.4454 40.7914C20.8872 39.4568 21.4787 38.1829 22.131 36.9404C22.2032 36.8005 22.2753 36.6606 22.3475 36.5207C23.014 35.2365 23.7117 33.9545 24.5492 32.7724C24.6634 32.617 24.6634 32.617 24.6458 32.4136C24.7122 32.4136 24.7786 32.4136 24.847 32.4136C24.9622 32.2445 24.9622 32.2445 25.0797 32.0175C25.3839 31.4917 25.735 31.0146 26.1045 30.5337C26.1594 30.4621 26.2143 30.3905 26.2708 30.3167C26.5849 29.9107 26.9087 29.5186 27.2529 29.1377C27.3821 28.9968 27.3821 28.9968 27.3619 28.7922C27.4283 28.7922 27.4947 28.7922 27.5631 28.7922C27.7094 28.6274 27.8486 28.4565 27.9843 28.2829C28.3555 27.818 28.7399 27.3892 29.1726 26.9815C28.8889 26.8523 28.8889 26.8523 28.6814 26.9492ZM23.8411 44.6862C23.4383 45.9457 23.1528 47.2049 22.9357 48.5089C22.9128 48.6389 22.8898 48.769 22.8662 48.903C22.4 52.049 22.7544 55.2586 23.7405 58.2666C23.7635 58.3379 23.7866 58.4093 23.8103 58.4828C24.1949 59.6501 24.7552 60.715 25.35 61.7874C25.4113 61.8996 25.4727 62.0118 25.5359 62.1273C25.9533 62.8685 26.4392 63.5509 26.9403 64.2365C27.1768 64.5649 27.401 64.902 27.626 65.2383C27.6944 65.3227 27.6944 65.3227 27.7643 65.4089C27.8307 65.4089 27.8971 65.4089 27.9655 65.4089C27.9904 65.4644 28.0153 65.5199 28.0409 65.577C28.1911 65.8566 28.3716 66.091 28.5691 66.3394C28.6396 66.4291 28.7101 66.5188 28.7828 66.6113C28.8451 66.6792 28.9073 66.7472 28.9714 66.8172C29.0378 66.8172 29.1042 66.8172 29.1726 66.8172C29.1726 66.8836 29.1726 66.95 29.1726 67.0184C29.3068 67.186 29.3068 67.186 29.4744 67.3202C29.5408 67.3202 29.6072 67.3202 29.6756 67.3202C29.6756 67.3866 29.6756 67.453 29.6756 67.5214C29.742 67.5214 29.8084 67.5214 29.8768 67.5214C29.8768 67.5878 29.8768 67.6541 29.8768 67.7225C29.9432 67.7225 30.0096 67.7225 30.078 67.7225C30.078 67.7889 30.078 67.8553 30.078 67.9237C30.1444 67.9237 30.2108 67.9237 30.2792 67.9237C30.2792 67.9901 30.2792 68.0565 30.2792 68.1249C30.3456 68.1249 30.412 68.1249 30.4804 68.1249C30.4804 68.1913 30.4804 68.2577 30.4804 68.3261C30.5468 68.3261 30.6132 68.3261 30.6816 68.3261C30.6816 68.3925 30.6816 68.4589 30.6816 68.5273C30.7479 68.5273 30.8143 68.5273 30.8827 68.5273C30.8827 68.5937 30.8827 68.6601 30.8827 68.7285C30.9491 68.7285 31.0155 68.7285 31.0839 68.7285C31.0839 68.7949 31.0839 68.8613 31.0839 68.9297C31.2584 69.0913 31.4399 69.2453 31.6246 69.3949C31.725 69.4772 31.8254 69.5594 31.9288 69.6441C32.1636 69.8548 32.1636 69.8548 32.3917 69.835C32.3917 69.9014 32.3917 69.9678 32.3917 70.0362C32.5642 70.196 32.5642 70.196 32.7815 70.3506C32.89 70.4319 32.89 70.4319 33.0007 70.5149C33.186 70.6579 33.186 70.6579 33.3976 70.6398C33.3976 70.7062 33.3976 70.7726 33.3976 70.841C33.5912 70.9972 33.7844 71.1399 33.9886 71.2811C34.0513 71.3251 34.1141 71.369 34.1787 71.4143C34.3871 71.5596 34.5964 71.7034 34.806 71.847C34.8775 71.8961 34.9491 71.9453 35.0228 71.996C36.0413 72.6932 37.0801 73.3413 38.1498 73.9566C38.3716 74.0862 38.5877 74.2242 38.8046 74.3618C40.8856 75.6104 43.2742 76.5984 45.5697 77.3797C45.655 77.4088 45.7403 77.4379 45.8282 77.4678C51.5656 79.402 57.3198 80.2804 63.375 80.1964C63.4728 80.1951 63.5706 80.1938 63.6714 80.1925C67.8248 80.121 71.9009 79.2617 75.8362 77.9707C75.9806 77.9235 75.9806 77.9235 76.1278 77.8754C76.7071 77.6805 77.2607 77.4524 77.8138 77.192C78.0489 77.0839 78.2855 76.9877 78.5272 76.8956C79.8706 76.3642 81.1432 75.696 82.3875 74.9654C82.4957 74.9026 82.6038 74.8399 82.7152 74.7752C83.6152 74.2384 84.4567 73.6251 85.2992 73.0033C85.437 72.9031 85.5762 72.8048 85.7167 72.7084C85.8844 72.5935 86.0477 72.4723 86.2101 72.3499C86.2101 72.2835 86.2101 72.2171 86.2101 72.1487C86.2682 72.1218 86.3263 72.0948 86.3862 72.067C86.6181 71.9446 86.8158 71.8164 87.0149 71.6458C87.0149 71.5794 87.0149 71.513 87.0149 71.4446C87.0709 71.4197 87.1269 71.3948 87.1847 71.3691C87.4599 71.2203 87.6865 71.0488 87.9203 70.841C87.9203 70.7746 87.9203 70.7082 87.9203 70.6398C87.9866 70.6398 88.053 70.6398 88.1214 70.6398C88.1214 70.5734 88.1214 70.507 88.1214 70.4386C88.1878 70.4386 88.2542 70.4386 88.3226 70.4386C88.3226 70.3722 88.3226 70.3058 88.3226 70.2374C88.389 70.2374 88.4554 70.2374 88.5238 70.2374C88.5238 70.171 88.5238 70.1046 88.5238 70.0362C88.5902 70.0362 88.6566 70.0362 88.725 70.0362C88.725 69.9698 88.725 69.9035 88.725 69.835C88.7914 69.835 88.8578 69.835 88.9262 69.835C88.9262 69.7687 88.9262 69.7023 88.9262 69.6339C88.9926 69.6339 89.059 69.6339 89.1274 69.6339C89.282 69.4849 89.282 69.4849 89.4418 69.2881C89.7806 68.8878 90.1304 68.4994 90.485 68.1131C90.6573 67.9379 90.6573 67.9379 90.6363 67.7225C90.7027 67.7225 90.7691 67.7225 90.8375 67.7225C90.9974 67.5196 90.9974 67.5196 91.1519 67.2699C91.2061 67.1858 91.2603 67.1018 91.3161 67.0152C91.378 66.9172 91.378 66.9172 91.4411 66.8172C90.872 66.9835 90.3087 67.16 89.7489 67.355C88.3953 67.8238 87.0156 68.1867 85.6295 68.5439C85.3738 68.61 85.1187 68.6777 84.8639 68.747C81.8568 69.5433 78.7222 70.0081 75.6351 70.3569C75.5661 70.3648 75.4972 70.3727 75.4262 70.3809C72.92 70.6659 70.42 70.7745 67.8998 70.7666C67.5299 70.7655 67.1599 70.7662 66.79 70.7673C64.1766 70.7742 61.5861 70.6274 58.9865 70.3506C58.863 70.3376 58.863 70.3376 58.7369 70.3243C53.2385 69.7425 47.6509 68.8489 42.5976 66.5269C42.389 66.4323 42.1799 66.3416 41.9683 66.2541C39.6574 65.2902 37.4298 63.9762 35.3941 62.5218C35.0807 62.2734 35.0807 62.2734 34.7054 62.1898C34.7054 62.1234 34.7054 62.057 34.7054 61.9886C34.3399 61.6906 34.3399 61.6906 33.9006 61.5862C33.9006 61.5198 33.9006 61.4535 33.9006 61.385C33.7346 61.3187 33.5686 61.2523 33.3976 61.1839C33.3976 61.1175 33.3976 61.0511 33.3976 60.9827C33.2183 60.8245 33.2183 60.8245 32.989 60.662C32.6159 60.3805 32.2877 60.0859 31.9638 59.75C31.7789 59.5652 31.5852 59.3974 31.3857 59.2285C31.0258 58.9204 30.7238 58.5834 30.4246 58.2167C30.3766 58.1668 30.3286 58.1168 30.2792 58.0654C30.2128 58.0654 30.1464 58.0654 30.078 58.0654C30.0489 58.0052 30.0199 57.9451 29.99 57.8831C29.872 57.6436 29.872 57.6436 29.6756 57.3612C29.6092 57.3612 29.5428 57.3612 29.4744 57.3612C29.4494 57.3051 29.4244 57.2489 29.3986 57.1911C29.2519 56.9193 29.074 56.7001 28.8771 56.4622C28.6632 56.2034 28.4729 55.9605 28.3046 55.6696C28.2591 55.5971 28.2136 55.5246 28.1667 55.4499C28.1003 55.4499 28.0339 55.4499 27.9655 55.4499C27.8991 55.2507 27.8327 55.0516 27.7643 54.8464C27.6979 54.8464 27.6315 54.8464 27.5631 54.8464C27.5374 54.759 27.5118 54.6716 27.4853 54.5815C27.3581 54.2324 27.1999 53.9625 26.9973 53.6518C26.1321 52.2801 25.546 50.8538 25.0482 49.3136C25.0215 49.2333 24.9948 49.1529 24.9673 49.0701C24.4919 47.634 24.2033 46.1746 23.9417 44.6862C23.9085 44.6862 23.8753 44.6862 23.8411 44.6862Z" fill="#E8E8E8"/>
<path d="M297.46 24.7684C300.581 24.7684 303.701 24.7684 306.916 24.7684C307.16 25.4991 307.39 26.2071 307.576 26.95C307.773 27.7206 307.975 28.4896 308.182 29.2574C308.217 29.3862 308.217 29.3862 308.252 29.5175C308.3 29.695 308.348 29.8724 308.396 30.0498C308.746 31.3465 309.091 32.6434 309.412 33.9477C309.621 34.7961 309.843 35.6379 310.088 36.4768C310.342 37.3537 310.582 38.2344 310.82 39.1158C310.853 39.2346 310.853 39.2346 310.885 39.3559C311.208 40.5499 311.52 41.7464 311.826 42.9447C312.179 44.327 312.179 44.327 312.549 45.7048C312.569 45.7768 312.589 45.8489 312.609 45.9231C312.68 46.2362 312.68 46.2362 312.851 46.4969C313.123 45.766 313.375 45.0358 313.588 44.2858C313.816 43.4967 314.076 42.7214 314.348 41.9464C314.795 40.6704 315.218 39.3888 315.618 38.0972C315.991 36.8909 316.386 35.694 316.8 34.501C317.156 33.4728 317.5 32.4445 317.808 31.4007C318.262 29.8817 318.785 28.3834 319.289 26.8809C319.522 26.1837 319.754 25.4866 319.994 24.7684C322.384 24.7684 324.774 24.7684 327.236 24.7684C327.576 25.5605 327.576 25.5605 327.684 25.8969C327.709 25.9728 327.733 26.0488 327.759 26.1271C327.797 26.2477 327.797 26.2477 327.837 26.3708C327.865 26.4568 327.892 26.5428 327.921 26.6314C327.981 26.8157 328.04 27.0001 328.1 27.1845C328.257 27.6736 328.416 28.1623 328.574 28.6511C328.622 28.7982 328.622 28.7982 328.67 28.9483C328.951 29.8135 329.236 30.677 329.525 31.5397C329.547 31.606 329.569 31.6722 329.592 31.7405C329.745 32.1997 329.899 32.6587 330.053 33.1178C330.214 33.5977 330.374 34.0776 330.535 34.5577C330.597 34.7441 330.66 34.9305 330.722 35.1168C330.907 35.6699 331.088 36.2237 331.257 36.7816C331.479 37.5098 331.721 38.2311 331.964 38.9523C332.985 41.9857 332.985 41.9857 333.303 43.1109C333.461 43.6631 333.659 44.1956 333.865 44.7313C334.379 46.0687 334.379 46.0687 334.379 46.5975C334.445 46.5975 334.511 46.5975 334.58 46.5975C334.595 46.5155 334.609 46.4334 334.625 46.3488C334.935 44.7092 335.378 43.1039 335.869 41.51C336.076 40.8297 336.245 40.1436 336.399 39.4495C336.522 38.9071 336.67 38.3749 336.83 37.8422C337.118 36.8779 337.365 35.9046 337.611 34.9285C337.824 34.0799 338.05 33.2408 338.313 32.4058C338.445 31.9706 338.548 31.5304 338.648 31.087C338.815 30.3663 338.995 29.652 339.198 28.9404C339.341 28.4346 339.478 27.9273 339.612 27.4188C339.63 27.351 339.648 27.2831 339.666 27.2132C339.739 26.938 339.811 26.6627 339.883 26.3873C339.933 26.1936 339.984 26.0001 340.035 25.8065C340.079 25.6373 340.079 25.6373 340.124 25.4647C340.213 25.1708 340.213 25.1708 340.414 24.7684C343.502 24.7684 346.589 24.7684 349.77 24.7684C349.77 25.2997 349.736 25.5314 349.562 26.007C349.326 26.6787 349.128 27.3574 348.94 28.044C348.675 29.0053 348.397 29.9624 348.11 30.9173C348.081 31.0132 348.081 31.0132 348.052 31.1111C347.859 31.7516 347.664 32.3916 347.468 33.0309C347.17 33.9998 346.883 34.9699 346.614 35.947C346.255 37.2455 345.854 38.5298 345.451 39.8151C345.048 41.1026 344.659 42.3924 344.3 43.6929C343.941 44.9914 343.541 46.2757 343.138 47.561C342.698 48.9661 342.279 50.3752 341.886 51.7941C341.449 53.3611 340.963 54.9117 340.464 56.4598C340.246 57.1429 340.048 57.83 339.862 58.5225C339.719 59.0532 339.719 59.0532 339.61 59.2725C336.522 59.2725 333.435 59.2725 330.254 59.2725C329.889 58.1771 329.524 57.0816 329.148 55.9529C328.89 55.2168 328.89 55.2168 328.631 54.4813C328.357 53.6978 328.098 52.9088 327.837 52.1209C327.512 51.1406 327.18 50.1632 326.84 49.1879C326.388 47.8892 325.963 46.5823 325.546 45.272C325.3 44.5025 325.039 43.7454 324.743 42.9934C324.523 42.4181 324.335 41.8323 324.143 41.2471C324.064 41.0067 323.985 40.7664 323.906 40.5261C323.872 40.4217 323.837 40.3172 323.802 40.2097C323.723 39.9624 323.723 39.9624 323.615 39.7571C323.578 39.8705 323.542 39.984 323.504 40.1009C323.366 40.53 323.228 40.9589 323.089 41.3878C323.03 41.5719 322.971 41.7561 322.911 41.9403C322.604 42.8976 322.289 43.8481 321.928 44.7869C321.637 45.5537 321.389 46.3348 321.14 47.1161C320.997 47.5631 320.852 48.0097 320.708 48.4562C320.666 48.5853 320.666 48.5853 320.623 48.717C320.413 49.3641 320.195 50.0077 319.967 50.6486C319.656 51.5214 319.357 52.398 319.057 53.2746C319.028 53.357 319 53.4394 318.971 53.5243C318.674 54.3922 318.379 55.2606 318.09 56.1313C318.067 56.2001 318.044 56.2689 318.021 56.3398C317.915 56.6595 317.809 56.9793 317.705 57.2993C317.649 57.4692 317.649 57.4692 317.591 57.6426C317.56 57.7394 317.528 57.8363 317.495 57.936C317.335 58.3865 317.153 58.8287 316.976 59.2725C313.922 59.2725 310.868 59.2725 307.721 59.2725C307.269 58.1421 307.269 58.1421 307.15 57.6996C307.123 57.6012 307.096 57.5028 307.069 57.4014C307.027 57.2477 307.027 57.2477 306.985 57.0909C306.624 55.7732 306.232 54.4664 305.824 53.1625C305.442 51.9361 305.09 50.701 304.732 49.4674C304.19 47.5974 303.631 45.7328 303.047 43.8752C302.692 42.7426 302.354 41.6069 302.039 40.4624C301.827 39.6967 301.601 38.9365 301.367 38.1773C301.074 37.2233 300.793 36.2658 300.513 35.3081C300.222 34.315 299.925 33.324 299.62 32.3349C299.406 31.633 299.208 30.927 299.013 30.2194C298.792 29.4189 298.555 28.6288 298.286 27.843C298.088 27.2615 297.903 26.6766 297.724 26.0887C297.698 26.0031 297.671 25.9174 297.644 25.8292C297.62 25.7491 297.596 25.669 297.571 25.5865C297.55 25.5158 297.528 25.4452 297.506 25.3724C297.46 25.1708 297.46 25.1708 297.46 24.7684Z" fill="#E8E8E8"/>
<path d="M115.081 24.7684C118.334 24.7684 121.587 24.7684 124.939 24.7684C126.057 27.4509 126.057 27.4509 126.324 28.2499C126.472 28.6564 126.639 29.0531 126.806 29.4517C127.048 30.0287 127.284 30.6079 127.52 31.1872C127.577 31.3255 127.633 31.4637 127.69 31.6019C128.028 32.427 128.347 33.2545 128.642 34.096C128.79 34.5029 128.955 34.9005 129.124 35.2988C129.394 35.9383 129.653 36.5823 129.914 37.2255C129.98 37.3868 130.046 37.5481 130.111 37.7094C130.502 38.6683 130.883 39.6297 131.241 40.6011C131.477 41.2295 131.73 41.851 131.981 42.4731C132.048 42.6408 132.115 42.8084 132.182 42.9761C132.213 43.0531 132.244 43.1302 132.276 43.2095C132.362 43.4268 132.449 43.6443 132.535 43.8618C132.562 43.9294 132.589 43.9969 132.616 44.0666C132.669 44.2001 132.722 44.3337 132.775 44.4674C132.9 44.7823 133.03 45.0905 133.188 45.3904C133.219 45.31 133.249 45.2296 133.28 45.1468C133.323 45.0363 133.365 44.9258 133.408 44.812C133.449 44.7046 133.49 44.5972 133.532 44.4866C133.652 44.177 133.779 43.8704 133.907 43.564C134.254 42.7345 134.592 41.9011 134.929 41.0678C135.042 40.7901 135.155 40.5125 135.268 40.2349C135.653 39.2854 136.029 38.3341 136.381 37.372C136.531 36.9791 136.706 36.6018 136.884 36.2211C137.029 35.8925 137.154 35.5581 137.278 35.2208C137.673 34.1567 138.099 33.1058 138.524 32.0533C138.92 31.0701 139.31 30.0862 139.675 29.0908C139.881 28.5507 140.108 28.0183 140.33 27.4844C140.696 26.5881 141.061 25.6918 141.437 24.7684C144.69 24.7684 147.943 24.7684 151.295 24.7684C151.108 25.3314 150.92 25.88 150.696 26.4274C150.668 26.495 150.641 26.5625 150.613 26.6321C150.555 26.7736 150.497 26.9151 150.44 27.0566C150.353 27.2694 150.266 27.4824 150.18 27.6955C149.897 28.3922 149.607 29.0834 149.289 29.7652C149.179 30.0083 149.079 30.2538 148.982 30.5023C148.851 30.8344 148.712 31.159 148.561 31.4823C148.207 32.2569 147.889 33.0461 147.567 33.8345C147.444 34.1345 147.322 34.4345 147.199 34.7344C147.155 34.8412 147.155 34.8412 147.11 34.9502C146.931 35.3866 146.745 35.8192 146.55 36.2492C146.362 36.6734 146.199 37.108 146.03 37.54C145.905 37.8513 145.769 38.1557 145.629 38.4603C145.328 39.1158 145.055 39.7816 144.782 40.4487C144.414 41.3445 144.041 42.2381 143.656 43.127C143.378 43.7696 143.112 44.4128 142.872 45.0705C142.762 45.3477 142.643 45.6165 142.518 45.8875C142.201 46.5806 141.907 47.2835 141.613 47.987C141.555 48.125 141.497 48.2629 141.44 48.4009C141.099 49.2148 140.763 50.0304 140.431 50.8477C140.145 51.5513 139.849 52.2478 139.526 52.935C139.265 53.492 139.016 54.0484 138.8 54.6243C138.516 55.368 138.209 56.1008 137.897 56.8331C137.802 57.0552 137.708 57.2775 137.614 57.4998C137.553 57.6431 137.492 57.7865 137.431 57.9298C137.404 57.9952 137.376 58.0606 137.347 58.128C137.181 58.5183 137 58.8919 136.81 59.2725C134.386 59.2725 131.963 59.2725 129.466 59.2725C129.167 58.5422 128.869 57.8119 128.561 57.0595C128.376 56.6493 128.376 56.6493 128.188 56.2405C127.664 55.0854 127.196 53.9052 126.729 52.7263C126.525 52.2144 126.307 51.7129 126.073 51.2139C125.902 50.8245 125.751 50.4278 125.599 50.0304C125.35 49.3785 125.078 48.7455 124.779 48.1147C124.589 47.6988 124.429 47.2741 124.272 46.8451C124.159 46.5582 124.037 46.2804 123.909 46.0003C123.612 45.3548 123.337 44.7014 123.063 44.0464C122.978 43.8446 122.893 43.643 122.808 43.4414C122.503 42.7137 122.209 41.9836 121.932 41.2441C121.791 40.8889 121.618 40.555 121.442 40.2156C121.307 39.9355 121.197 39.6525 121.088 39.361C120.816 38.6455 120.517 37.944 120.211 37.2422C119.862 36.4393 119.525 35.6353 119.218 34.8155C119.072 34.4414 118.903 34.0798 118.734 33.7158C118.579 33.3695 118.439 33.018 118.3 32.6651C118.089 32.1313 117.865 31.6067 117.624 31.0858C117.269 30.3086 116.936 29.5224 116.634 28.723C116.483 28.3241 116.323 27.9342 116.144 27.5473C115.938 27.1035 115.748 26.6554 115.565 26.2019C115.516 26.08 115.467 25.9581 115.416 25.8325C115.286 25.484 115.183 25.1259 115.081 24.7684Z" fill="#E8E8E8"/>
<path d="M361.508 35.0924C361.751 35.092 361.993 35.0883 362.236 35.0845C364.287 35.0696 366.081 35.6758 367.776 36.8398C367.876 36.9062 367.975 36.9726 368.078 37.041C368.078 37.1074 368.078 37.1738 368.078 37.2422C368.134 37.2671 368.19 37.292 368.248 37.3176C368.521 37.4651 368.744 37.6501 368.983 37.8458C368.983 37.7853 368.982 37.7249 368.982 37.6627C368.98 37.3905 368.978 37.1183 368.977 36.8461C368.976 36.751 368.975 36.6559 368.975 36.5579C368.974 36.4674 368.974 36.377 368.974 36.2838C368.973 36.2 368.973 36.1163 368.972 36.03C368.983 35.8339 368.983 35.8339 369.084 35.7333C371.839 35.7333 374.595 35.7333 377.433 35.7333C377.433 43.5012 377.433 51.2692 377.433 59.2725C374.645 59.2725 371.856 59.2725 368.983 59.2725C368.95 58.5754 368.917 57.8783 368.883 57.16C368.816 57.16 368.75 57.16 368.682 57.16C368.682 57.2264 368.682 57.2928 368.682 57.3612C368.615 57.3612 368.549 57.3612 368.48 57.3612C368.48 57.4276 368.48 57.494 368.48 57.5624C368.414 57.5624 368.348 57.5624 368.279 57.5624C368.279 57.6288 368.279 57.6952 368.279 57.7636C368.213 57.7636 368.146 57.7636 368.078 57.7636C368.059 57.8207 368.039 57.8777 368.019 57.9365C367.818 58.2614 367.529 58.4233 367.21 58.6187C367.114 58.6786 367.114 58.6786 367.016 58.7398C364.744 60.1422 362 60.4255 359.404 59.8667C357.69 59.4555 356.208 58.8202 354.799 57.7636C354.671 57.6722 354.671 57.6722 354.54 57.5789C354.13 57.2848 354.13 57.2848 353.995 57.16C353.995 57.0937 353.995 57.0273 353.995 56.9589C353.928 56.9589 353.862 56.9589 353.793 56.9589C353.793 56.8925 353.793 56.8261 353.793 56.7577C353.727 56.7577 353.661 56.7577 353.592 56.7577C353.592 56.6913 353.592 56.6249 353.592 56.5565C353.526 56.5565 353.46 56.5565 353.391 56.5565C353.391 56.4901 353.391 56.4237 353.391 56.3553C353.325 56.3553 353.258 56.3553 353.19 56.3553C353.045 56.1807 352.907 55.9992 352.775 55.8146C352.702 55.7142 352.629 55.6139 352.554 55.5104C352.385 55.2487 352.385 55.2487 352.385 55.0475C352.319 55.0475 352.252 55.0475 352.184 55.0475C350.293 51.8496 349.458 48.1544 350.373 44.485C350.391 44.4111 350.409 44.3372 350.427 44.261C351.194 41.1273 353.024 38.3391 355.805 36.6386C356.791 36.0665 357.824 35.6308 358.924 35.3309C359.025 35.3029 359.025 35.3029 359.128 35.2743C359.913 35.0859 360.705 35.0922 361.508 35.0924ZM360.127 43.9373C359.783 44.3668 359.489 44.806 359.226 45.2898C359.182 45.3674 359.138 45.4449 359.093 45.5248C358.602 46.5848 358.613 48.2379 358.98 49.3388C359.089 49.5834 359.089 49.5834 359.226 49.8166C359.277 49.9098 359.328 50.0031 359.381 50.0991C359.747 50.7158 360.172 51.2767 360.735 51.7279C360.801 51.7279 360.867 51.7279 360.936 51.7279C360.936 51.7943 360.936 51.8607 360.936 51.9291C361.122 52.0263 361.309 52.1225 361.495 52.2183C361.599 52.272 361.703 52.3257 361.81 52.381C363.197 53.013 364.765 52.9487 366.173 52.4258C367.666 51.7572 368.58 50.496 369.185 49.0118C369.403 48.0392 369.38 46.9471 369.084 45.994C369.049 45.8674 369.013 45.7409 368.977 45.6105C368.524 44.4543 367.439 43.3124 366.329 42.7549C364.226 41.8669 361.709 42.2029 360.127 43.9373Z" fill="#E8E8E8"/>
<path d="M380.552 35.7332C381.802 35.7146 383.053 35.7003 384.303 35.6915C384.884 35.6873 385.464 35.6817 386.045 35.6725C386.605 35.6638 387.166 35.659 387.726 35.6569C387.94 35.6554 388.154 35.6525 388.367 35.6482C388.667 35.6423 388.966 35.6415 389.265 35.6419C389.398 35.6375 389.398 35.6375 389.534 35.6331C389.783 35.6365 389.974 35.6478 390.209 35.7332C390.438 35.9753 390.572 36.2376 390.712 36.538C390.784 36.6704 390.857 36.8025 390.931 36.9341C391.003 37.0701 391.075 37.2064 391.146 37.3428C391.185 37.4166 391.223 37.4903 391.264 37.5664C391.556 38.1244 391.839 38.6869 392.118 39.2515C392.401 39.8205 392.697 40.3815 392.997 40.9419C393.234 41.388 393.463 41.8372 393.686 42.2908C393.915 42.7545 394.16 43.2028 394.421 43.6488C394.793 44.2831 395.107 44.9393 395.416 45.6057C395.702 46.2193 396.009 46.8147 396.345 47.4023C396.412 47.4023 396.478 47.4023 396.547 47.4023C396.594 47.3059 396.642 47.2096 396.691 47.1103C397.052 46.381 397.421 45.656 397.804 44.9377C398.385 43.8471 398.937 42.7451 399.458 41.6244C399.763 40.9672 400.091 40.3256 400.434 39.6871C400.689 39.2113 400.934 38.7319 401.174 38.2481C401.596 37.403 402.04 36.5683 402.482 35.7332C405.635 35.7332 408.789 35.7332 412.038 35.7332C411.938 36.2362 411.938 36.2362 411.837 36.538C411.771 36.538 411.704 36.538 411.636 36.538C411.618 36.6485 411.618 36.6485 411.6 36.7613C411.535 37.0427 411.445 37.242 411.304 37.4929C411.256 37.5793 411.208 37.6657 411.158 37.7547C411.08 37.8931 411.08 37.8931 411.001 38.0344C410.499 38.9381 410.013 39.8488 409.542 40.7689C409.263 41.3093 408.968 41.8338 408.648 42.3512C408.472 42.6506 408.342 42.955 408.216 43.2779C408.149 43.2779 408.083 43.2779 408.014 43.2779C408.005 43.3292 407.996 43.3806 407.986 43.4335C407.885 43.7787 407.724 44.0899 407.562 44.4096C407.526 44.4802 407.491 44.5509 407.454 44.6237C407.164 45.1955 406.852 45.7537 406.534 46.3105C406.297 46.7271 406.075 47.1479 405.864 47.5783C405.529 48.261 405.163 48.9244 404.794 49.5892C404.49 50.1374 404.204 50.691 403.929 51.254C403.778 51.5492 403.613 51.8327 403.444 52.1177C403.189 52.5457 402.959 52.9786 402.739 53.4254C402.501 53.9099 402.25 54.3801 401.979 54.8463C401.717 55.2958 401.472 55.7499 401.243 56.217C400.867 56.9822 400.455 57.7265 400.042 58.4721C399.511 59.4293 398.996 60.3928 398.496 61.3662C397.952 62.4199 397.393 63.4639 396.822 64.5031C396.571 64.9602 396.325 65.4194 396.081 65.8804C396.046 65.948 396.01 66.0157 395.973 66.0854C395.775 66.4603 395.579 66.8359 395.383 67.2117C394.641 68.6324 394.641 68.6324 394.315 69.1623C393.95 69.7692 393.644 70.4091 393.327 71.0422C390.207 71.0422 387.087 71.0422 383.872 71.0422C384.003 70.6472 384.101 70.3584 384.296 70.0103C384.361 69.8926 384.361 69.8926 384.428 69.7725C384.474 69.6894 384.521 69.6063 384.569 69.5207C384.669 69.3407 384.77 69.1607 384.87 68.9808C384.973 68.7961 385.076 68.6114 385.179 68.4267C385.371 68.0833 385.561 67.7396 385.751 67.3956C385.82 67.2706 385.82 67.2706 385.891 67.1431C386.213 66.5567 386.516 65.9628 386.81 65.362C387.065 64.8455 387.351 64.3515 387.646 63.8571C387.826 63.5438 387.967 63.2305 388.097 62.894C388.163 62.894 388.229 62.894 388.298 62.894C388.308 62.8408 388.318 62.7876 388.329 62.7329C388.584 61.8474 389.146 60.9953 389.608 60.202C389.898 59.6993 390.155 59.184 390.409 58.6623C390.564 58.3514 390.732 58.0498 390.905 57.7483C390.956 57.6583 391.007 57.5683 391.06 57.4756C391.162 57.2973 391.265 57.1196 391.369 56.9427C391.416 56.8607 391.462 56.7788 391.51 56.6944C391.553 56.6217 391.595 56.549 391.639 56.4741C391.74 56.1941 391.701 56.0338 391.617 55.7517C391.498 55.5168 391.498 55.5168 391.347 55.2864C390.943 54.6353 390.581 53.965 390.225 53.2867C389.883 52.6359 389.53 51.9968 389.146 51.3695C388.85 50.8851 388.578 50.3963 388.329 49.8857C388.046 49.3053 387.734 48.7549 387.392 48.2071C387.045 47.6496 386.726 47.0868 386.437 46.4969C386.195 46.0043 385.936 45.5305 385.648 45.0635C385.394 44.6427 385.157 44.2128 384.917 43.7837C384.687 43.3728 384.452 42.9658 384.211 42.5611C383.958 42.1322 383.731 41.6945 383.513 41.2471C383.278 40.7678 383.023 40.3345 382.718 39.8981C382.489 39.5386 382.308 39.1565 382.122 38.7737C381.907 38.3346 381.669 37.9187 381.412 37.5027C381.222 37.1856 381.043 36.8629 380.866 36.538C380.806 36.428 380.746 36.3181 380.685 36.2048C380.552 35.9344 380.552 35.9344 380.552 35.7332Z" fill="#E8E8E8"/>
<path d="M167.893 35.2303C167.972 35.2476 168.05 35.2648 168.13 35.2826C169.858 35.6728 171.417 36.3118 172.923 37.2422C173.018 37.3009 173.114 37.3597 173.212 37.4202C173.668 37.7123 173.668 37.7123 173.829 37.8458C173.829 37.9122 173.829 37.9786 173.829 38.047C173.886 38.0722 173.942 38.0975 174.001 38.1236C175.965 39.1878 177.34 41.7366 177.986 43.7809C178.089 44.1481 178.176 44.5143 178.255 44.8874C178.277 44.9913 178.3 45.0952 178.323 45.2022C178.639 46.9662 178.586 48.8832 178.154 50.6214C178.138 50.6906 178.122 50.7598 178.105 50.8312C177.726 52.4188 176.967 53.9723 175.941 55.2487C175.875 55.2487 175.808 55.2487 175.74 55.2487C175.711 55.3089 175.682 55.3691 175.652 55.4311C175.539 55.6511 175.539 55.6511 175.338 55.9529C175.271 55.9529 175.205 55.9529 175.136 55.9529C175.136 56.0193 175.136 56.0857 175.136 56.1541C175.07 56.1541 175.004 56.1541 174.935 56.1541C174.935 56.2205 174.935 56.2869 174.935 56.3553C174.869 56.3553 174.802 56.3553 174.734 56.3553C174.734 56.4217 174.734 56.4881 174.734 56.5565C174.284 56.9589 174.284 56.9589 174.03 56.9589C174.03 57.0253 174.03 57.0917 174.03 57.1601C173.485 57.5624 173.485 57.5624 173.225 57.5624C173.225 57.6288 173.225 57.6952 173.225 57.7636C170.003 60.1013 165.332 60.6325 161.503 60.0392C161.33 60.0083 161.33 60.0083 161.154 59.9767C160.972 59.9474 160.972 59.9474 160.786 59.9174C157.671 59.3645 154.771 57.7623 152.804 55.2487C152.804 55.1824 152.804 55.116 152.804 55.0476C152.738 55.0476 152.671 55.0476 152.603 55.0476C151.605 53.701 150.886 52.0426 150.491 50.4202C150.472 50.3443 150.453 50.2684 150.434 50.1903C150.26 49.3749 150.252 48.564 150.252 47.7339C150.252 47.4928 150.248 47.252 150.244 47.0109C150.228 44.8131 150.92 42.8193 152.081 40.9642C152.125 40.8943 152.169 40.8244 152.214 40.7524C152.531 40.2545 152.857 39.7437 153.307 39.3547C153.374 39.3547 153.44 39.3547 153.508 39.3547C153.531 39.2982 153.554 39.2416 153.578 39.1834C153.747 38.8873 153.958 38.7008 154.213 38.4745C154.302 38.3941 154.391 38.3137 154.483 38.2309C154.716 38.047 154.716 38.047 154.917 38.047C154.917 37.9806 154.917 37.9142 154.917 37.8458C155.63 37.2931 156.427 36.8454 157.23 36.4374C157.312 36.3953 157.394 36.3531 157.478 36.3097C160.594 34.7976 164.527 34.4553 167.893 35.2303ZM161.154 43.2779C161.054 43.3443 160.954 43.4107 160.852 43.4791C160.852 43.5455 160.852 43.6119 160.852 43.6803C160.785 43.6803 160.719 43.6803 160.651 43.6803C159.648 44.8422 159.102 45.9296 159.104 47.4715C159.104 47.5694 159.104 47.6674 159.104 47.7683C159.119 48.6903 159.325 49.3982 159.745 50.219C159.812 50.219 159.878 50.219 159.946 50.219C159.956 50.2767 159.966 50.3344 159.976 50.3938C160.063 50.6719 160.193 50.8254 160.387 51.0426C160.448 51.1125 160.508 51.1824 160.571 51.2544C160.75 51.4496 160.75 51.4496 161.053 51.5267C161.053 51.5931 161.053 51.6595 161.053 51.7279C161.273 51.8588 161.493 51.9886 161.713 52.1177C161.774 52.1544 161.836 52.1911 161.899 52.2289C163.185 52.9776 164.69 52.9453 166.096 52.5771C167.535 52.1083 168.467 51.0707 169.141 49.7671C169.721 48.592 169.799 47.2524 169.428 45.994C169.256 45.5015 169.05 45.0425 168.799 44.5857C168.732 44.5857 168.666 44.5857 168.598 44.5857C168.572 44.5108 168.546 44.436 168.519 44.3589C168.163 43.5561 167.341 43.0594 166.586 42.6743C166.509 42.6326 166.432 42.5908 166.354 42.5478C164.669 41.7768 162.582 42.2165 161.154 43.2779Z" fill="#E8E8E8"/>
<path d="M250.382 35.7333C251.778 35.7239 253.175 35.7168 254.571 35.7124C255.219 35.7103 255.868 35.7075 256.516 35.7029C257.142 35.6985 257.767 35.6961 258.393 35.6951C258.632 35.6943 258.87 35.6929 259.109 35.6907C259.443 35.6878 259.777 35.6874 260.112 35.6876C260.26 35.6854 260.26 35.6854 260.412 35.6832C261.081 35.6873 261.081 35.6873 261.411 35.9247C261.548 36.1356 261.548 36.1356 261.548 36.3368C261.614 36.3368 261.68 36.3368 261.749 36.3368C261.848 36.5858 261.848 36.5858 261.95 36.8398C262.016 36.8398 262.083 36.8398 262.151 36.8398C262.347 37.0528 262.347 37.0528 262.566 37.3302C262.676 37.4668 262.676 37.4668 262.787 37.6061C262.956 37.8458 262.956 37.8458 262.956 38.047C263.022 38.047 263.089 38.047 263.157 38.047C263.321 38.2281 263.321 38.2281 263.516 38.4808C263.899 38.9741 264.295 39.4548 264.698 39.9331C264.867 40.1595 264.867 40.1595 264.867 40.3606C264.934 40.3606 265 40.3606 265.069 40.3606C265.069 40.427 265.069 40.4934 265.069 40.5618C265.135 40.5618 265.201 40.5618 265.27 40.5618C265.297 40.5037 265.324 40.4457 265.351 40.3858C265.474 40.1539 265.602 39.9562 265.773 39.7571C265.839 39.7571 265.905 39.7571 265.974 39.7571C266.008 39.6785 266.008 39.6785 266.043 39.5983C266.223 39.2665 266.449 38.974 266.678 38.6757C266.723 38.6151 266.769 38.5546 266.816 38.4922C266.932 38.3398 267.056 38.1929 267.181 38.047C267.247 38.047 267.314 38.047 267.382 38.047C267.409 37.9889 267.436 37.9308 267.464 37.8709C267.586 37.639 267.715 37.4413 267.885 37.2422C267.952 37.2422 268.018 37.2422 268.086 37.2422C268.113 37.1876 268.14 37.133 268.168 37.0767C268.207 36.9985 268.247 36.9204 268.288 36.8398C268.331 36.7482 268.374 36.6566 268.419 36.5623C268.686 36.1258 268.925 35.8038 269.428 35.6714C270.168 35.573 270.914 35.6066 271.658 35.6252C271.9 35.6273 272.142 35.6288 272.385 35.6299C273.02 35.6342 273.656 35.645 274.291 35.6573C274.941 35.6686 275.59 35.6737 276.24 35.6792C277.512 35.6911 278.785 35.7097 280.057 35.7333C279.983 36.0747 279.901 36.2238 279.642 36.4626C279.321 36.7704 279.027 37.0914 278.736 37.4281C278.195 38.0516 277.636 38.659 277.077 39.2667C276.309 40.0794 276.309 40.0794 275.631 40.9642C275.565 40.9642 275.498 40.9642 275.43 40.9642C275.43 41.0306 275.43 41.097 275.43 41.1654C275.363 41.1654 275.297 41.1654 275.229 41.1654C275.201 41.2252 275.174 41.2851 275.146 41.3467C275.031 41.5618 274.914 41.7102 274.747 41.8861C274.694 41.9429 274.641 41.9997 274.586 42.0582C274.53 42.1163 274.475 42.1744 274.418 42.2342C274.025 42.6234 274.025 42.6234 273.72 43.0767C273.653 43.0767 273.587 43.0767 273.519 43.0767C273.519 43.1431 273.519 43.2095 273.519 43.2779C273.452 43.2779 273.386 43.2779 273.317 43.2779C273.317 43.3443 273.317 43.4107 273.317 43.4791C273.251 43.4791 273.185 43.4791 273.116 43.4791C273.075 43.5688 273.075 43.5688 273.033 43.6604C272.918 43.8755 272.802 44.0239 272.635 44.1998C272.581 44.2566 272.528 44.3134 272.473 44.3719C272.418 44.43 272.362 44.4881 272.305 44.5479C271.912 44.9371 271.912 44.9371 271.607 45.3904C271.541 45.3904 271.474 45.3904 271.406 45.3904C271.379 45.4495 271.353 45.5087 271.325 45.5696C271.167 45.8631 270.955 46.0773 270.726 46.3178C270.563 46.5156 270.563 46.5156 270.601 46.8993C270.668 46.8993 270.734 46.8993 270.802 46.8993C270.802 46.9657 270.802 47.0321 270.802 47.1005C270.869 47.1005 270.935 47.1005 271.004 47.1005C271.004 47.1669 271.004 47.2333 271.004 47.3017C271.07 47.3017 271.136 47.3017 271.205 47.3017C271.347 47.4424 271.347 47.4424 271.513 47.6412C271.8 47.9787 272.09 48.3117 272.387 48.6409C272.461 48.7235 272.535 48.8061 272.612 48.8912C272.734 49.0249 272.86 49.1557 272.992 49.2802C273.116 49.4142 273.116 49.4142 273.116 49.6154C273.183 49.6154 273.249 49.6154 273.317 49.6154C273.317 49.6818 273.317 49.7482 273.317 49.8166C273.384 49.8166 273.45 49.8166 273.519 49.8166C273.689 49.982 273.689 49.982 273.877 50.2001C273.939 50.2713 274.002 50.3425 274.066 50.4159C274.223 50.6214 274.223 50.6214 274.323 50.9232C274.39 50.9232 274.456 50.9232 274.524 50.9232C274.684 51.085 274.684 51.085 274.864 51.3004C275.061 51.5337 275.255 51.7533 275.474 51.9668C275.631 52.1303 275.631 52.1303 275.631 52.3315C275.697 52.3315 275.764 52.3315 275.832 52.3315C275.832 52.3979 275.832 52.4643 275.832 52.5327C275.899 52.5327 275.965 52.5327 276.033 52.5327C276.436 52.9824 276.436 52.9824 276.436 53.2368C276.502 53.2368 276.569 53.2368 276.637 53.2368C276.637 53.3032 276.637 53.3696 276.637 53.438C276.703 53.438 276.77 53.438 276.838 53.438C276.838 53.5044 276.838 53.5708 276.838 53.6392C276.905 53.6392 276.971 53.6392 277.039 53.6392C277.199 53.8011 277.199 53.8011 277.379 54.0165C277.576 54.2497 277.77 54.4694 277.989 54.6829C278.146 54.8464 278.146 54.8464 278.146 55.0476C278.212 55.0476 278.279 55.0476 278.347 55.0476C278.499 55.1945 278.499 55.1945 278.661 55.3871C278.716 55.4501 278.77 55.5131 278.826 55.578C278.951 55.7517 278.951 55.7517 278.951 55.9529C279.017 55.9529 279.083 55.9529 279.152 55.9529C279.152 56.0193 279.152 56.0857 279.152 56.1541C279.218 56.1541 279.285 56.1541 279.353 56.1541C279.353 56.2205 279.353 56.2869 279.353 56.3553C279.419 56.3553 279.486 56.3553 279.554 56.3553C279.685 56.4854 279.685 56.4854 279.843 56.6759C280.08 56.9562 280.322 57.2301 280.573 57.4976C280.655 57.5852 280.655 57.5852 280.739 57.6746C280.85 57.792 280.961 57.9091 281.072 58.0258C281.466 58.4456 281.466 58.4456 281.466 58.669C281.532 58.669 281.598 58.669 281.667 58.669C281.667 58.7354 281.667 58.8018 281.667 58.8702C281.733 58.8702 281.8 58.8702 281.868 58.8702C281.868 58.9366 281.868 59.003 281.868 59.0714C281.934 59.0714 282.001 59.0714 282.069 59.0714C282.069 59.1378 282.069 59.2042 282.069 59.2726C280.629 59.2961 279.189 59.3138 277.748 59.3247C277.08 59.3299 276.411 59.337 275.742 59.3484C275.096 59.3594 274.451 59.3654 273.805 59.368C273.559 59.3699 273.313 59.3735 273.067 59.3789C271.035 59.422 271.035 59.422 270.556 59.0536C270.325 58.8011 270.162 58.5648 269.998 58.2666C269.905 58.1532 269.81 58.0417 269.711 57.9334C269.601 57.7996 269.601 57.7996 269.488 57.663C269.413 57.5717 269.337 57.4805 269.259 57.3864C269.092 57.1601 269.092 57.1601 269.092 56.9589C269.026 56.9589 268.96 56.9589 268.891 56.9589C268.891 56.8925 268.891 56.8261 268.891 56.7577C268.825 56.7577 268.758 56.7577 268.69 56.7577C268.564 56.6162 268.446 56.4681 268.332 56.3176C267.905 55.7702 267.447 55.2589 266.98 54.7458C266.376 54.0753 266.376 54.0753 266.376 53.8404C266.31 53.8404 266.243 53.8404 266.175 53.8404C265.983 53.631 265.983 53.631 265.766 53.3563C265.695 53.2664 265.623 53.1766 265.549 53.084C265.37 52.8345 265.37 52.8345 265.27 52.5327C264.893 52.6584 264.802 52.8122 264.559 53.1237C264.144 53.6447 263.708 54.1359 263.255 54.6236C263.054 54.8299 263.054 54.8299 262.956 55.0476C262.89 55.0476 262.823 55.0476 262.755 55.0476C262.733 55.1001 262.712 55.1526 262.69 55.2067C262.498 55.5498 262.246 55.8277 261.988 56.1227C261.907 56.2159 261.907 56.2159 261.825 56.311C261.45 56.7434 261.07 57.1716 260.685 57.5954C260.534 57.7592 260.534 57.7592 260.441 57.9648C260.375 57.9648 260.308 57.9648 260.24 57.9648C260.211 58.025 260.182 58.0852 260.152 58.1471C260.039 58.3672 260.039 58.3672 259.838 58.669C259.771 58.669 259.705 58.669 259.636 58.669C259.607 58.7312 259.578 58.7935 259.548 58.8576C259.435 59.0714 259.435 59.0714 259.234 59.2726C259.035 59.2973 259.035 59.2973 258.786 59.2968C258.645 59.2972 258.645 59.2972 258.5 59.2976C258.397 59.2969 258.293 59.2961 258.186 59.2954C258.077 59.2954 257.968 59.2955 257.856 59.2955C257.495 59.2953 257.133 59.2938 256.772 59.2922C256.522 59.2918 256.272 59.2915 256.022 59.2913C255.43 59.2907 254.838 59.2891 254.246 59.287C253.507 59.2846 252.767 59.2835 252.027 59.2824C250.707 59.2802 249.388 59.2768 248.068 59.2726C248.109 59.2248 248.15 59.177 248.193 59.1278C248.274 59.0333 248.274 59.0333 248.357 58.937C248.41 58.8747 248.464 58.8124 248.519 58.7482C248.642 58.6029 248.761 58.4541 248.879 58.3043C249.097 58.0375 249.324 57.7958 249.577 57.5624C249.643 57.5624 249.71 57.5624 249.778 57.5624C249.805 57.5028 249.832 57.4433 249.86 57.3819C249.978 57.162 250.099 57.0102 250.271 56.8304C250.327 56.7704 250.384 56.7104 250.442 56.6486C250.53 56.5563 250.53 56.5563 250.621 56.4622C250.737 56.3399 250.853 56.2174 250.969 56.0948C251.024 56.0367 251.079 55.9786 251.135 55.9188C251.27 55.7707 251.394 55.6137 251.517 55.4558C251.574 55.3875 251.631 55.3192 251.689 55.2487C251.756 55.2487 251.822 55.2487 251.891 55.2487C251.891 55.1824 251.891 55.116 251.891 55.0476C251.957 55.0476 252.023 55.0476 252.092 55.0476C252.133 54.9582 252.133 54.9582 252.174 54.867C252.292 54.6471 252.413 54.4954 252.584 54.3155C252.641 54.2555 252.698 54.1955 252.756 54.1338C252.844 54.0415 252.844 54.0415 252.934 53.9473C253.05 53.825 253.166 53.7025 253.282 53.5799C253.337 53.5218 253.392 53.4637 253.449 53.4039C253.583 53.2558 253.708 53.0988 253.831 52.941C253.888 52.8726 253.945 52.8043 254.003 52.7339C254.069 52.7339 254.136 52.7339 254.204 52.7339C254.204 52.6675 254.204 52.6011 254.204 52.5327C254.271 52.5327 254.337 52.5327 254.405 52.5327C254.432 52.4736 254.459 52.4145 254.486 52.3537C254.61 52.1232 254.743 51.9638 254.924 51.7751C254.985 51.7101 255.047 51.6451 255.11 51.5782C255.174 51.5114 255.238 51.4446 255.304 51.3758C255.431 51.2429 255.558 51.1098 255.684 50.9766C255.741 50.918 255.797 50.8595 255.855 50.7992C256.022 50.6199 256.022 50.6199 256.174 50.398C256.221 50.3389 256.268 50.2798 256.317 50.219C256.383 50.219 256.45 50.219 256.518 50.219C256.518 50.1526 256.518 50.0862 256.518 50.0178C256.584 50.0178 256.651 50.0178 256.719 50.0178C256.719 49.9514 256.719 49.885 256.719 49.8166C256.786 49.8166 256.852 49.8166 256.92 49.8166C256.941 49.7637 256.962 49.7108 256.984 49.6563C257.18 49.3113 257.446 49.0466 257.719 48.7604C257.827 48.6463 257.935 48.5321 258.042 48.4177C258.092 48.3643 258.143 48.3108 258.195 48.2558C258.342 48.0964 258.342 48.0964 258.505 47.8644C258.567 47.7851 258.567 47.7851 258.63 47.7041C258.697 47.7041 258.763 47.7041 258.832 47.7041C258.832 47.6377 258.832 47.5713 258.832 47.5029C258.898 47.5029 258.964 47.5029 259.033 47.5029C259.033 47.4365 259.033 47.3701 259.033 47.3017C259.099 47.3017 259.166 47.3017 259.234 47.3017C259.263 47.2436 259.292 47.1855 259.322 47.1257C259.427 46.9161 259.532 46.7065 259.636 46.497C259.549 46.4035 259.462 46.31 259.372 46.2136C259.254 46.088 259.137 45.9624 259.02 45.8368C258.963 45.7755 258.906 45.7143 258.847 45.6511C258.555 45.3382 258.266 45.023 257.984 44.7024C257.909 44.6179 257.909 44.6179 257.833 44.5318C257.725 44.3845 257.725 44.3845 257.725 44.1833C257.659 44.1833 257.592 44.1833 257.524 44.1833C257.121 43.7335 257.121 43.7335 257.121 43.4791C257.055 43.4791 256.989 43.4791 256.92 43.4791C256.747 43.3101 256.747 43.3101 256.556 43.0893C256.492 43.0169 256.429 42.9446 256.363 42.87C256.216 42.6743 256.216 42.6743 256.216 42.4731C256.15 42.4731 256.083 42.4731 256.015 42.4731C256.015 42.4068 256.015 42.3404 256.015 42.272C255.949 42.272 255.882 42.272 255.814 42.272C255.667 42.1096 255.528 41.9406 255.393 41.769C255.05 41.3389 254.698 40.9229 254.326 40.5174C254.204 40.3606 254.204 40.3606 254.204 40.1595C254.144 40.1328 254.084 40.1061 254.022 40.0787C253.794 39.954 253.67 39.8374 253.502 39.6412C253.449 39.5796 253.397 39.5181 253.342 39.4547C253.289 39.3906 253.235 39.3265 253.179 39.2604C253.124 39.1967 253.07 39.1329 253.013 39.0673C252.608 38.5901 252.608 38.5901 252.494 38.2481C252.428 38.2481 252.361 38.2481 252.293 38.2481C252.293 38.1818 252.293 38.1154 252.293 38.047C252.227 38.047 252.16 38.047 252.092 38.047C251.589 37.4961 251.589 37.4961 251.589 37.2422C251.522 37.2422 251.456 37.2422 251.388 37.2422C251.388 37.1758 251.388 37.1094 251.388 37.041C251.321 37.041 251.255 37.041 251.186 37.041C251.12 36.875 251.054 36.709 250.985 36.538C250.919 36.538 250.852 36.538 250.784 36.538C250.784 36.4716 250.784 36.4052 250.784 36.3368C250.718 36.3368 250.651 36.3368 250.583 36.3368C250.382 36.0351 250.382 36.0351 250.382 35.7333Z" fill="#E8E8E8"/>
<path d="M234.764 34.8971C234.834 34.8972 234.904 34.8974 234.976 34.8975C236.11 34.9019 237.202 34.9786 238.31 35.2303C238.437 35.2571 238.563 35.284 238.693 35.3116C240.853 35.8259 242.939 36.8893 244.446 38.5499C244.446 38.6163 244.446 38.6827 244.446 38.7511C244.513 38.7511 244.579 38.7511 244.648 38.7511C244.949 39.0993 244.949 39.0993 244.949 39.3547C245.016 39.3547 245.082 39.3547 245.151 39.3547C247.366 41.8946 247.666 45.861 247.666 49.0118C241.923 49.0118 236.18 49.0118 230.263 49.0118C230.471 50.8854 230.663 52.0276 231.954 53.3186C233.238 54.2002 234.896 54.3124 236.402 54.099C237.091 53.9177 237.725 53.536 238.31 53.1362C238.343 53.0698 238.377 53.0034 238.411 52.935C238.477 52.935 238.544 52.935 238.612 52.935C238.637 52.879 238.662 52.823 238.687 52.7653C238.844 52.4756 238.98 52.2635 239.216 52.0297C239.498 51.9815 239.718 51.9657 240 51.9726C240.078 51.9725 240.157 51.9724 240.238 51.9724C240.497 51.9727 240.756 51.9766 241.015 51.9806C241.195 51.9815 241.375 51.9822 241.555 51.9827C242.028 51.9846 242.501 51.9896 242.974 51.9951C243.457 52.0003 243.939 52.0026 244.422 52.0051C245.369 52.0105 246.316 52.0191 247.263 52.0297C247.042 53.7085 246.036 55.5437 244.849 56.7577C244.782 56.7577 244.716 56.7577 244.648 56.7577C244.648 56.8241 244.648 56.8904 244.648 56.9589C244.581 56.9589 244.515 56.9589 244.446 56.9589C244.446 57.0252 244.446 57.0916 244.446 57.16C244.38 57.16 244.314 57.16 244.245 57.16C244.245 57.2264 244.245 57.2928 244.245 57.3612C241.697 59.5505 238.533 60.2009 235.248 60.1905C235.126 60.1909 235.003 60.1913 234.876 60.1917C233.774 60.1905 232.678 60.1603 231.602 59.9075C231.526 59.89 231.45 59.8725 231.372 59.8544C229.604 59.4294 227.638 58.7782 226.239 57.5624C226.239 57.496 226.239 57.4296 226.239 57.3612C226.179 57.3322 226.118 57.3031 226.056 57.2732C225.836 57.16 225.836 57.16 225.535 56.9589C225.535 56.8925 225.535 56.8261 225.535 56.7577C225.441 56.7203 225.441 56.7203 225.346 56.6822C225.097 56.5357 225.036 56.4178 224.931 56.1541C224.865 56.1541 224.798 56.1541 224.73 56.1541C224.584 55.9795 224.447 55.798 224.315 55.6134C224.242 55.513 224.169 55.4127 224.094 55.3092C223.925 55.0475 223.925 55.0475 223.925 54.8464C223.859 54.8464 223.792 54.8464 223.724 54.8464C223.173 54.0761 222.834 53.2166 222.517 52.3315C222.462 52.2015 222.408 52.0716 222.353 51.9417C222.122 51.3277 222.029 50.6609 221.913 50.0178C221.896 49.9267 221.878 49.8356 221.86 49.7418C221.807 49.3738 221.793 49.012 221.789 48.6409C221.788 48.5673 221.787 48.4937 221.786 48.4179C221.783 48.18 221.782 47.942 221.781 47.7041C221.781 47.623 221.781 47.5419 221.78 47.4584C221.78 46.1307 221.874 44.8688 222.215 43.5797C222.245 43.4647 222.275 43.3496 222.306 43.2311C222.633 42.1559 223.159 41.1269 223.724 40.1594C223.79 40.1594 223.857 40.1594 223.925 40.1594C223.949 40.0879 223.974 40.0163 223.999 39.9425C224.145 39.6139 224.329 39.3792 224.56 39.1032C224.636 39.0109 224.713 38.9185 224.791 38.8234C225.03 38.5519 225.269 38.2922 225.535 38.0469C225.601 38.0469 225.667 38.0469 225.736 38.0469C225.736 37.9805 225.736 37.9142 225.736 37.8458C225.902 37.7794 226.068 37.713 226.239 37.6446C226.239 37.5782 226.239 37.5118 226.239 37.4434C228.759 35.6351 231.69 34.8806 234.764 34.8971ZM231.474 41.8102C230.893 42.5471 230.667 43.2692 230.464 44.1833C233.518 44.1833 236.572 44.1833 239.718 44.1833C239.533 43.3377 239.533 43.3377 239.165 42.6177C239.104 42.5139 239.043 42.41 238.98 42.303C238.925 42.2263 238.87 42.1497 238.813 42.0708C238.747 42.0708 238.68 42.0708 238.612 42.0708C238.591 42.0147 238.57 41.9587 238.549 41.901C238.081 41.1132 237.009 40.6461 236.154 40.4235C234.444 40.1242 232.681 40.5268 231.474 41.8102Z" fill="#E8E8E8"/>
<path d="M206.22 28.7922C208.976 28.7922 211.731 28.7922 214.57 28.7922C214.57 31.0827 214.57 33.3733 214.57 35.7332C216.097 35.7332 217.624 35.7332 219.197 35.7332C219.339 36.0178 219.31 36.2562 219.311 36.5744C219.311 36.6728 219.311 36.6728 219.311 36.7732C219.312 36.9904 219.311 37.2077 219.311 37.4249C219.311 37.5755 219.311 37.7261 219.311 37.8766C219.311 38.1923 219.311 38.508 219.311 38.8237C219.31 39.2292 219.311 39.6347 219.311 40.0402C219.311 40.3511 219.311 40.662 219.311 40.9729C219.311 41.1225 219.311 41.2721 219.311 41.4216C219.312 41.6302 219.311 41.8388 219.311 42.0474C219.311 42.1663 219.311 42.2852 219.31 42.4077C219.298 42.6743 219.298 42.6743 219.197 42.7749C217.67 42.7749 216.143 42.7749 214.57 42.7749C214.57 48.2191 214.57 53.6633 214.57 59.2725C211.814 59.2725 209.059 59.2725 206.22 59.2725C206.22 53.8283 206.22 48.3841 206.22 42.7749C205.291 42.7749 204.361 42.7749 203.404 42.7749C203.401 41.8717 203.399 40.9684 203.398 40.0651C203.398 39.6457 203.397 39.2264 203.396 38.807C203.395 38.4026 203.394 37.9982 203.394 37.5938C203.394 37.4392 203.394 37.2846 203.393 37.1299C203.392 36.9141 203.392 36.6983 203.392 36.4824C203.392 36.3593 203.392 36.2363 203.392 36.1095C203.404 35.8338 203.404 35.8338 203.504 35.7332C204.401 35.7332 205.297 35.7332 206.22 35.7332C206.22 33.4427 206.22 31.1521 206.22 28.7922Z" fill="#E8E8E8"/>
<path d="M200.788 35.3309C200.788 37.9866 200.788 40.6423 200.788 43.3785C200.415 43.3039 200.074 43.2139 199.715 43.0952C199.068 42.8824 198.456 42.6915 197.77 42.6743C197.679 42.6704 197.588 42.6665 197.494 42.6625C196.211 42.6325 195.127 42.885 193.948 43.3785C193.798 43.4283 193.798 43.4283 193.646 43.4791C193.646 43.5455 193.646 43.6119 193.646 43.6803C193.532 43.7763 193.413 43.8677 193.294 43.9569C192.168 44.9233 191.695 46.4425 191.581 47.879C191.507 48.9707 191.51 50.0643 191.502 51.1581C191.499 51.3929 191.497 51.6277 191.495 51.8625C191.49 52.476 191.485 53.0896 191.48 53.7031C191.474 54.4416 191.467 55.1802 191.461 55.9187C191.451 57.0366 191.442 58.1546 191.433 59.2725C188.677 59.2725 185.922 59.2725 183.083 59.2725C183.081 56.2883 183.079 53.3041 183.078 50.3198C183.078 49.9679 183.078 49.6159 183.078 49.264C183.078 49.1939 183.078 49.1238 183.078 49.0516C183.077 47.9156 183.077 46.7796 183.076 45.6435C183.075 44.4787 183.074 43.3139 183.074 42.1491C183.074 41.4945 183.073 40.8399 183.073 40.1852C183.072 39.5699 183.072 38.9545 183.072 38.3391C183.072 38.1126 183.072 37.886 183.071 37.6594C183.071 37.3515 183.071 37.0436 183.071 36.7358C183.071 36.6449 183.071 36.554 183.07 36.4603C183.072 35.8453 183.072 35.8453 183.184 35.7332C183.441 35.7237 183.695 35.7206 183.953 35.7218C184.073 35.7218 184.073 35.7218 184.196 35.7218C184.464 35.7219 184.731 35.7226 184.998 35.7234C185.183 35.7236 185.368 35.7238 185.553 35.7239C186.04 35.7242 186.527 35.7252 187.015 35.7263C187.512 35.7274 188.009 35.7278 188.505 35.7283C189.481 35.7294 190.457 35.7312 191.433 35.7332C191.466 36.8951 191.499 38.057 191.533 39.2541C191.666 39.0549 191.799 38.8557 191.936 38.6505C192.002 38.6505 192.069 38.6505 192.137 38.6505C192.164 38.5924 192.191 38.5343 192.219 38.4745C192.341 38.2425 192.469 38.0449 192.64 37.8457C192.706 37.8457 192.773 37.8457 192.841 37.8457C192.841 37.7794 192.841 37.713 192.841 37.6446C192.974 37.5189 192.974 37.5189 193.161 37.3785C193.229 37.3272 193.297 37.276 193.367 37.2231C193.477 37.1423 193.477 37.1423 193.589 37.0598C193.663 37.0051 193.738 36.9503 193.814 36.8938C196.023 35.28 197.932 35.3309 200.788 35.3309Z" fill="#E8E8E8"/>
<path d="M55.7298 29.4963C55.7962 29.4963 55.8626 29.4963 55.931 29.4963C56.1877 30.0802 56.3881 30.6722 56.5616 31.2854C56.8235 32.1924 57.1276 33.0822 57.4399 33.9728C57.7742 34.9264 58.0965 35.8795 58.374 36.8514C58.5465 37.4552 58.7443 38.0489 58.9473 38.643C59.0246 38.8772 59.0902 39.1154 59.15 39.3547C62.6024 39.3879 66.0549 39.4211 69.6119 39.4553C69.4459 39.6213 69.28 39.7872 69.1089 39.9582C69.0426 39.9582 68.9762 39.9582 68.9078 39.9582C68.9078 40.0246 68.9078 40.091 68.9078 40.1594C68.6763 40.3296 68.6763 40.3296 68.3733 40.5178C68.2741 40.5802 68.1749 40.6426 68.0727 40.7068C67.8012 40.8636 67.8012 40.8636 67.4994 40.9642C67.4994 41.0306 67.4994 41.097 67.4994 41.1654C67.2887 41.3298 67.0792 41.4814 66.8581 41.6306C66.7671 41.6941 66.7671 41.6941 66.6742 41.7587C66.2184 42.0707 66.2184 42.0707 65.9905 42.0707C65.9905 42.1371 65.9905 42.2035 65.9905 42.2719C65.4461 42.6743 65.4461 42.6743 65.1857 42.6743C65.1857 42.7407 65.1857 42.8071 65.1857 42.8755C64.9896 43.0138 64.9896 43.0138 64.7142 43.1773C64.2715 43.4507 63.8533 43.7428 63.4442 44.0638C62.9686 44.4356 62.4879 44.7985 61.9981 45.1515C61.9377 45.1955 61.8773 45.2396 61.8151 45.285C61.3869 45.5916 61.3869 45.5916 61.1619 45.5916C61.1978 45.6953 61.2338 45.7989 61.2708 45.9058C61.9132 47.7616 62.546 49.6158 63.1046 51.4989C63.3044 52.1601 63.5318 52.8126 63.7551 53.4661C63.8384 53.7102 63.9211 53.9545 64.0037 54.1988C64.0427 54.312 64.0427 54.312 64.0825 54.4276C64.22 54.8342 64.3242 55.2236 64.381 55.6511C63.9415 55.5024 63.6211 55.2739 63.2556 54.9909C62.8793 54.691 62.8793 54.691 62.4697 54.444C62.4697 54.3776 62.4697 54.3112 62.4697 54.2428C62.3613 54.2048 62.3613 54.2048 62.2508 54.1661C61.9405 54.0301 61.7122 53.866 61.4448 53.6581C60.9055 53.2455 60.3604 52.8425 59.8102 52.4446C59.6941 52.3603 59.6941 52.3603 59.5757 52.2742C59.2698 52.0531 58.9704 51.841 58.6435 51.6517C58.5783 51.6104 58.513 51.5692 58.4458 51.5267C58.4458 51.4603 58.4458 51.3939 58.4458 51.3255C58.375 51.3013 58.3042 51.277 58.2313 51.252C57.8967 51.1039 57.6413 50.9142 57.3519 50.6905C57.2463 50.6102 57.1408 50.53 57.032 50.4473C56.8589 50.3139 56.6862 50.1798 56.5149 50.0441C56.2151 49.7914 56.2151 49.7914 55.8465 49.7313C55.5549 49.8457 55.3258 50.0068 55.0696 50.1875C55.0139 50.2267 54.9582 50.2659 54.9008 50.3062C54.3018 50.7302 53.7126 51.1678 53.1227 51.6044C52.5971 51.9933 52.0689 52.3779 51.5353 52.756C51.1948 52.9975 50.8565 53.242 50.5196 53.4887C50.437 53.5491 50.3543 53.6094 50.2692 53.6716C50.1061 53.7908 49.9433 53.9103 49.7809 54.0302C49.7071 54.084 49.6333 54.1378 49.5573 54.1933C49.4585 54.2658 49.4585 54.2658 49.3578 54.3399C49.1911 54.444 49.1911 54.444 48.9899 54.444C48.9899 54.5104 48.9899 54.5767 48.9899 54.6452C48.8024 54.7866 48.6083 54.9194 48.4115 55.0475C48.3041 55.1181 48.1967 55.1886 48.0861 55.2613C47.8538 55.4057 47.6278 55.5358 47.3804 55.6511C47.49 54.9407 47.6993 54.2957 47.9482 53.6227C48.118 53.1537 48.2552 52.6759 48.39 52.1959C48.5578 51.6056 48.7526 51.0249 48.9478 50.4433C49.1815 49.7475 49.4106 49.0501 49.6387 48.3524C49.6929 48.1869 49.7473 48.0215 49.8019 47.8562C49.8823 47.6129 49.9619 47.3693 50.0414 47.1257C50.0657 47.0526 50.09 46.9796 50.1151 46.9043C50.2569 46.4663 50.346 46.0493 50.3982 45.5916C50.1908 45.4426 49.9834 45.2939 49.7758 45.1452C49.713 45.1001 49.6502 45.0551 49.5856 45.0086C49.2613 44.7766 48.9356 44.5474 48.6052 44.3243C48.5451 44.2836 48.485 44.2429 48.4231 44.2009C48.2553 44.0876 48.087 43.9751 47.9187 43.8626C47.8406 43.8024 47.7626 43.7423 47.6822 43.6803C47.6822 43.6139 47.6822 43.5475 47.6822 43.4791C47.6134 43.4561 47.5447 43.4332 47.4739 43.4095C47.108 43.2461 46.8053 43.0214 46.4876 42.7812C46.3544 42.682 46.2212 42.5829 46.088 42.4837C46.0196 42.4326 45.9512 42.3814 45.8808 42.3287C45.5333 42.069 45.1837 41.8121 44.8341 41.5552C44.7697 41.5076 44.7053 41.46 44.639 41.411C44.3121 41.1677 44.3121 41.1677 43.9601 40.9642C43.9601 40.8978 43.9601 40.8314 43.9601 40.763C43.8889 40.738 43.8177 40.713 43.7444 40.6872C43.4232 40.547 43.1675 40.3727 42.885 40.1657C42.7892 40.0963 42.6934 40.027 42.5946 39.9555C42.3506 39.7571 42.3506 39.7571 42.1494 39.4553C45.6018 39.4553 49.0543 39.4553 52.6113 39.4553C52.6777 39.1565 52.7441 38.8577 52.8125 38.5499C52.8899 38.2972 52.9712 38.0456 53.0565 37.7954C53.0796 37.7271 53.1027 37.6588 53.1265 37.5883C53.1995 37.3722 53.2732 37.1563 53.3469 36.9404C53.6358 36.0933 53.9191 35.2467 54.167 34.3866C54.4349 33.4579 54.7413 32.5432 55.0508 31.6277C55.1326 31.3851 55.2143 31.1424 55.2958 30.8996C55.3459 30.7506 55.3962 30.6015 55.4466 30.4526C55.5531 30.1362 55.6567 29.8223 55.7298 29.4963Z" fill="#E8E8E8"/>
</g>
<defs>
<clipPath id="clip0_60_29">
<rect width="412.038" height="84.2988" fill="white" transform="translate(0 0.424316)"/>
</clipPath>
</defs>
</svg>
