<svg width="28" height="27" viewBox="0 0 28 27" fill="none" xmlns="http://www.w3.org/2000/svg">
<path d="M13.5804 0C13.6468 0 13.7131 0 13.7816 0C14.0383 0.583829 14.2387 1.17585 14.4122 1.7891C14.6741 2.69608 14.9782 3.58583 15.2905 4.47649C15.6248 5.43002 15.9471 6.38319 16.2246 7.35505C16.3971 7.95882 16.5949 8.55256 16.7978 9.1467C16.8752 9.3809 16.9408 9.61905 17.0006 9.85834C20.453 9.89153 23.9055 9.92473 27.4625 9.95893C27.2965 10.1249 27.1305 10.2909 26.9595 10.4619C26.8931 10.4619 26.8267 10.4619 26.7583 10.4619C26.7583 10.5283 26.7583 10.5947 26.7583 10.6631C26.5269 10.8332 26.5269 10.8332 26.2239 11.0215C26.1247 11.0838 26.0255 11.1462 25.9233 11.2105C25.6518 11.3673 25.6518 11.3673 25.35 11.4679C25.35 11.5343 25.35 11.6006 25.35 11.669C25.1393 11.8335 24.9297 11.9851 24.7087 12.1343C24.6177 12.1977 24.6177 12.1977 24.5248 12.2624C24.069 12.5744 24.069 12.5744 23.8411 12.5744C23.8411 12.6408 23.8411 12.7072 23.8411 12.7756C23.2967 13.178 23.2967 13.178 23.0363 13.178C23.0363 13.2444 23.0363 13.3108 23.0363 13.3792C22.8402 13.5175 22.8402 13.5175 22.5648 13.681C22.1221 13.9544 21.7039 14.2465 21.2948 14.5675C20.8192 14.9393 20.3385 15.3022 19.8487 15.6551C19.7883 15.6992 19.7279 15.7433 19.6657 15.7887C19.2375 16.0952 19.2375 16.0952 19.0125 16.0952C19.0484 16.1989 19.0844 16.3026 19.1214 16.4094C19.7637 18.2653 20.3966 20.1195 20.9552 22.0026C21.155 22.6638 21.3824 23.3162 21.6057 23.9698C21.689 24.2139 21.7717 24.4581 21.8543 24.7024C21.8933 24.8157 21.8933 24.8157 21.9331 24.9312C22.0705 25.3379 22.1748 25.7272 22.2316 26.1548C21.7921 26.0061 21.4717 25.7775 21.1061 25.4946C20.7299 25.1947 20.7299 25.1947 20.3202 24.9476C20.3202 24.8812 20.3202 24.8148 20.3202 24.7464C20.2119 24.7085 20.2119 24.7085 20.1014 24.6698C19.7911 24.5338 19.5628 24.3696 19.2954 24.1617C18.7561 23.7492 18.211 23.3462 17.6608 22.9483C17.5447 22.8639 17.5447 22.8639 17.4263 22.7778C17.1204 22.5568 16.821 22.3446 16.4941 22.1553C16.4289 22.1141 16.3636 22.0728 16.2964 22.0304C16.2964 21.964 16.2964 21.8976 16.2964 21.8292C16.2256 21.8049 16.1548 21.7807 16.0819 21.7557C15.7472 21.6075 15.4919 21.4178 15.2025 21.1942C15.0969 21.1139 14.9913 21.0336 14.8826 20.9509C14.7095 20.8175 14.5368 20.6834 14.3655 20.5478C14.0656 20.2951 14.0656 20.2951 13.6971 20.235C13.4055 20.3494 13.1764 20.5105 12.9202 20.6912C12.8645 20.7304 12.8088 20.7695 12.7514 20.8099C12.1524 21.2339 11.5632 21.6714 10.9733 22.108C10.4477 22.497 9.91946 22.8816 9.38594 23.2596C9.04534 23.5012 8.70708 23.7456 8.37023 23.9924C8.28757 24.0527 8.20492 24.1131 8.11975 24.1753C7.95671 24.2944 7.79394 24.4139 7.63146 24.5339C7.55769 24.5877 7.48391 24.6415 7.4079 24.6969C7.30914 24.7695 7.30914 24.7695 7.20838 24.8435C7.04167 24.9476 7.04167 24.9476 6.84048 24.9476C6.84048 25.014 6.84048 25.0804 6.84048 25.1488C6.65301 25.2903 6.45892 25.4231 6.26205 25.5512C6.15469 25.6217 6.04732 25.6923 5.93669 25.765C5.70441 25.9094 5.47837 26.0395 5.23095 26.1548C5.34062 25.4444 5.54986 24.7994 5.79877 24.1264C5.96858 23.6574 6.10579 23.1796 6.24057 22.6995C6.40836 22.1093 6.60314 21.5286 6.79843 20.947C7.03207 20.2511 7.26121 19.5538 7.48924 18.8561C7.54344 18.6906 7.59787 18.5252 7.65251 18.3599C7.7329 18.1165 7.81253 17.873 7.89201 17.6293C7.91632 17.5563 7.94063 17.4832 7.96567 17.408C8.10752 16.9699 8.19654 16.5529 8.24881 16.0952C8.04143 15.9463 7.83394 15.7975 7.62638 15.6488C7.5636 15.6038 7.50082 15.5587 7.43614 15.5123C7.11187 15.2803 6.78623 15.0511 6.45578 14.828C6.3957 14.7873 6.33562 14.7465 6.27372 14.7046C6.10593 14.5913 5.93763 14.4787 5.7693 14.3663C5.69123 14.3061 5.61317 14.2459 5.53274 14.1839C5.53274 14.1175 5.53274 14.0511 5.53274 13.9827C5.46401 13.9598 5.39529 13.9368 5.32448 13.9132C4.95861 13.7498 4.65589 13.5251 4.33817 13.2849C4.20497 13.1857 4.07176 13.0865 3.93854 12.9874C3.87019 12.9362 3.80183 12.8851 3.73141 12.8323C3.38384 12.5727 3.03427 12.3157 2.68464 12.0589C2.62027 12.0113 2.5559 11.9637 2.48959 11.9147C2.16267 11.6714 2.16267 11.6714 1.81071 11.4679C1.81071 11.4015 1.81071 11.3351 1.81071 11.2667C1.73952 11.2416 1.66833 11.2166 1.59498 11.1908C1.27381 11.0507 1.01811 10.8764 0.735603 10.6694C0.639774 10.6 0.543945 10.5306 0.445213 10.4592C0.201191 10.2607 0.201191 10.2607 0 9.95893C3.45243 9.95893 6.90486 9.95893 10.4619 9.95893C10.5283 9.66016 10.5947 9.36139 10.6631 9.05357C10.7405 8.80083 10.8218 8.54927 10.9071 8.29911C10.9302 8.23076 10.9533 8.16242 10.9771 8.092C11.0501 7.87586 11.1237 7.65994 11.1975 7.44405C11.4864 6.59693 11.7696 5.7504 12.0176 4.89027C12.2855 3.96154 12.5919 3.04691 12.9013 2.13136C12.9832 1.88872 13.0649 1.64604 13.1464 1.40331C13.1965 1.25423 13.2468 1.10521 13.2972 0.956249C13.4037 0.639871 13.5073 0.325962 13.5804 0Z" fill="#E8E8E8"/>
</svg>
