<svg width="428" height="85" viewBox="0 0 428 85" fill="none" xmlns="http://www.w3.org/2000/svg">
<g clip-path="url(#clip0_60_29)">
<path d="M54.4543 -0.0169239C54.6139 -0.0172483 54.7736 -0.0175868 54.9333 -0.0179385C55.2676 -0.0185384 55.6019 -0.0187275 55.9362 -0.0186676C56.2739 -0.0186595 56.6116 -0.019349 56.9492 -0.0207306C58.8659 -0.0284499 60.7636 -0.0164674 62.6708 0.201163C62.7421 0.209016 62.8133 0.216868 62.8867 0.224958C63.2978 0.270938 63.7074 0.324872 64.1169 0.383492C64.298 0.408973 64.298 0.408973 64.4827 0.434969C65.7316 0.61597 66.968 0.851265 68.2036 1.10652C68.3273 1.13137 68.3273 1.13137 68.4535 1.15672C70.4064 1.55006 72.2995 2.16156 74.189 2.7852C74.2968 2.82051 74.2968 2.82051 74.4067 2.85653C75.1495 3.10054 75.8605 3.35434 76.553 3.722C76.7572 3.8027 76.9625 3.88045 77.1691 3.95462C77.831 4.20445 78.4537 4.50935 79.0819 4.83356C79.2758 4.93258 79.4708 5.02901 79.6663 5.12483C81.4401 5.9953 83.3863 6.96594 84.9024 8.24878C84.9024 8.31518 84.9024 8.38157 84.9024 8.44998C84.9729 8.47487 85.0435 8.49977 85.1162 8.52542C85.4451 8.66845 85.7214 8.83953 86.0089 9.05355C86.0089 9.11994 86.0089 9.18633 86.0089 9.25474C86.0816 9.27963 86.1542 9.30453 86.229 9.33018C86.5397 9.46827 86.7644 9.62931 87.0149 9.85831C87.0149 9.9247 87.0149 9.99109 87.0149 10.0595C87.0744 10.0867 87.1339 10.1138 87.1952 10.1418C87.4158 10.2599 87.5698 10.382 87.7513 10.553C87.813 10.6108 87.8747 10.6686 87.9383 10.7282C88.0029 10.7897 88.0675 10.8512 88.134 10.9146C88.2337 11.0088 88.2337 11.0088 88.3354 11.1048C88.533 11.2922 88.7298 11.4804 88.9262 11.669C88.9818 11.7223 89.0374 11.7755 89.0946 11.8303C89.7122 12.4245 89.7122 12.4245 89.9322 12.675C89.9322 12.7414 89.9322 12.8078 89.9322 12.8762C89.9986 12.8762 90.0649 12.8762 90.1333 12.8762C90.6363 13.427 90.6363 13.427 90.6363 13.6809C90.7027 13.6809 90.7691 13.6809 90.8375 13.6809C91.0095 13.8828 91.1697 14.0848 91.3279 14.2971C91.3716 14.3544 91.4153 14.4117 91.4603 14.4708C92.2458 15.5087 92.2458 15.5087 92.2458 15.7934C92.3122 15.7934 92.3786 15.7934 92.447 15.7934C92.5807 15.9657 92.5807 15.9657 92.7308 16.2045C92.7846 16.2898 92.8384 16.3751 92.8938 16.463C92.9497 16.5533 93.0056 16.6435 93.0632 16.7365C93.1199 16.826 93.1765 16.9155 93.2349 17.0076C93.6542 17.6777 93.6542 17.6777 93.6542 17.9059C93.7639 17.9253 93.7639 17.9253 93.8759 17.945C94.3366 18.0458 94.7596 18.2358 95.1945 18.4152C95.3419 18.4757 95.3419 18.4757 95.4923 18.5375C96.3431 18.8917 97.1627 19.2915 97.9798 19.7166C98.1808 19.8176 98.3819 19.9183 98.5834 20.0184C98.7175 20.0855 98.8516 20.1526 98.9857 20.2196C98.9857 20.286 98.9857 20.3524 98.9857 20.4208C99.0372 20.4295 99.0887 20.4382 99.1417 20.4471C99.4905 20.5523 99.7955 20.7268 100.111 20.9049C100.181 20.9442 100.251 20.9836 100.323 21.0241C101.088 21.4645 101.804 21.973 102.515 22.4946C102.647 22.5898 102.78 22.6832 102.914 22.7748C103.083 22.8908 103.248 23.0133 103.412 23.1369C103.412 23.2033 103.412 23.2697 103.412 23.3381C103.482 23.3595 103.552 23.3809 103.624 23.4029C103.995 23.5768 104.259 23.83 104.55 24.1114C104.666 24.2216 104.783 24.3318 104.9 24.4419C104.955 24.4948 105.011 24.5477 105.069 24.6022C105.256 24.7775 105.449 24.9449 105.644 25.1111C106.289 25.6699 106.93 26.27 107.436 26.9595C107.436 27.0259 107.436 27.0923 107.436 27.1607C107.502 27.1607 107.569 27.1607 107.637 27.1607C110.32 30.1857 112.098 34.1873 112.538 38.1918C112.561 38.3816 112.589 38.5707 112.618 38.7595C112.706 39.4374 112.691 40.1213 112.692 40.8039C112.692 40.8827 112.692 40.9614 112.692 41.0425C112.692 42.2298 112.63 43.378 112.406 44.5469C112.366 44.7571 112.332 44.9676 112.299 45.179C111.802 48.1654 110.556 51.1247 108.844 53.6172C108.8 53.6813 108.756 53.7453 108.711 53.8113C108.14 54.6419 107.558 55.4524 106.907 56.2225C106.718 56.4424 106.718 56.4424 106.53 56.7357C106.464 56.7357 106.398 56.7357 106.329 56.7357C106.329 56.8021 106.329 56.8685 106.329 56.9369C106.263 56.9369 106.196 56.9369 106.128 56.9369C106.103 56.9929 106.078 57.0489 106.053 57.1066C105.904 57.3819 105.732 57.6085 105.524 57.8422C105.458 57.8422 105.392 57.8422 105.323 57.8422C105.323 57.9086 105.323 57.975 105.323 58.0434C105.257 58.0434 105.19 58.0434 105.122 58.0434C105.122 58.1098 105.122 58.1762 105.122 58.2446C104.957 58.4148 104.957 58.4148 104.739 58.603C104.667 58.6654 104.596 58.7277 104.523 58.792C104.317 58.9488 104.317 58.9488 104.015 59.0494C104.015 59.1158 104.015 59.1822 104.015 59.2506C103.666 59.5752 103.284 59.8615 102.909 60.1559C102.806 60.2378 102.703 60.3196 102.597 60.4039C101.955 60.9098 101.297 61.3782 100.607 61.8171C99.9285 62.255 99.5139 62.7519 99.1241 63.4504C98.5477 64.4574 97.919 65.4277 97.2756 66.3928C97.2092 66.3928 97.1428 66.3928 97.0744 66.3928C97.0454 66.4862 97.0163 66.5796 96.9864 66.6758C96.8732 66.9964 96.8732 66.9964 96.672 67.2982C96.6057 67.2982 96.5393 67.2982 96.4708 67.2982C96.446 67.3691 96.4211 67.4401 96.3954 67.5131C96.2535 67.8383 96.076 68.0993 95.8673 68.3859C95.7967 68.484 95.7262 68.5822 95.6535 68.6833C95.5913 68.7574 95.529 68.8314 95.4649 68.9077C95.3985 68.9077 95.3321 68.9077 95.2637 68.9077C95.2409 68.9783 95.2181 69.0488 95.1945 69.1215C95.0285 69.4853 94.8321 69.7213 94.5595 70.0143C94.4931 70.0143 94.4268 70.0143 94.3584 70.0143C94.3314 70.0718 94.3044 70.1294 94.2766 70.1887C94.153 70.4246 94.0138 70.6303 93.8554 70.8442C93.7776 70.9508 93.7776 70.9508 93.6982 71.0595C93.6505 71.1129 93.6028 71.1664 93.5536 71.2214C93.4872 71.2214 93.4208 71.2214 93.3524 71.2214C93.3112 71.3116 93.3112 71.3116 93.2692 71.4036C93.1545 71.6176 93.0434 71.7571 92.873 71.928C92.8173 71.9844 92.7615 72.0408 92.7041 72.0988C92.6142 72.1881 92.6142 72.1881 92.5225 72.2792C92.4298 72.3722 92.4298 72.3722 92.3353 72.467C92.205 72.5974 92.0745 72.7276 91.9437 72.8576C91.7429 73.0573 91.5432 73.258 91.3436 73.4589C91.2169 73.5855 91.0901 73.712 90.9633 73.8385C90.8733 73.929 90.8733 73.929 90.7816 74.0213C90.3577 74.4405 90.3577 74.4405 90.1333 74.4405C90.1333 74.5069 90.1333 74.5732 90.1333 74.6417C89.9204 74.8373 89.9204 74.8373 89.6429 75.0566C89.5519 75.1295 89.4609 75.2024 89.3671 75.2775C89.1274 75.4464 89.1274 75.4464 88.9262 75.4464C88.9262 75.5128 88.9262 75.5792 88.9262 75.6476C88.7909 75.772 88.7909 75.772 88.6032 75.9093C88.5024 75.9832 88.5024 75.9832 88.3997 76.0586C88.3286 76.1097 88.2575 76.1608 88.1843 76.2135C88.114 76.2653 88.0437 76.3172 87.9713 76.3706C87.4437 76.7542 87.4437 76.7542 87.2161 76.7542C87.2161 76.8205 87.2161 76.8869 87.2161 76.9553C86.9718 77.1239 86.728 77.2801 86.4742 77.4332C86.4 77.4786 86.3259 77.5241 86.2494 77.5709C86.0355 77.7017 85.8211 77.8315 85.6066 77.9613C85.5161 78.0169 85.4255 78.0726 85.3323 78.1299C85.09 78.2777 84.8458 78.4218 84.6006 78.5649C84.4869 78.6317 84.3732 78.6984 84.256 78.7672C81.6179 80.2952 78.7561 81.4802 75.8488 82.3875C75.739 82.4221 75.6292 82.4567 75.516 82.4924C72.5933 83.3688 69.5649 83.8956 66.5306 84.1671C66.3464 84.184 66.1623 84.2017 65.9787 84.2236C65.2328 84.3091 64.4922 84.315 63.742 84.3157C63.6026 84.316 63.4633 84.3164 63.3239 84.3167C63.0322 84.3173 62.7405 84.3175 62.4488 84.3174C62.1551 84.3174 61.8613 84.3181 61.5675 84.3195C59.7799 84.3278 58.012 84.2943 56.2327 84.0976C56.1606 84.0898 56.0885 84.0819 56.0142 84.0738C55.6019 84.0279 55.1911 83.9739 54.7804 83.9153C54.6599 83.8984 54.5394 83.8815 54.4152 83.864C52.994 83.6579 51.5783 83.3976 50.1888 83.0327C49.6504 82.8964 49.128 82.8244 48.5749 82.7836C48.481 82.7758 48.387 82.768 48.2902 82.76C47.987 82.7352 47.6837 82.712 47.3804 82.6893C47.2789 82.6817 47.1774 82.674 47.0728 82.6662C46.8636 82.6505 46.6544 82.6349 46.4452 82.6192C43.1942 82.3747 39.9874 82.0016 36.7864 81.3815C36.6552 81.3563 36.6552 81.3563 36.5213 81.3305C35.4326 81.1198 34.3662 80.8721 33.297 80.5768C33.0807 80.5211 32.8642 80.4661 32.6475 80.4117C30.6662 79.9115 28.677 79.3953 26.7898 78.6018C26.4393 78.4571 26.0854 78.3308 25.7272 78.2065C25.2176 78.0269 24.7283 77.8263 24.2395 77.5962C24.0168 77.4931 23.7941 77.3943 23.5684 77.2984C22.7532 76.9515 21.9691 76.5726 21.1918 76.1478C20.8308 75.9512 20.4635 75.771 20.0939 75.591C19.5593 75.3264 19.0604 75.0318 18.5622 74.7045C18.3247 74.5516 18.0846 74.4123 17.8368 74.277C17.5359 74.1124 17.2379 73.9446 16.944 73.7677C16.8775 73.7279 16.811 73.6881 16.7424 73.6471C16.6948 73.6101 16.6473 73.5732 16.5982 73.5351C16.5982 73.4687 16.5982 73.4023 16.5982 73.3339C16.399 73.2675 16.1999 73.2011 15.9946 73.1327C15.9946 73.0663 15.9946 72.9999 15.9946 72.9315C15.89 72.8967 15.89 72.8967 15.7832 72.8612C15.4313 72.7032 15.1493 72.4855 14.8504 72.2462C14.7351 72.1553 14.6197 72.0646 14.5042 71.9739C14.4217 71.909 14.4217 71.909 14.3375 71.8428C14.1465 71.6955 13.9495 71.5584 13.7501 71.4226C13.6609 71.3562 13.5717 71.2898 13.4798 71.2214C13.4798 71.155 13.4798 71.0886 13.4798 71.0202C13.4134 71.0202 13.347 71.0202 13.2786 71.0202C13.2786 70.9538 13.2786 70.8874 13.2786 70.819C13.1894 70.7777 13.1894 70.7777 13.0984 70.7355C12.8843 70.6221 12.722 70.5028 12.5394 70.3447C12.4786 70.2923 12.4177 70.2398 12.3549 70.1858C12.2925 70.1313 12.2301 70.0767 12.1657 70.0206C12.0715 69.9394 12.0715 69.9394 11.9754 69.8565C11.3559 69.3203 11.3559 69.3203 11.1661 69.1089C11.1661 69.0425 11.1661 68.9761 11.1661 68.9077C11.0997 68.9077 11.0333 68.9077 10.9649 68.9077C10.9649 68.8413 10.9649 68.7749 10.9649 68.7065C10.8985 68.7065 10.8321 68.7065 10.7637 68.7065C10.7637 68.6401 10.7637 68.5737 10.7637 68.5053C10.6973 68.5053 10.6309 68.5053 10.5625 68.5053C10.5625 68.4389 10.5625 68.3726 10.5625 68.3042C10.4961 68.3042 10.4297 68.3042 10.3613 68.3042C10.2089 68.1529 10.2089 68.1529 10.0344 67.9458C9.97253 67.8728 9.91067 67.7998 9.84694 67.7245C9.78431 67.6502 9.72168 67.5759 9.65715 67.4994C9.59763 67.4324 9.53811 67.3653 9.47678 67.2962C9.42219 67.2346 9.3676 67.173 9.31135 67.1096C9.26169 67.0538 9.21202 66.9981 9.16085 66.9406C9.05358 66.7952 9.05358 66.7952 9.05358 66.594C8.98718 66.594 8.92079 66.594 8.85239 66.594C8.68145 66.3873 8.68145 66.3873 8.48144 66.1036C8.37504 65.9533 8.37504 65.9533 8.2665 65.7999C8.15816 65.6452 8.15816 65.6452 8.04762 65.4875C7.97851 65.3917 7.90939 65.2958 7.83818 65.1971C7.77451 65.1083 7.71084 65.0194 7.64524 64.9279C7.58715 64.8469 7.52906 64.7658 7.4692 64.6823C7.34346 64.4815 7.34346 64.4815 7.34346 64.2803C7.27706 64.2803 7.21067 64.2803 7.14227 64.2803C5.29835 61.0513 5.29835 61.0513 4.83211 59.7394C4.72903 59.4432 4.72903 59.4432 4.58337 59.1315C4.3771 58.6563 4.25127 58.1595 4.11812 57.6599C4.09238 57.566 4.06664 57.472 4.04012 57.3752C3.32487 54.7257 3.04979 51.6774 3.72203 48.9899C3.73343 48.8393 3.7396 48.6882 3.74089 48.5372C3.74232 48.4615 3.74374 48.3857 3.74521 48.3077C3.71943 48.0595 3.64441 47.897 3.52084 47.6821C3.45444 47.6821 3.38805 47.6821 3.31965 47.6821C3.15443 47.4484 3.00288 47.2158 2.85439 46.9717C2.80969 46.8987 2.76498 46.8258 2.71892 46.7506C1.95377 45.4899 1.35685 44.2593 0.905361 42.8536C0.867108 42.7383 0.828854 42.623 0.789441 42.5042C0.539312 41.7274 0.342433 40.9413 0.201195 40.1375C0.175337 40.0015 0.175337 40.0015 0.148957 39.8628C-0.0302457 38.8022 -0.0340021 37.7491 -0.0317513 36.676C-0.031435 36.3619 -0.0337951 36.0479 -0.0363439 35.7339C-0.0405006 34.393 0.0738568 33.1087 0.30179 31.7881C0.326611 31.638 0.35137 31.4879 0.376057 31.3378C0.642287 29.76 1.15592 28.255 1.71012 26.7583C1.75538 26.6343 1.80064 26.5104 1.84726 26.3827C2.79863 23.885 4.28503 21.5887 5.89111 19.4652C5.95412 19.3809 5.95412 19.3809 6.0184 19.295C6.11982 19.1633 6.22807 19.037 6.3375 18.9119C6.4039 18.9119 6.47029 18.9119 6.5387 18.9119C6.57449 18.828 6.57449 18.828 6.611 18.7425C6.77014 18.4548 6.9689 18.241 7.19256 18.0002C7.43453 17.739 7.64867 17.4984 7.84643 17.2018C7.91283 17.2018 7.97922 17.2018 8.04762 17.2018C8.04762 17.1354 8.04762 17.069 8.04762 17.0006C8.11402 17.0006 8.18041 17.0006 8.24881 17.0006C8.24881 16.9342 8.24881 16.8678 8.24881 16.7994C8.31521 16.7994 8.3816 16.7994 8.45001 16.7994C8.45001 16.733 8.45001 16.6666 8.45001 16.5982C8.5164 16.5982 8.58279 16.5982 8.6512 16.5982C8.6512 16.5318 8.6512 16.4654 8.6512 16.397C8.71759 16.397 8.78398 16.397 8.85239 16.397C8.85239 16.3306 8.85239 16.2642 8.85239 16.1958C9.00367 16.0433 9.00367 16.0433 9.21076 15.8689C9.28376 15.807 9.35677 15.7452 9.43199 15.6814C9.54344 15.5875 9.54344 15.5875 9.65715 15.4916C9.72419 15.4321 9.79123 15.3726 9.8603 15.3113C9.9219 15.2567 9.98349 15.2021 10.047 15.1458C10.1027 15.0962 10.1585 15.0465 10.2159 14.9953C10.3613 14.8881 10.3613 14.8881 10.5625 14.8881C10.5625 14.8217 10.5625 14.7553 10.5625 14.6869C10.6924 14.5632 10.6924 14.5632 10.8765 14.4236C10.9791 14.3453 10.9791 14.3453 11.0838 14.2655C11.1586 14.2095 11.2335 14.1535 11.3107 14.0959C11.3873 14.038 11.4638 13.9802 11.5427 13.9206C12.3432 13.3195 13.1595 12.7415 13.9827 12.172C14.0717 12.1099 14.1607 12.0478 14.2523 11.9838C14.7148 11.6669 15.1933 11.3973 15.6881 11.1342C15.9653 10.9811 16.2341 10.8183 16.5028 10.651C17.9666 9.74403 19.5472 9.05991 21.1436 8.42301C21.4031 8.31837 21.66 8.20783 21.9172 8.09789C24.2743 7.11999 26.7124 6.39444 29.1925 5.8021C29.5987 5.70383 30.0035 5.60025 30.4083 5.49661C30.6643 5.43618 30.9184 5.39035 31.1782 5.35038C31.708 5.24848 32.1583 5.02435 32.642 4.79121C33.2037 4.53067 33.7839 4.32471 34.365 4.11264C34.6283 4.01505 34.8903 3.91414 35.1521 3.81277C36.6272 3.2447 38.1179 2.75806 39.6345 2.31366C39.7451 2.28061 39.8558 2.24756 39.9697 2.21351C40.848 1.95536 41.7325 1.74928 42.6272 1.5592C42.8424 1.51306 43.0574 1.46681 43.2725 1.42053C43.4127 1.39037 43.553 1.36027 43.6932 1.33022C44.1299 1.23647 44.565 1.13754 44.9997 1.03498C47.1194 0.540345 49.2834 0.323497 51.4476 0.133306C51.6371 0.116021 51.8266 0.0981058 52.0155 0.074942C52.827 -0.0201522 53.6385 -0.0165295 54.4543 -0.0169239ZM50.2976 4.82855C50.2976 4.86174 50.2976 4.89494 50.2976 4.92914C50.3937 4.94347 50.3937 4.94347 50.4918 4.9581C54.8041 5.60786 59.0992 6.65243 63.1396 8.31323C63.4694 8.44747 63.8018 8.5717 64.1358 8.69518C64.7808 8.9422 65.3902 9.24452 66.0036 9.56109C66.2002 9.66145 66.3979 9.75919 66.596 9.85634C67.3262 10.2149 68.0388 10.5883 68.738 11.0053C69.0622 11.198 69.3914 11.3803 69.7219 11.5617C69.8868 11.654 70.0484 11.7521 70.2092 11.8514C70.4058 11.9875 70.4058 11.9875 70.6179 11.9708C70.6179 12.0372 70.6179 12.1036 70.6179 12.172C70.9166 12.2716 70.9166 12.2716 71.2214 12.3732C71.2214 12.4396 71.2214 12.506 71.2214 12.5744C71.5455 12.8074 71.5455 12.8074 71.9256 12.8762C71.9256 12.9426 71.9256 13.009 71.9256 13.0774C72.2911 13.3754 72.2911 13.3754 72.7304 13.4797C72.7304 13.5461 72.7304 13.6125 72.7304 13.6809C72.9029 13.8407 72.9029 13.8407 73.1202 13.9953C73.1925 14.0495 73.2649 14.1037 73.3394 14.1595C73.5247 14.3025 73.5247 14.3025 73.7363 14.2845C73.7363 14.3509 73.7363 14.4173 73.7363 14.4857C73.9023 14.5521 74.0683 14.6185 74.2393 14.6869C74.2393 14.7533 74.2393 14.8197 74.2393 14.8881C74.4117 15.0702 74.4117 15.0702 74.6291 15.2527C74.7376 15.348 74.7376 15.348 74.8484 15.4453C75.0301 15.6124 75.0301 15.6124 75.2453 15.5922C75.2453 15.6586 75.2453 15.725 75.2453 15.7934C75.3116 15.7934 75.378 15.7934 75.4464 15.7934C75.4464 15.8598 75.4464 15.9262 75.4464 15.9946C75.5128 15.9946 75.5792 15.9946 75.6476 15.9946C75.6476 16.061 75.6476 16.1274 75.6476 16.1958C75.714 16.1958 75.7804 16.1958 75.8488 16.1958C75.8488 16.2622 75.8488 16.3286 75.8488 16.397C75.9152 16.397 75.9816 16.397 76.05 16.397C76.05 16.4634 76.05 16.5298 76.05 16.5982C76.1999 16.7418 76.1999 16.7418 76.3958 16.8937C77.0097 17.4134 77.5159 18.0426 77.9613 18.7107C78.0277 18.7107 78.0941 18.7107 78.1625 18.7107C78.1625 18.7771 78.1625 18.8435 78.1625 18.9119C78.2289 18.9119 78.2953 18.9119 78.3637 18.9119C78.3876 18.9643 78.4114 19.0167 78.436 19.0706C78.6071 19.394 78.8106 19.6924 79.0176 19.9933C79.0582 20.0538 79.0987 20.1144 79.1406 20.1768C79.2451 20.329 79.3572 20.476 79.4703 20.622C79.5366 20.622 79.603 20.622 79.6714 20.622C79.7068 20.7247 79.7068 20.7247 79.743 20.8295C79.9019 21.1917 80.1146 21.5048 80.3379 21.8291C80.4293 21.9647 80.5206 22.1004 80.6118 22.2362C80.657 22.3036 80.7023 22.371 80.749 22.4404C81.3813 23.3844 81.8888 24.3421 82.3639 25.3716C82.5706 25.8187 82.7917 26.2571 83.0162 26.6954C83.3027 27.2594 83.5501 27.8272 83.7656 28.4228C83.8823 28.7326 84.0085 29.0352 84.1381 29.3396C84.3875 29.9353 84.5959 30.5372 84.7892 31.1531C84.8232 31.2606 84.8572 31.3682 84.8923 31.4791C85.9031 34.7084 86.7599 38.0405 86.8137 41.4452C86.8158 41.5641 86.8178 41.6831 86.8199 41.8056C86.8626 44.557 86.626 47.1915 86.1095 49.8952C86.2814 49.7319 86.449 49.5639 86.6125 49.3922C86.6125 49.3259 86.6125 49.2595 86.6125 49.1911C86.6789 49.1911 86.7453 49.1911 86.8137 49.1911C87.1117 48.8256 87.1117 48.8256 87.2161 48.3863C87.2825 48.3863 87.3489 48.3863 87.4173 48.3863C87.5873 48.1356 87.7461 47.8852 87.9014 47.6255C88.1513 47.2123 88.399 46.8034 88.6857 46.4145C88.9222 46.0893 89.0988 45.7508 89.272 45.3873C89.473 44.9711 89.6822 44.5694 89.9322 44.1802C90.3264 43.5421 90.5827 42.8442 90.8576 42.149C90.9652 41.8807 91.0808 41.6161 91.1959 41.3509C92.3198 38.6462 92.993 35.7229 93.0506 32.794C93.0535 32.6948 93.0563 32.5956 93.0593 32.4934C93.1002 29.7952 92.5951 27.2533 91.7492 24.7024C91.7083 24.5786 91.6673 24.4547 91.6252 24.3271C91.2155 23.1169 90.735 21.9501 90.1082 20.8358C90.038 20.7094 90.038 20.7094 89.9664 20.5806C89.4539 19.6673 88.9035 18.7773 88.3226 17.9059C88.2562 17.9059 88.1898 17.9059 88.1214 17.9059C88.098 17.834 88.0745 17.762 88.0503 17.6878C87.8964 17.3507 87.703 17.1377 87.4487 16.8685C87.1572 16.5572 86.8681 16.2458 86.5937 15.9192C86.2304 15.5012 85.84 15.1105 85.4494 14.7183C85.3532 14.6214 85.3532 14.6214 85.255 14.5225C84.6544 13.8344 84.6544 13.8344 83.8964 13.4797C83.8964 13.4133 83.8964 13.347 83.8964 13.2785C83.7157 13.1204 83.5351 12.9757 83.3432 12.8322C83.2847 12.7879 83.2261 12.7436 83.1659 12.6979C82.4532 12.1637 81.7192 11.6614 80.9792 11.166C80.908 11.1181 80.8369 11.0702 80.7635 11.0208C79.8235 10.3898 78.8848 9.84098 77.8607 9.35533C77.617 9.23497 77.3743 9.11277 77.1314 8.99067C77.0145 8.93245 76.8975 8.87423 76.777 8.81424C76.5828 8.71667 76.3892 8.61781 76.197 8.51638C75.4381 8.11916 74.6419 7.83203 73.8369 7.54462C73.7332 7.50708 73.6294 7.46954 73.5226 7.43086C71.863 6.8323 70.2045 6.32139 68.4892 5.90469C68.2445 5.84455 68.0009 5.78166 67.7576 5.71622C66.1271 5.28398 64.4461 5.02118 62.7714 4.82855C62.6984 4.82 62.6253 4.81146 62.55 4.80266C58.5111 4.33841 54.335 4.37307 50.2976 4.82855ZM36.0823 9.23588C36.007 9.24464 35.9318 9.2534 35.8543 9.26242C34.5567 9.4141 33.2716 9.6069 31.9893 9.85831C31.907 9.87384 31.8248 9.88937 31.74 9.90536C30.6585 10.1101 29.6133 10.3858 28.5624 10.7122C28.0811 10.8614 27.5966 10.9962 27.1104 11.1283C26.1645 11.3876 25.2435 11.6769 24.3441 12.0714C24.1452 12.1474 23.946 12.2228 23.7468 12.2977C22.5846 12.744 21.4608 13.241 20.3667 13.8358C20.3024 13.8708 20.238 13.9058 20.1717 13.9418C20.1021 13.9797 20.0325 14.0175 19.9608 14.0565C19.7787 14.1515 19.5944 14.2423 19.4091 14.3307C18.5078 14.7631 17.6831 15.2716 16.8556 15.8315C16.6427 15.9754 16.4289 16.118 16.2149 16.2605C15.5413 16.711 14.8774 17.1724 14.2315 17.6619C14.1755 17.7039 14.1195 17.7458 14.0618 17.789C13.9308 17.8901 13.8052 17.998 13.681 18.1071C13.681 18.1735 13.681 18.2399 13.681 18.3083C13.6245 18.3327 13.5681 18.3571 13.51 18.3822C13.2322 18.535 13.0271 18.7217 12.7945 18.937C12.4876 19.2193 12.1793 19.4954 11.8577 19.7607C11.7622 19.8457 11.6668 19.9308 11.5685 20.0184C11.5685 20.0848 11.5685 20.1512 11.5685 20.2196C11.5021 20.2196 11.4357 20.2196 11.3673 20.2196C11.3673 20.286 11.3673 20.3524 11.3673 20.4208C11.3009 20.4208 11.2345 20.4208 11.1661 20.4208C10.9908 20.5864 10.9908 20.5864 10.814 20.798C10.7528 20.8681 10.6916 20.9381 10.6285 21.0102C10.474 21.2099 10.3641 21.3985 10.2607 21.628C10.1943 21.628 10.1279 21.628 10.0595 21.628C9.90818 21.809 9.76487 21.9969 9.62571 22.1875C9.58539 22.2425 9.54507 22.2976 9.50353 22.3543C9.38658 22.5142 9.27036 22.6746 9.15417 22.8351C9.09763 22.911 9.0411 22.9868 8.98285 23.065C8.73298 23.3704 8.73298 23.3704 8.6512 23.7405C8.5848 23.7405 8.51841 23.7405 8.45001 23.7405C8.41681 23.8732 8.38361 24.006 8.34941 24.1428C8.28302 24.1428 8.21662 24.1428 8.14822 24.1428C8.01329 24.3708 7.87931 24.5993 7.74584 24.8281C7.70746 24.8928 7.66907 24.9574 7.62953 25.024C7.40061 25.4124 7.40061 25.4124 7.34346 25.853C7.27706 25.853 7.21067 25.853 7.14227 25.853C7.09727 25.9563 7.05227 26.0597 7.00591 26.1661C6.9445 26.307 6.88307 26.4478 6.82162 26.5886C6.78948 26.6623 6.75733 26.7359 6.72422 26.8119C6.54507 27.2215 6.36237 27.6291 6.17404 28.0346C6.09384 28.2125 6.0142 28.3906 5.93512 28.569C5.87502 28.7027 5.87502 28.7027 5.8137 28.839C5.18055 30.3525 4.79913 32.0689 4.62739 33.6994C4.61085 33.8525 4.61085 33.8525 4.59398 34.0086C4.35524 36.6986 4.32212 39.997 5.63334 42.4512C5.69973 42.4512 5.76612 42.4512 5.83453 42.4512C5.85815 42.3988 5.88178 42.3464 5.90612 42.2924C6.83422 40.2502 7.93993 38.3338 9.25477 36.5161C9.33218 36.4089 9.4096 36.3018 9.48936 36.1915C9.96066 35.5526 10.4597 34.944 10.9779 34.343C11.1867 34.1263 11.1867 34.1263 11.1661 33.9006C11.2325 33.9006 11.2989 33.9006 11.3673 33.9006C11.6716 33.5932 11.6716 33.5932 11.7696 33.1964C11.836 33.1964 11.9024 33.1964 11.9708 33.1964C11.9708 33.13 11.9708 33.0636 11.9708 32.9952C12.0372 32.9952 12.1036 32.9952 12.172 32.9952C12.3058 32.8629 12.3058 32.8629 12.4487 32.6809C12.8166 32.2473 13.2101 31.8443 13.6118 31.4423C13.6745 31.3792 13.7371 31.3161 13.8017 31.2511C13.861 31.1919 13.9204 31.1327 13.9816 31.0717C14.035 31.0184 14.0885 30.965 14.1436 30.9101C14.2845 30.7821 14.2845 30.7821 14.4857 30.6815C14.4857 30.6151 14.4857 30.5487 14.4857 30.4803C14.5521 30.4803 14.6185 30.4803 14.6869 30.4803C14.6869 30.4139 14.6869 30.3476 14.6869 30.2791C14.7772 30.2356 14.7772 30.2356 14.8692 30.1911C15.1087 30.0732 15.1087 30.0732 15.3911 29.8768C15.3911 29.8104 15.3911 29.744 15.3911 29.6756C15.4782 29.6351 15.4782 29.6351 15.5671 29.5938C15.799 29.4714 15.9967 29.3433 16.1958 29.1726C16.1958 29.1062 16.1958 29.0398 16.1958 28.9714C16.2498 28.9465 16.3037 28.9216 16.3593 28.896C16.6568 28.7394 16.9299 28.5656 17.2018 28.3678C17.2018 28.3014 17.2018 28.2351 17.2018 28.1666C17.307 28.1311 17.307 28.1311 17.4144 28.0947C17.7608 27.9405 18.0275 27.7384 18.3272 27.5065C18.8963 27.0679 18.8963 27.0679 19.1131 26.9595C19.1131 26.8931 19.1131 26.8267 19.1131 26.7583C19.223 26.718 19.223 26.718 19.3351 26.6769C19.6135 26.5582 19.8393 26.4216 20.0884 26.2506C20.1771 26.1905 20.2658 26.1303 20.3572 26.0683C20.5398 25.9431 20.7224 25.8179 20.905 25.6926C21.4498 25.3231 22.001 24.9893 22.5822 24.68C22.7955 24.5663 23.0053 24.449 23.2139 24.3271C24.1853 23.7625 25.1863 23.2755 26.2027 22.7974C26.5946 22.6127 26.9813 22.4208 27.3655 22.2207C28.8988 21.425 30.5369 20.8072 32.1826 20.2874C32.4285 20.2077 32.6727 20.1236 32.917 20.0393C34.5014 19.4951 36.1029 19.0345 37.7232 18.6101C37.8041 18.5889 37.885 18.5676 37.9684 18.5457C41.4776 17.6391 45.1038 17.1413 48.7017 16.7603C48.7971 16.7501 48.8924 16.74 48.9906 16.7296C49.1702 16.7106 49.3499 16.6919 49.5295 16.6734C49.9254 16.6319 50.3101 16.5792 50.7 16.4976C57.5596 15.6804 66.8005 16.6242 72.8184 20.2955C73.0342 20.4463 73.0342 20.4463 73.3339 20.4208C73.3339 20.3544 73.3339 20.288 73.3339 20.2196C73.2675 20.2196 73.2012 20.2196 73.1328 20.2196C73.1077 20.1619 73.0827 20.1042 73.0569 20.0448C72.6452 19.2976 71.8351 18.7399 71.1802 18.2164C70.9516 18.0323 70.7307 17.8427 70.511 17.6482C70.2537 17.3815 70.2537 17.3815 70.0143 17.403C70.0143 17.3366 70.0143 17.2702 70.0143 17.2018C69.6488 16.9038 69.6488 16.9038 69.2095 16.7994C69.2095 16.733 69.2095 16.6666 69.2095 16.5982C68.9983 16.45 68.7893 16.3152 68.5682 16.1832C68.5076 16.1458 68.4469 16.1083 68.3843 16.0697C68.0654 15.8611 68.0654 15.8611 67.7006 15.7934C67.7006 15.727 67.7006 15.6606 67.7006 15.5922C66.1657 14.6958 64.6112 13.86 62.9777 13.1567C62.7016 13.0373 62.4329 12.9091 62.1651 12.772C61.777 12.5753 61.3816 12.416 60.9733 12.2663C60.9033 12.2403 60.8334 12.2144 60.7613 12.1876C60.3096 12.0218 59.8563 11.8706 59.3921 11.7433C59.1939 11.6825 58.9993 11.6103 58.8062 11.535C58.2017 11.3055 57.5777 11.1398 56.9558 10.9649C56.8343 10.9304 56.7129 10.8959 56.5878 10.8603C56.2349 10.7603 55.8818 10.6613 55.5286 10.5625C55.4335 10.5354 55.3385 10.5084 55.2406 10.4805C51.1377 9.32978 46.8643 8.93127 42.6177 8.93984C42.3006 8.94038 41.9835 8.93984 41.6665 8.9392C39.7935 8.93839 37.9424 9.01487 36.0823 9.23588ZM73.3339 20.4208C73.4003 20.4872 73.4667 20.5536 73.5351 20.622C73.5351 20.5556 73.5351 20.4892 73.5351 20.4208C73.4687 20.4208 73.4024 20.4208 73.3339 20.4208ZM50.197 21.125C50.002 21.1558 49.807 21.1864 49.6119 21.2169C47.5695 21.5453 45.6051 22.0348 43.6583 22.7345C43.5675 22.7671 43.4766 22.7997 43.3829 22.8333C42.2616 23.2392 41.1931 23.6867 40.1375 24.2434C39.9302 24.3465 39.7228 24.4492 39.5151 24.5515C38.9434 24.837 38.3825 25.1405 37.8238 25.4506C37.8238 25.517 37.8238 25.5834 37.8238 25.6518C37.7687 25.6614 37.7136 25.671 37.6568 25.6808C36.723 25.9646 35.8946 26.8079 35.1698 27.4401C34.9066 27.6637 34.9066 27.6637 34.7054 27.7643C34.7054 27.8307 34.7054 27.8971 34.7054 27.9655C34.639 27.9655 34.5726 27.9655 34.5042 27.9655C34.5042 28.0318 34.5042 28.0982 34.5042 28.1666C34.4466 28.1915 34.389 28.2164 34.3297 28.2421C33.5504 28.6721 32.8921 29.5578 32.3917 30.2791C32.3917 30.3455 32.3917 30.4119 32.3917 30.4803C32.3253 30.4803 32.2589 30.4803 32.1905 30.4803C32.0542 30.6456 32.0542 30.6456 31.9201 30.8639C31.8402 30.9881 31.8402 30.9881 31.7586 31.115C31.6736 31.249 31.6736 31.249 31.5869 31.3857C31.5292 31.474 31.4715 31.5623 31.4121 31.6533C30.8052 32.5885 30.2878 33.5152 29.9047 34.5643C29.8201 34.7897 29.7292 35.0128 29.632 35.2331C28.8856 36.941 28.4683 38.8797 28.3679 40.7411C28.3635 40.8212 28.359 40.9014 28.3545 40.984C28.1955 44.4599 29.1919 47.6078 30.6816 50.7C30.7479 50.7 30.8143 50.7 30.8827 50.7C30.8931 50.7539 30.9035 50.8079 30.9142 50.8634C31.0015 51.1652 31.1399 51.4281 31.2851 51.7059C31.3515 51.7059 31.4179 51.7059 31.4863 51.7059C31.5123 51.7779 31.5382 51.8499 31.5649 51.924C31.6949 52.2262 31.8513 52.474 32.0396 52.7433C32.1314 52.8766 32.1314 52.8766 32.2251 53.0125C32.28 53.0793 32.335 53.1461 32.3917 53.2149C32.4581 53.2149 32.5245 53.2149 32.5929 53.2149C32.6302 53.3238 32.6302 53.3238 32.6683 53.4349C32.8064 53.7456 32.9674 53.9703 33.1964 54.2208C33.2628 54.2208 33.3292 54.2208 33.3976 54.2208C33.3976 54.2872 33.3976 54.3536 33.3976 54.422C33.464 54.422 33.5304 54.422 33.5988 54.422C33.6227 54.4785 33.6465 54.5351 33.6711 54.5933C33.8291 54.8766 34.0228 55.0738 34.2527 55.3022C34.3326 55.3826 34.4124 55.463 34.4947 55.5458C34.684 55.7518 34.684 55.7518 34.9066 55.7297C34.9066 55.7961 34.9066 55.8625 34.9066 55.9309C34.9729 55.9309 35.0393 55.9309 35.1077 55.9309C35.1077 55.9973 35.1077 56.0637 35.1077 56.1321C35.1741 56.1321 35.2405 56.1321 35.3089 56.1321C35.3089 56.1985 35.3089 56.2649 35.3089 56.3333C35.4987 56.4879 35.6883 56.6317 35.8874 56.7734C36.2617 57.0438 36.5933 57.3145 36.9185 57.6411C37.1833 57.7672 37.1833 57.7672 37.4214 57.8422C37.4214 57.9086 37.4214 57.975 37.4214 58.0434C37.6696 58.2204 37.9179 58.3848 38.1759 58.5464C38.2538 58.5958 38.3316 58.6451 38.4118 58.696C38.5736 58.7984 38.7355 58.9005 38.8977 59.0023C39.107 59.1345 39.3148 59.2688 39.5222 59.4042C42.47 61.3146 46.2884 63.4246 49.8261 63.7837C49.9472 63.7961 49.9472 63.7961 50.0708 63.8088C51.9811 63.99 53.9127 64.0095 55.8304 63.9786C55.9802 63.9767 55.9802 63.9767 56.1331 63.9747C60.6236 63.906 65.0633 63.154 69.3019 61.6707C69.5093 61.5995 69.7177 61.5309 69.9269 61.465C70.5824 61.2577 71.163 61.0061 71.7559 60.6589C71.8309 60.6161 71.9059 60.5733 71.9832 60.5292C72.1993 60.4058 72.4145 60.2809 72.6298 60.1559C72.8643 60.0215 73.0991 59.8876 73.3339 59.7536C73.3339 59.6872 73.3339 59.6208 73.3339 59.5524C73.4522 59.5057 73.4522 59.5057 73.5729 59.4581C73.8292 59.3583 73.8292 59.3583 74.0381 59.2506C74.0381 59.1842 74.0381 59.1178 74.0381 59.0494C74.1533 59.0058 74.1533 59.0058 74.2707 58.9614C74.5562 58.852 74.5562 58.852 74.8429 58.647C74.8429 58.5806 74.8429 58.5142 74.8429 58.4458C74.8968 58.4209 74.9508 58.396 75.0063 58.3704C75.3038 58.2138 75.5769 58.04 75.8488 57.8422C75.8488 57.7759 75.8488 57.7095 75.8488 57.6411C75.9085 57.614 75.9682 57.587 76.0297 57.5591C76.2517 57.4396 76.3986 57.3184 76.5766 57.1412C76.6343 57.0838 76.692 57.0263 76.7514 56.9671C76.8104 56.9074 76.8694 56.8476 76.9302 56.786C76.9908 56.7262 77.0513 56.6664 77.1137 56.6048C77.1709 56.5474 77.2281 56.49 77.287 56.4308C77.3654 56.3521 77.3654 56.3521 77.4453 56.2718C77.5801 56.1361 77.5801 56.1361 77.5589 55.9309C77.6253 55.9309 77.6917 55.9309 77.7601 55.9309C77.7601 55.8645 77.7601 55.7982 77.7601 55.7297C77.8265 55.7297 77.8929 55.7297 77.9613 55.7297C78.2026 55.4645 78.2026 55.4645 78.2631 55.1262C78.3295 55.1262 78.3959 55.1262 78.4643 55.1262C78.6246 54.9304 78.6246 54.9304 78.7787 54.6861C78.8329 54.6044 78.8871 54.5227 78.9429 54.4385C79.0846 54.2336 79.0846 54.2336 79.0679 54.0196C79.1343 54.0196 79.2007 54.0196 79.2691 54.0196C79.3355 53.8204 79.4018 53.6213 79.4703 53.4161C79.5366 53.4161 79.603 53.4161 79.6714 53.4161C79.7153 53.3272 79.7591 53.2384 79.8043 53.1469C79.8647 53.0249 79.9253 52.903 79.9858 52.781C80.0178 52.7164 80.0497 52.6518 80.0826 52.5853C80.2706 52.2082 80.47 51.8429 80.6837 51.4796C81.6739 49.6814 82.215 47.2842 82.2201 45.2466C82.221 45.1422 82.2218 45.0377 82.2227 44.9301C82.2246 44.5942 82.2246 44.2583 82.224 43.9224C82.224 43.8076 82.2239 43.6928 82.2239 43.5745C82.22 41.7921 82.1483 40.0767 81.7839 38.3268C81.7524 38.1707 81.7524 38.1707 81.7202 38.0115C81.2866 35.9309 80.5577 33.9198 79.4703 32.0899C79.4061 31.9813 79.4061 31.9813 79.3406 31.8706C79.2051 31.6431 79.0678 31.4167 78.9296 31.1908C78.8864 31.1198 78.8432 31.0488 78.7987 30.9757C78.6929 30.8069 78.5793 30.643 78.4643 30.4803C78.3979 30.4803 78.3315 30.4803 78.2631 30.4803C78.2365 30.4229 78.2099 30.3654 78.1826 30.3063C77.447 28.9142 75.9208 27.5466 74.6417 26.6577C74.5753 26.6577 74.5089 26.6577 74.4405 26.6577C74.4405 26.5913 74.4405 26.5249 74.4405 26.4565C74.2292 26.3083 74.0202 26.1735 73.7992 26.0416C73.7082 25.9854 73.7082 25.9854 73.6153 25.928C73.2964 25.7194 73.2964 25.7194 72.9316 25.6518C72.9316 25.5854 72.9316 25.519 72.9316 25.4506C68.6142 23.0358 64.064 21.7049 59.1742 21.0669C58.9769 21.0412 58.7798 21.0148 58.5828 20.9873C55.85 20.6112 52.9115 20.6592 50.197 21.125ZM96.3703 24.1428C96.5099 24.8123 96.6506 25.4802 96.8229 26.1422C97.3307 28.1491 97.5167 30.1452 97.5082 32.2093C97.5079 32.3526 97.5079 32.3526 97.5076 32.4988C97.5025 33.8946 97.4533 35.2453 97.175 36.6166C97.155 36.7223 97.135 36.8279 97.1145 36.9368C96.5863 39.7166 95.782 42.4233 94.5507 44.9738C94.4579 45.1694 94.3692 45.3663 94.2813 45.5641C93.5348 47.2282 92.5871 48.8042 91.5417 50.2976C91.494 50.366 91.4464 50.4343 91.3973 50.5048C90.4327 51.888 90.4327 51.888 90.0972 52.2973C89.9116 52.4923 89.9116 52.4923 89.9322 52.7119C89.8658 52.7119 89.7994 52.7119 89.731 52.7119C89.6646 52.8779 89.5982 53.0439 89.5298 53.2149C89.4634 53.2149 89.397 53.2149 89.3286 53.2149C89.1298 53.4267 89.1298 53.4267 88.9262 53.6927C88.8557 53.7814 88.7851 53.8701 88.7124 53.9615C88.5547 54.1784 88.432 54.3795 88.3226 54.6232C88.2562 54.6232 88.1898 54.6232 88.1214 54.6232C88.1214 54.6896 88.1214 54.756 88.1214 54.8244C88.0551 54.8244 87.9887 54.8244 87.9203 54.8244C87.7865 54.9568 87.7865 54.9568 87.6436 55.1387C87.2757 55.5723 86.8821 55.9754 86.4805 56.3773C86.4178 56.4404 86.3552 56.5035 86.2906 56.5685C86.2312 56.6277 86.1719 56.6869 86.1107 56.7479C86.0573 56.8012 86.0038 56.8546 85.9487 56.9096C85.8078 57.0375 85.8078 57.0375 85.6066 57.1381C85.6066 57.2045 85.6066 57.2709 85.6066 57.3393C85.5518 57.362 85.4971 57.3847 85.4407 57.408C85.1301 57.5819 84.8979 57.8066 84.6383 58.0497C84.1172 58.5366 84.1172 58.5366 83.8964 58.647C83.8964 58.7134 83.8964 58.7798 83.8964 58.8482C83.83 58.8689 83.7637 58.8897 83.6953 58.9111C83.2857 59.0988 82.9219 59.3487 82.5887 59.653C82.5887 59.7194 82.5887 59.7857 82.5887 59.8542C82.5358 59.8784 82.4829 59.9026 82.4284 59.9276C82.1147 60.0931 81.8256 60.2905 81.5325 60.4892C78.7356 62.3663 78.7356 62.3663 77.5589 62.9726C77.4403 63.0367 77.3217 63.101 77.2033 63.1655C76.2501 63.6837 75.2786 64.1435 74.2865 64.5829C74.2069 64.6182 74.1273 64.6535 74.0453 64.6898C73.8902 64.7584 73.735 64.8268 73.5796 64.8949C73.0875 65.1118 72.6062 65.3443 72.1268 65.5881C72.4285 65.6785 72.6697 65.6933 72.9826 65.6651C73.0722 65.6573 73.1618 65.6494 73.2541 65.6414C73.351 65.6321 73.4479 65.6228 73.5477 65.6132C73.7006 65.5991 73.7006 65.5991 73.8566 65.5847C79.6427 65.0373 85.4815 63.9207 90.8807 61.7108C91.1858 61.5864 91.4923 61.4669 91.7997 61.3483C92.62 61.0293 93.4012 60.6485 94.1832 60.2455C94.4119 60.1286 94.6429 60.0167 94.8739 59.9044C95.5223 59.5803 96.1464 59.2127 96.7726 58.8482C96.8761 58.7892 96.9796 58.7302 97.0862 58.6694C97.1778 58.6164 97.2693 58.5633 97.3636 58.5087C97.4443 58.4623 97.5249 58.4158 97.608 58.368C97.6643 58.3273 97.7206 58.2866 97.7786 58.2446C97.7786 58.1782 97.7786 58.1118 97.7786 58.0434C97.9778 57.977 98.1769 57.9107 98.3822 57.8422C98.3822 57.7759 98.3822 57.7095 98.3822 57.6411C98.4521 57.6172 98.5219 57.5933 98.594 57.5688C98.9376 57.4166 99.2229 57.2133 99.5201 56.9872C99.5754 56.9466 99.6308 56.906 99.6877 56.8642C99.8267 56.7596 99.9601 56.6475 100.092 56.5345C100.092 56.4681 100.092 56.4017 100.092 56.3333C100.148 56.3084 100.203 56.2835 100.26 56.2579C100.54 56.1077 100.774 55.9272 101.023 55.7297C101.113 55.6592 101.202 55.5887 101.295 55.516C101.363 55.4537 101.431 55.3915 101.501 55.3274C101.501 55.261 101.501 55.1946 101.501 55.1262C101.567 55.1262 101.633 55.1262 101.702 55.1262C101.869 54.992 101.869 54.992 102.004 54.8244C102.004 54.758 102.004 54.6916 102.004 54.6232C102.07 54.6232 102.136 54.6232 102.205 54.6232C102.205 54.5568 102.205 54.4904 102.205 54.422C102.271 54.422 102.338 54.422 102.406 54.422C102.406 54.3556 102.406 54.2892 102.406 54.2208C102.472 54.2208 102.539 54.2208 102.607 54.2208C102.767 54.0485 102.919 53.869 103.066 53.6864C103.188 53.5376 103.188 53.5376 103.312 53.3858C103.526 53.125 103.526 53.125 103.613 52.8125C103.68 52.8125 103.746 52.8125 103.814 52.8125C103.979 52.6018 104.13 52.3922 104.28 52.1712C104.343 52.0802 104.343 52.0802 104.408 51.9873C104.643 51.674 104.643 51.674 104.72 51.3036C104.786 51.3036 104.852 51.3036 104.921 51.3036C105.387 50.6862 105.709 49.9468 106.047 49.2537C106.096 49.1548 106.096 49.1548 106.145 49.0539C106.187 48.9663 106.187 48.9663 106.231 48.877C106.329 48.6881 106.329 48.6881 106.477 48.453C108.264 45.3463 108.625 40.5919 107.763 37.1589C107.722 37.0115 107.68 36.8642 107.637 36.7172C107.616 36.6416 107.595 36.5659 107.573 36.488C107.111 34.8582 106.377 33.3531 105.48 31.9201C105.428 31.8363 105.376 31.7526 105.322 31.6663C105.132 31.367 105.132 31.367 104.921 31.0839C104.854 31.0839 104.788 31.0839 104.72 31.0839C104.694 31.0274 104.668 30.9708 104.642 30.9126C103.838 29.407 102.232 28.0862 100.897 27.0601C100.749 26.9418 100.749 26.9418 100.599 26.8212C98.6241 25.1143 98.6241 25.1143 96.3703 24.1428ZM28.6814 26.5249C28.607 26.5646 28.5326 26.6043 28.4559 26.6451C28.3684 26.691 28.2808 26.737 28.1906 26.7842C28.0831 26.8421 27.9756 26.8999 27.8649 26.9595C27.6427 27.0779 27.4203 27.196 27.1979 27.314C27.0446 27.3955 26.8914 27.4773 26.7384 27.5595C26.6673 27.5975 26.5962 27.6355 26.523 27.6747C26.4275 27.726 26.4275 27.726 26.3301 27.7783C26.1548 27.8649 26.1548 27.8649 25.853 27.9655C25.853 28.0318 25.853 28.0982 25.853 28.1666C25.7943 28.1792 25.7356 28.1917 25.6751 28.2046C25.4503 28.2673 25.279 28.3491 25.0769 28.4645C25.0079 28.5037 24.9388 28.5428 24.8677 28.5832C24.7965 28.6241 24.7254 28.6651 24.6521 28.7073C24.5814 28.7475 24.5107 28.7877 24.4378 28.8292C24.3006 28.9073 24.1636 28.986 24.027 29.0652C23.8653 29.1586 23.7022 29.2495 23.5389 29.34C23.4726 29.3843 23.4064 29.4287 23.3381 29.4744C23.3381 29.5408 23.3381 29.6072 23.3381 29.6756C23.2572 29.6963 23.1763 29.7171 23.0929 29.7384C22.6284 29.9177 22.2152 30.1646 21.8292 30.4803C21.8292 30.5467 21.8292 30.6131 21.8292 30.6815C21.7556 30.7088 21.6821 30.736 21.6064 30.764C20.9954 31.0228 20.4777 31.4142 20.0185 31.8887C19.8329 32.022 19.6449 32.1503 19.4542 32.2761C19.408 32.3142 19.3619 32.3524 19.3143 32.3916C19.3143 32.458 19.3143 32.5244 19.3143 32.5928C19.2567 32.6198 19.1991 32.6468 19.1398 32.6746C18.904 32.7982 18.6982 32.9374 18.4844 33.0958C18.3778 33.1736 18.3778 33.1736 18.269 33.253C18.2156 33.3007 18.1622 33.3484 18.1071 33.3976C18.1071 33.464 18.1071 33.5304 18.1071 33.5988C18.0408 33.5988 17.9744 33.5988 17.906 33.5988C17.906 33.6652 17.906 33.7316 17.906 33.8C17.849 33.8243 17.792 33.8486 17.7334 33.8737C17.4581 34.0264 17.2691 34.2096 17.0462 34.4318C16.9612 34.5165 16.8763 34.6012 16.7888 34.6884C16.6571 34.8213 16.6571 34.8213 16.5228 34.9568C16.4334 35.0454 16.3441 35.134 16.252 35.2252C16.1254 35.3522 16.1254 35.3522 15.9962 35.4818C15.88 35.5984 15.88 35.5984 15.7613 35.7174C15.5703 35.8948 15.5703 35.8948 15.5923 36.1137C15.5259 36.1137 15.4595 36.1137 15.3911 36.1137C15.2337 36.284 15.0839 36.4613 14.9384 36.6418C14.8585 36.7398 14.7786 36.8379 14.6963 36.9389C14.5272 37.1648 14.3971 37.3657 14.2845 37.6226C14.2181 37.6226 14.1517 37.6226 14.0833 37.6226C13.9508 37.7617 13.9508 37.7617 13.8216 37.9456C13.7724 38.0128 13.7231 38.0799 13.6723 38.1492C13.5957 38.2557 13.5957 38.2557 13.5175 38.3645C13.4656 38.4348 13.4138 38.5051 13.3603 38.5775C13.0774 38.9218 13.0774 38.9218 12.9768 39.3327C12.9104 39.3327 12.844 39.3327 12.7756 39.3327C12.6048 39.5621 12.4467 39.7909 12.2915 40.0306C12.2459 40.1 12.2004 40.1694 12.1534 40.241C11.8808 40.6599 11.6221 41.0823 11.3873 41.5238C11.2415 41.7936 11.0842 42.0557 10.9272 42.3191C9.79231 44.2678 9.01766 46.3097 8.45001 48.4869C8.40196 48.6651 8.40196 48.6651 8.35295 48.8468C7.30385 53.0015 8.34513 57.2228 10.4619 60.8601C10.7143 61.2671 10.9808 61.6636 11.2537 62.057C11.4679 62.369 11.4679 62.369 11.6349 62.6622C11.7016 62.766 11.7016 62.766 11.7696 62.872C11.836 62.872 11.9024 62.872 11.9708 62.872C11.9957 62.926 12.0206 62.9799 12.0463 63.0355C12.2029 63.333 12.3767 63.6061 12.5744 63.878C12.6408 63.878 12.7072 63.878 12.7756 63.878C12.8025 63.9372 12.8295 63.9964 12.8572 64.0573C12.9783 64.2831 13.1061 64.4426 13.2805 64.6293C13.3413 64.6945 13.4021 64.7597 13.4648 64.8269C13.5299 64.8955 13.595 64.9641 13.6621 65.0348C13.7288 65.1055 13.7956 65.1762 13.8643 65.249C14.3044 65.7106 14.7545 66.1595 15.2213 66.594C15.2761 66.6453 15.3308 66.6966 15.3873 66.7494C15.649 67.0164 15.649 67.0164 15.9946 67.097C15.9946 67.1634 15.9946 67.2298 15.9946 67.2982C16.061 67.2982 16.1274 67.2982 16.1958 67.2982C16.1958 67.3646 16.1958 67.431 16.1958 67.4994C16.3684 67.6592 16.3684 67.6592 16.5856 67.8138C16.6942 67.8951 16.6942 67.8951 16.8049 67.978C16.9902 68.121 16.9902 68.121 17.2018 68.103C17.2018 68.1694 17.2018 68.2357 17.2018 68.3042C17.4125 68.4686 17.6221 68.6202 17.8431 68.7694C17.9038 68.8117 17.9645 68.854 18.027 68.8975C18.3402 69.1324 18.3402 69.1324 18.7107 69.2095C18.7107 69.2759 18.7107 69.3423 18.7107 69.4107C18.9099 69.4771 19.1091 69.5435 19.3143 69.6119C19.3143 69.6783 19.3143 69.7447 19.3143 69.8131C19.5493 69.9727 19.5493 69.9727 19.8487 70.1337C20.2663 70.3697 20.6738 70.6123 21.0747 70.8756C21.5358 71.1718 22.0072 71.4204 22.5003 71.6588C22.7421 71.7788 22.978 71.9017 23.2139 72.0321C24.1159 72.5284 25.0293 72.947 25.9875 73.3244C26.4679 73.5139 26.9298 73.7172 27.389 73.9534C27.611 74.0614 27.834 74.132 28.0724 74.1953C28.424 74.2895 28.747 74.415 29.0804 74.5611C29.4253 74.7052 29.7797 74.8204 30.1346 74.9372C30.213 74.963 30.2915 74.9889 30.3723 75.0156C31.581 75.5143 31.581 75.5143 32.7941 75.547C32.745 75.5121 32.6959 75.4773 32.6454 75.4413C31.7658 74.8147 30.8944 74.1905 30.0748 73.486C29.8918 73.3135 29.8918 73.3135 29.6756 73.3339C29.6756 73.2675 29.6756 73.2011 29.6756 73.1327C29.5295 73.0043 29.5295 73.0043 29.3361 72.875C28.5715 72.3197 27.8979 71.6653 27.237 70.9923C27.0234 70.7831 26.7918 70.6015 26.5572 70.4167C26.524 70.3503 26.4908 70.2839 26.4566 70.2155C26.3902 70.2155 26.3238 70.2155 26.2554 70.2155C26.2554 70.1491 26.2554 70.0827 26.2554 70.0143C26.189 70.0143 26.1226 70.0143 26.0542 70.0143C26.0542 69.9479 26.0542 69.8815 26.0542 69.8131C25.9878 69.8131 25.9214 69.8131 25.853 69.8131C25.853 69.7467 25.853 69.6803 25.853 69.6119C25.7866 69.6119 25.7202 69.6119 25.6518 69.6119C25.6227 69.5517 25.5937 69.4916 25.5638 69.4296C25.4458 69.1901 25.4458 69.1901 25.2494 68.9077C25.183 68.9077 25.1166 68.9077 25.0482 68.9077C25.0253 68.8537 25.0023 68.7996 24.9787 68.7439C24.8068 68.4325 24.5819 68.1757 24.3503 67.9081C24.1007 67.6192 23.8651 67.3392 23.6709 67.0086C23.6275 66.9382 23.584 66.8678 23.5393 66.7952C23.4729 66.7952 23.4065 66.7952 23.3381 66.7952C23.3163 66.7292 23.2945 66.6632 23.2721 66.5952C23.0892 66.1852 22.8384 65.837 22.5836 65.4686C21.165 63.3707 19.9985 61.0728 19.2724 58.6416C19.218 58.4601 19.1604 58.2796 19.1025 58.0992C17.581 53.1677 18.0795 47.7861 19.5155 42.9039C19.5393 42.8221 19.5632 42.7403 19.5877 42.656C19.7333 42.1743 19.9118 41.7241 20.1221 41.2672C20.2501 40.9729 20.3472 40.6723 20.4454 40.367C20.8872 39.0325 21.4787 37.7586 22.131 36.5161C22.2032 36.3762 22.2753 36.2363 22.3475 36.0964C23.014 34.8121 23.7117 33.5301 24.5492 32.348C24.6634 32.1927 24.6634 32.1927 24.6458 31.9893C24.7122 31.9893 24.7786 31.9893 24.847 31.9893C24.9622 31.8202 24.9622 31.8202 25.0797 31.5932C25.3839 31.0673 25.735 30.5902 26.1045 30.1094C26.1594 30.0378 26.2143 29.9661 26.2708 29.8923C26.5849 29.4863 26.9087 29.0942 27.2529 28.7133C27.3821 28.5724 27.3821 28.5724 27.3619 28.3678C27.4283 28.3678 27.4947 28.3678 27.5631 28.3678C27.7094 28.2031 27.8486 28.0321 27.9843 27.8586C28.3555 27.3937 28.7399 26.9648 29.1726 26.5571C28.8889 26.4279 28.8889 26.4279 28.6814 26.5249ZM23.8411 44.2619C23.4383 45.5213 23.1528 46.7805 22.9357 48.0845C22.9128 48.2146 22.8898 48.3446 22.8662 48.4786C22.4 51.6246 22.7544 54.8343 23.7405 57.8422C23.7635 57.9136 23.7866 57.9849 23.8103 58.0584C24.1949 59.2257 24.7552 60.2907 25.35 61.3631C25.4113 61.4753 25.4727 61.5874 25.5359 61.703C25.9533 62.4441 26.4392 63.1265 26.9403 63.8121C27.1768 64.1405 27.401 64.4776 27.626 64.814C27.6944 64.8984 27.6944 64.8984 27.7643 64.9845C27.8307 64.9845 27.8971 64.9845 27.9655 64.9845C27.9904 65.04 28.0153 65.0955 28.0409 65.1527C28.1911 65.4323 28.3716 65.6667 28.5691 65.915C28.6396 66.0048 28.7101 66.0945 28.7828 66.1869C28.8451 66.2549 28.9073 66.3228 28.9714 66.3928C29.0378 66.3928 29.1042 66.3928 29.1726 66.3928C29.1726 66.4592 29.1726 66.5256 29.1726 66.594C29.3068 66.7617 29.3068 66.7617 29.4744 66.8958C29.5408 66.8958 29.6072 66.8958 29.6756 66.8958C29.6756 66.9622 29.6756 67.0286 29.6756 67.097C29.742 67.097 29.8084 67.097 29.8768 67.097C29.8768 67.1634 29.8768 67.2298 29.8768 67.2982C29.9432 67.2982 30.0096 67.2982 30.078 67.2982C30.078 67.3646 30.078 67.431 30.078 67.4994C30.1444 67.4994 30.2108 67.4994 30.2792 67.4994C30.2792 67.5658 30.2792 67.6322 30.2792 67.7006C30.3456 67.7006 30.412 67.7006 30.4804 67.7006C30.4804 67.767 30.4804 67.8334 30.4804 67.9018C30.5468 67.9018 30.6132 67.9018 30.6816 67.9018C30.6816 67.9682 30.6816 68.0346 30.6816 68.103C30.7479 68.103 30.8143 68.103 30.8827 68.103C30.8827 68.1694 30.8827 68.2357 30.8827 68.3042C30.9491 68.3042 31.0155 68.3042 31.0839 68.3042C31.0839 68.3705 31.0839 68.4369 31.0839 68.5053C31.2584 68.6669 31.4399 68.821 31.6246 68.9706C31.725 69.0528 31.8254 69.135 31.9288 69.2197C32.1636 69.4305 32.1636 69.4305 32.3917 69.4107C32.3917 69.4771 32.3917 69.5435 32.3917 69.6119C32.5642 69.7717 32.5642 69.7717 32.7815 69.9263C32.89 70.0076 32.89 70.0076 33.0007 70.0905C33.186 70.2335 33.186 70.2335 33.3976 70.2155C33.3976 70.2819 33.3976 70.3483 33.3976 70.4167C33.5912 70.5729 33.7844 70.7155 33.9886 70.8568C34.0513 70.9007 34.1141 70.9447 34.1787 70.99C34.3871 71.1352 34.5964 71.2791 34.806 71.4226C34.8775 71.4718 34.9491 71.521 35.0228 71.5716C36.0413 72.2688 37.0801 72.917 38.1498 73.5323C38.3716 73.6619 38.5877 73.7998 38.8046 73.9375C40.8856 75.1861 43.2742 76.1741 45.5697 76.9553C45.655 76.9844 45.7403 77.0135 45.8282 77.0435C51.5656 78.9776 57.3198 79.8561 63.375 79.772C63.4728 79.7708 63.5706 79.7695 63.6714 79.7682C67.8248 79.6967 71.9009 78.8373 75.8363 77.5463C75.9806 77.4992 75.9806 77.4992 76.1278 77.4511C76.7071 77.2561 77.2607 77.028 77.8138 76.7677C78.0489 76.6596 78.2855 76.5634 78.5272 76.4712C79.8706 75.9398 81.1432 75.2716 82.3875 74.5411C82.4957 74.4783 82.6038 74.4155 82.7152 74.3509C83.6152 73.8141 84.4567 73.2007 85.2992 72.5789C85.437 72.4787 85.5762 72.3804 85.7167 72.2841C85.8844 72.1691 86.0477 72.0479 86.2101 71.9256C86.2101 71.8592 86.2101 71.7928 86.2101 71.7244C86.2682 71.6974 86.3263 71.6704 86.3862 71.6427C86.6181 71.5203 86.8158 71.3921 87.0149 71.2214C87.0149 71.155 87.0149 71.0886 87.0149 71.0202C87.0709 70.9953 87.1269 70.9704 87.1847 70.9448C87.4599 70.796 87.6865 70.6244 87.9203 70.4167C87.9203 70.3503 87.9203 70.2839 87.9203 70.2155C87.9866 70.2155 88.053 70.2155 88.1214 70.2155C88.1214 70.1491 88.1214 70.0827 88.1214 70.0143C88.1878 70.0143 88.2542 70.0143 88.3226 70.0143C88.3226 69.9479 88.3226 69.8815 88.3226 69.8131C88.389 69.8131 88.4554 69.8131 88.5238 69.8131C88.5238 69.7467 88.5238 69.6803 88.5238 69.6119C88.5902 69.6119 88.6566 69.6119 88.725 69.6119C88.725 69.5455 88.725 69.4791 88.725 69.4107C88.7914 69.4107 88.8578 69.4107 88.9262 69.4107C88.9262 69.3443 88.9262 69.2779 88.9262 69.2095C88.9926 69.2095 89.059 69.2095 89.1274 69.2095C89.282 69.0606 89.282 69.0606 89.4418 68.8637C89.7806 68.4635 90.1304 68.0751 90.485 67.6888C90.6573 67.5136 90.6573 67.5136 90.6363 67.2982C90.7027 67.2982 90.7691 67.2982 90.8375 67.2982C90.9974 67.0952 90.9974 67.0952 91.1519 66.8455C91.2061 66.7615 91.2603 66.6775 91.3161 66.5909C91.378 66.4929 91.378 66.4929 91.4411 66.3928C90.872 66.5591 90.3087 66.7356 89.7489 66.9307C88.3953 67.3995 87.0156 67.7623 85.6295 68.1195C85.3738 68.1857 85.1187 68.2533 84.8639 68.3226C81.8568 69.119 78.7222 69.5837 75.6351 69.9325C75.5661 69.9405 75.4972 69.9484 75.4262 69.9566C72.92 70.2415 70.42 70.3501 67.8998 70.3423C67.5299 70.3411 67.1599 70.3418 66.79 70.343C64.1766 70.3499 61.5861 70.2031 58.9865 69.9263C58.863 69.9132 58.863 69.9132 58.7369 69.9C53.2385 69.3182 47.6509 68.4245 42.5975 66.1026C42.389 66.0079 42.1799 65.9172 41.9683 65.8297C39.6574 64.8658 37.4298 63.5519 35.3941 62.0975C35.0807 61.8491 35.0807 61.8491 34.7054 61.7655C34.7054 61.6991 34.7054 61.6327 34.7054 61.5643C34.3399 61.2663 34.3399 61.2663 33.9006 61.1619C33.9006 61.0955 33.9006 61.0291 33.9006 60.9607C33.7346 60.8943 33.5686 60.8279 33.3976 60.7595C33.3976 60.6931 33.3976 60.6267 33.3976 60.5583C33.2183 60.4002 33.2183 60.4002 32.989 60.2377C32.6159 59.9561 32.2877 59.6615 31.9638 59.3256C31.7789 59.1408 31.5852 58.973 31.3857 58.8042C31.0258 58.4961 30.7238 58.1591 30.4246 57.7923C30.3766 57.7424 30.3286 57.6925 30.2792 57.6411C30.2128 57.6411 30.1464 57.6411 30.078 57.6411C30.0489 57.5809 30.0199 57.5207 29.99 57.4587C29.872 57.2192 29.872 57.2192 29.6756 56.9369C29.6092 56.9369 29.5428 56.9369 29.4744 56.9369C29.4494 56.8807 29.4244 56.8246 29.3986 56.7667C29.2519 56.495 29.074 56.2757 28.8771 56.0378C28.6632 55.7791 28.4729 55.5362 28.3046 55.2452C28.2591 55.1728 28.2136 55.1003 28.1667 55.0256C28.1003 55.0256 28.0339 55.0256 27.9655 55.0256C27.8991 54.8264 27.8327 54.6272 27.7643 54.422C27.6979 54.422 27.6315 54.422 27.5631 54.422C27.5374 54.3346 27.5118 54.2472 27.4853 54.1572C27.3581 53.808 27.1999 53.5382 26.9973 53.2274C26.1321 51.8557 25.546 50.4295 25.0482 48.8893C25.0215 48.8089 24.9948 48.7285 24.9673 48.6457C24.4919 47.2097 24.2033 45.7502 23.9417 44.2619C23.9085 44.2619 23.8753 44.2619 23.8411 44.2619Z" fill="#E8E8E8"/>
<path d="M312.46 24.3441C315.581 24.3441 318.701 24.3441 321.916 24.3441C322.16 25.0748 322.39 25.7828 322.576 26.5257C322.773 27.2963 322.975 28.0653 323.182 28.8331C323.217 28.9619 323.217 28.9619 323.252 29.0932C323.3 29.2707 323.348 29.4481 323.396 29.6255C323.746 30.9222 324.091 32.2191 324.412 33.5234C324.621 34.3718 324.843 35.2136 325.088 36.0525C325.342 36.9293 325.582 37.81 325.82 38.6915C325.853 38.8103 325.853 38.8103 325.885 38.9315C326.208 40.1256 326.52 41.3221 326.826 42.5204C327.179 43.9027 327.179 43.9027 327.549 45.2804C327.569 45.3525 327.589 45.4246 327.609 45.4988C327.68 45.8119 327.68 45.8119 327.851 46.0726C328.123 45.3417 328.375 44.6115 328.588 43.8615C328.816 43.0724 329.076 42.2971 329.348 41.522C329.795 40.2461 330.218 38.9645 330.618 37.6729C330.991 36.4665 331.386 35.2696 331.8 34.0766C332.156 33.0485 332.5 32.0202 332.808 30.9764C333.262 29.4574 333.785 27.9591 334.289 26.4566C334.522 25.7594 334.754 25.0623 334.994 24.3441C337.384 24.3441 339.774 24.3441 342.236 24.3441C342.576 25.1361 342.576 25.1361 342.684 25.4726C342.709 25.5485 342.733 25.6245 342.759 25.7027C342.797 25.8234 342.797 25.8234 342.837 25.9465C342.865 26.0325 342.892 26.1185 342.921 26.2071C342.981 26.3914 343.04 26.5758 343.1 26.7601C343.257 27.2493 343.416 27.738 343.574 28.2268C343.622 28.3739 343.622 28.3739 343.67 28.5239C343.951 29.3892 344.236 30.2527 344.525 31.1154C344.547 31.1816 344.569 31.2479 344.592 31.3162C344.745 31.7753 344.899 32.2344 345.053 32.6935C345.214 33.1734 345.374 33.6533 345.535 34.1334C345.597 34.3198 345.66 34.5062 345.722 34.6925C345.907 35.2456 346.088 35.7994 346.257 36.3573C346.479 37.0855 346.721 37.8068 346.964 38.528C347.985 41.5613 347.985 41.5613 348.303 42.6866C348.461 43.2387 348.659 43.7712 348.865 44.3069C349.379 45.6444 349.379 45.6444 349.379 46.1732C349.445 46.1732 349.511 46.1732 349.58 46.1732C349.595 46.0911 349.609 46.0091 349.625 45.9245C349.935 44.2849 350.378 42.6795 350.869 41.0857C351.076 40.4054 351.245 39.7192 351.399 39.0252C351.522 38.4828 351.67 37.9506 351.83 37.4179C352.118 36.4535 352.365 35.4802 352.611 34.5042C352.824 33.6556 353.05 32.8165 353.313 31.9815C353.445 31.5463 353.548 31.1061 353.648 30.6627C353.815 29.942 353.995 29.2277 354.198 28.5161C354.341 28.0103 354.478 27.503 354.612 26.9945C354.63 26.9266 354.648 26.8588 354.666 26.7889C354.739 26.5136 354.811 26.2384 354.883 25.963C354.933 25.7693 354.984 25.5758 355.035 25.3822C355.079 25.213 355.079 25.213 355.124 25.0404C355.213 24.7464 355.213 24.7464 355.414 24.3441C358.502 24.3441 361.589 24.3441 364.77 24.3441C364.77 24.8754 364.736 25.1071 364.562 25.5826C364.326 26.2544 364.128 26.9331 363.94 27.6197C363.675 28.581 363.397 29.5381 363.11 30.4929C363.081 30.5889 363.081 30.5889 363.052 30.6868C362.859 31.3272 362.664 31.9672 362.468 32.6066C362.17 33.5755 361.883 34.5456 361.614 35.5227C361.255 36.8212 360.854 38.1055 360.451 39.3908C360.048 40.6783 359.659 41.968 359.3 43.2685C358.941 44.567 358.541 45.8514 358.138 47.1366C357.698 48.5418 357.279 49.9509 356.886 51.3698C356.449 52.9368 355.963 54.4874 355.464 56.0355C355.246 56.7185 355.048 57.4057 354.862 58.0982C354.719 58.6289 354.719 58.6289 354.61 58.8482C351.522 58.8482 348.435 58.8482 345.254 58.8482C344.889 57.7528 344.524 56.6573 344.148 55.5286C343.89 54.7925 343.89 54.7925 343.631 54.057C343.357 53.2735 343.098 52.4845 342.837 51.6966C342.512 50.7163 342.18 49.7389 341.84 48.7636C341.388 47.4649 340.963 46.158 340.546 44.8477C340.3 44.0782 340.039 43.3211 339.743 42.569C339.523 41.9938 339.335 41.408 339.143 40.8228C339.064 40.5824 338.985 40.3421 338.906 40.1018C338.872 39.9973 338.837 39.8929 338.802 39.7854C338.723 39.5381 338.723 39.5381 338.615 39.3327C338.578 39.4462 338.542 39.5597 338.504 39.6766C338.366 40.1057 338.228 40.5346 338.089 40.9635C338.03 41.1476 337.971 41.3318 337.911 41.516C337.604 42.4732 337.289 43.4238 336.928 44.3625C336.637 45.1294 336.389 45.9105 336.14 46.6918C335.997 47.1388 335.852 47.5853 335.708 48.0319C335.666 48.161 335.666 48.161 335.623 48.2927C335.413 48.9398 335.195 49.5834 334.967 50.2243C334.656 51.0971 334.357 51.9737 334.057 52.8502C334.028 52.9327 334 53.0151 333.971 53.1C333.674 53.9679 333.379 54.8363 333.09 55.707C333.067 55.7758 333.044 55.8446 333.021 55.9155C332.915 56.2352 332.809 56.555 332.705 56.875C332.649 57.0449 332.649 57.0449 332.591 57.2183C332.56 57.3151 332.528 57.4119 332.495 57.5117C332.335 57.9622 332.153 58.4044 331.976 58.8482C328.922 58.8482 325.868 58.8482 322.721 58.8482C322.269 57.7178 322.269 57.7178 322.15 57.2753C322.123 57.1769 322.096 57.0785 322.069 56.9771C322.027 56.8234 322.027 56.8234 321.985 56.6666C321.624 55.3489 321.232 54.0421 320.824 52.7382C320.442 51.5117 320.09 50.2767 319.732 49.0431C319.19 47.1731 318.631 45.3085 318.047 43.4509C317.692 42.3183 317.354 41.1826 317.039 40.0381C316.827 39.2724 316.601 38.5122 316.367 37.7529C316.074 36.799 315.793 35.8415 315.513 34.8838C315.222 33.8906 314.925 32.8997 314.62 31.9106C314.406 31.2087 314.208 30.5027 314.013 29.7951C313.792 28.9946 313.555 28.2044 313.286 27.4187C313.088 26.8372 312.903 26.2522 312.724 25.6644C312.698 25.5787 312.671 25.4931 312.644 25.4049C312.62 25.3248 312.596 25.2447 312.571 25.1622C312.55 25.0915 312.528 25.0209 312.506 24.9481C312.46 24.7464 312.46 24.7464 312.46 24.3441Z" fill="#E8E8E8"/>
<path d="M130.081 24.3441C133.334 24.3441 136.587 24.3441 139.939 24.3441C141.057 27.0266 141.057 27.0266 141.324 27.8256C141.472 28.2321 141.639 28.6288 141.806 29.0274C142.048 29.6044 142.284 30.1836 142.52 30.7628C142.577 30.9012 142.633 31.0394 142.69 31.1776C143.028 32.0027 143.347 32.8302 143.642 33.6717C143.79 34.0786 143.955 34.4762 144.124 34.8745C144.394 35.514 144.653 36.158 144.914 36.8012C144.98 36.9625 145.046 37.1238 145.111 37.285C145.502 38.244 145.883 39.2054 146.241 40.1768C146.477 40.8052 146.73 41.4267 146.981 42.0488C147.048 42.2164 147.115 42.3841 147.182 42.5518C147.213 42.6288 147.244 42.7059 147.276 42.7852C147.362 43.0025 147.449 43.22 147.535 43.4375C147.562 43.5051 147.589 43.5726 147.616 43.6422C147.669 43.7758 147.722 43.9094 147.775 44.043C147.9 44.358 148.03 44.6662 148.188 44.9661C148.219 44.8857 148.249 44.8053 148.28 44.7225C148.323 44.612 148.365 44.5015 148.408 44.3877C148.449 44.2803 148.49 44.1729 148.532 44.0623C148.652 43.7527 148.779 43.4461 148.907 43.1397C149.254 42.3101 149.592 41.4768 149.929 40.6434C150.042 40.3657 150.155 40.0882 150.268 39.8106C150.653 38.8611 151.029 37.9097 151.381 36.9476C151.531 36.5548 151.706 36.1774 151.884 35.7968C152.029 35.4681 152.154 35.1337 152.278 34.7965C152.673 33.7324 153.099 32.6815 153.524 31.629C153.92 30.6458 154.31 29.6619 154.675 28.6665C154.881 28.1264 155.108 27.594 155.33 27.0601C155.696 26.1638 156.061 25.2675 156.437 24.3441C159.69 24.3441 162.943 24.3441 166.295 24.3441C166.108 24.9071 165.919 25.4557 165.696 26.0031C165.668 26.0706 165.641 26.1382 165.613 26.2078C165.555 26.3493 165.497 26.4908 165.44 26.6323C165.353 26.8451 165.266 27.0581 165.18 27.2711C164.897 27.9678 164.607 28.6591 164.289 29.3409C164.179 29.584 164.079 29.8295 163.982 30.078C163.851 30.4101 163.712 30.7346 163.561 31.058C163.207 31.8326 162.889 32.6218 162.567 33.4102C162.444 33.7102 162.322 34.0102 162.199 34.3101C162.155 34.4169 162.155 34.4169 162.11 34.5259C161.931 34.9623 161.745 35.3949 161.55 35.8249C161.362 36.2491 161.199 36.6837 161.03 37.1157C160.905 37.4269 160.769 37.7314 160.629 38.036C160.328 38.6914 160.055 39.3573 159.782 40.0243C159.414 40.9202 159.041 41.8137 158.656 42.7027C158.378 43.3452 158.112 43.9885 157.872 44.6462C157.762 44.9234 157.643 45.1922 157.518 45.4632C157.201 46.1563 156.907 46.8592 156.613 47.5627C156.555 47.7007 156.497 47.8386 156.44 47.9766C156.099 48.7905 155.763 49.6061 155.431 50.4234C155.145 51.1269 154.849 51.8234 154.526 52.5107C154.265 53.0676 154.016 53.6241 153.8 54.2C153.516 54.9437 153.209 55.6765 152.897 56.4088C152.802 56.6309 152.708 56.8532 152.614 57.0754C152.553 57.2188 152.492 57.3622 152.431 57.5055C152.404 57.5709 152.376 57.6363 152.347 57.7037C152.181 58.094 152 58.4676 151.81 58.8482C149.386 58.8482 146.963 58.8482 144.466 58.8482C144.167 58.1179 143.869 57.3876 143.561 56.6351C143.376 56.2249 143.376 56.2249 143.188 55.8162C142.664 54.6611 142.196 53.4808 141.729 52.302C141.525 51.7901 141.307 51.2886 141.073 50.7896C140.902 50.4001 140.751 50.0035 140.599 49.606C140.35 48.9542 140.078 48.3212 139.779 47.6904C139.589 47.2745 139.429 46.8498 139.272 46.4208C139.159 46.1339 139.037 45.8561 138.909 45.5759C138.612 44.9305 138.337 44.2771 138.063 43.6221C137.978 43.4203 137.893 43.2187 137.808 43.0171C137.503 42.2894 137.209 41.5593 136.932 40.8198C136.791 40.4646 136.618 40.1307 136.442 39.7913C136.307 39.5112 136.197 39.2282 136.088 38.9367C135.816 38.2212 135.517 37.5197 135.211 36.8179C134.862 36.015 134.525 35.211 134.218 34.3912C134.072 34.017 133.903 33.6555 133.734 33.2915C133.579 32.9451 133.439 32.5937 133.3 32.2408C133.089 31.7069 132.865 31.1824 132.624 30.6615C132.269 29.8843 131.936 29.0981 131.634 28.2987C131.483 27.8998 131.323 27.5099 131.144 27.123C130.938 26.6792 130.748 26.2311 130.565 25.7775C130.516 25.6556 130.467 25.5338 130.416 25.4082C130.286 25.0596 130.183 24.7016 130.081 24.3441Z" fill="#E8E8E8"/>
<path d="M376.508 34.6681C376.751 34.6677 376.993 34.664 377.236 34.6602C379.287 34.6453 381.081 35.2515 382.776 36.4155C382.876 36.4819 382.975 36.5483 383.078 36.6167C383.078 36.6831 383.078 36.7495 383.078 36.8179C383.134 36.8428 383.19 36.8677 383.248 36.8933C383.521 37.0407 383.744 37.2258 383.983 37.4214C383.983 37.361 383.982 37.3006 383.982 37.2384C383.98 36.9662 383.978 36.694 383.977 36.4218C383.976 36.3267 383.975 36.2315 383.975 36.1335C383.974 36.0431 383.974 35.9527 383.974 35.8595C383.973 35.7757 383.973 35.6919 383.972 35.6056C383.983 35.4095 383.983 35.4095 384.084 35.3089C386.839 35.3089 389.595 35.3089 392.433 35.3089C392.433 43.0769 392.433 50.8449 392.433 58.8482C389.645 58.8482 386.856 58.8482 383.983 58.8482C383.95 58.1511 383.917 57.454 383.883 56.7357C383.816 56.7357 383.75 56.7357 383.682 56.7357C383.682 56.8021 383.682 56.8685 383.682 56.9369C383.615 56.9369 383.549 56.9369 383.48 56.9369C383.48 57.0033 383.48 57.0697 383.48 57.1381C383.414 57.1381 383.348 57.1381 383.279 57.1381C383.279 57.2045 383.279 57.2709 383.279 57.3393C383.213 57.3393 383.146 57.3393 383.078 57.3393C383.059 57.3964 383.039 57.4534 383.019 57.5122C382.818 57.8371 382.529 57.999 382.21 58.1944C382.114 58.2543 382.114 58.2543 382.016 58.3155C379.744 59.7179 377 60.0012 374.404 59.4424C372.69 59.0311 371.208 58.3959 369.799 57.3393C369.671 57.2479 369.671 57.2479 369.54 57.1546C369.13 56.8605 369.13 56.8605 368.995 56.7357C368.995 56.6693 368.995 56.6029 368.995 56.5345C368.928 56.5345 368.862 56.5345 368.793 56.5345C368.793 56.4681 368.793 56.4018 368.793 56.3334C368.727 56.3334 368.661 56.3334 368.592 56.3334C368.592 56.267 368.592 56.2006 368.592 56.1322C368.526 56.1322 368.46 56.1322 368.391 56.1322C368.391 56.0658 368.391 55.9994 368.391 55.931C368.325 55.931 368.258 55.931 368.19 55.931C368.045 55.7564 367.907 55.5749 367.775 55.3903C367.702 55.2899 367.629 55.1895 367.554 55.0861C367.385 54.8244 367.385 54.8244 367.385 54.6232C367.319 54.6232 367.252 54.6232 367.184 54.6232C365.293 51.4252 364.458 47.7301 365.373 44.0607C365.391 43.9868 365.409 43.9128 365.427 43.8366C366.194 40.703 368.024 37.9148 370.805 36.2143C371.791 35.6422 372.824 35.2065 373.924 34.9066C374.025 34.8786 374.025 34.8786 374.128 34.85C374.913 34.6616 375.705 34.6679 376.508 34.6681ZM375.127 43.513C374.783 43.9425 374.489 44.3817 374.226 44.8655C374.182 44.943 374.138 45.0206 374.093 45.1005C373.602 46.1605 373.613 47.8136 373.98 48.9145C374.089 49.1591 374.089 49.1591 374.226 49.3923C374.277 49.4855 374.328 49.5787 374.381 49.6748C374.747 50.2915 375.172 50.8524 375.735 51.3036C375.801 51.3036 375.867 51.3036 375.936 51.3036C375.936 51.37 375.936 51.4364 375.936 51.5048C376.122 51.602 376.309 51.6982 376.495 51.794C376.599 51.8477 376.703 51.9014 376.81 51.9567C378.197 52.5887 379.765 52.5244 381.173 52.0015C382.666 51.3329 383.58 50.0717 384.185 48.5875C384.403 47.6149 384.38 46.5228 384.084 45.5697C384.049 45.4431 384.013 45.3165 383.977 45.1861C383.524 44.03 382.439 42.8881 381.329 42.3306C379.226 41.4426 376.709 41.7786 375.127 43.513Z" fill="#E8E8E8"/>
<path d="M395.552 35.3089C396.802 35.2903 398.053 35.276 399.303 35.2672C399.884 35.263 400.464 35.2573 401.045 35.2482C401.605 35.2395 402.166 35.2347 402.726 35.2326C402.94 35.2311 403.154 35.2282 403.367 35.2238C403.667 35.218 403.966 35.2172 404.265 35.2176C404.398 35.2132 404.398 35.2132 404.534 35.2088C404.783 35.2122 404.974 35.2235 405.209 35.3089C405.438 35.551 405.572 35.8133 405.712 36.1137C405.784 36.2461 405.857 36.3782 405.931 36.5098C406.003 36.6458 406.075 36.782 406.146 36.9185C406.185 36.9922 406.223 37.066 406.264 37.142C406.556 37.7001 406.839 38.2626 407.118 38.8272C407.401 39.3962 407.697 39.9572 407.997 40.5176C408.234 40.9637 408.463 41.4129 408.686 41.8665C408.915 42.3302 409.16 42.7784 409.421 43.2245C409.793 43.8588 410.107 44.515 410.416 45.1814C410.702 45.795 411.009 46.3904 411.345 46.978C411.412 46.978 411.478 46.978 411.547 46.978C411.594 46.8816 411.642 46.7853 411.691 46.686C412.052 45.9566 412.421 45.2317 412.804 44.5134C413.385 43.4228 413.937 42.3207 414.458 41.2C414.763 40.5429 415.091 39.9013 415.434 39.2628C415.689 38.787 415.934 38.3076 416.174 37.8238C416.596 36.9787 417.04 36.144 417.482 35.3089C420.635 35.3089 423.789 35.3089 427.038 35.3089C426.938 35.8119 426.938 35.8119 426.837 36.1137C426.771 36.1137 426.704 36.1137 426.636 36.1137C426.618 36.2242 426.618 36.2242 426.6 36.3369C426.535 36.6184 426.445 36.8177 426.304 37.0686C426.256 37.155 426.208 37.2414 426.158 37.3304C426.08 37.4688 426.08 37.4688 426.001 37.61C425.499 38.5138 425.013 39.4244 424.542 40.3445C424.263 40.885 423.968 41.4095 423.648 41.9269C423.472 42.2263 423.342 42.5306 423.216 42.8536C423.149 42.8536 423.083 42.8536 423.014 42.8536C423.005 42.9049 422.996 42.9563 422.986 43.0092C422.885 43.3544 422.724 43.6656 422.562 43.9853C422.526 44.0559 422.491 44.1266 422.454 44.1994C422.164 44.7712 421.852 45.3294 421.534 45.8862C421.297 46.3028 421.075 46.7235 420.864 47.154C420.529 47.8367 420.163 48.5001 419.794 49.1648C419.49 49.7131 419.204 50.2667 418.929 50.8297C418.778 51.1249 418.613 51.4084 418.444 51.6934C418.189 52.1214 417.959 52.5543 417.739 53.0011C417.501 53.4856 417.25 53.9558 416.979 54.422C416.717 54.8715 416.472 55.3256 416.243 55.7926C415.867 56.5579 415.455 57.3022 415.042 58.0478C414.511 59.005 413.996 59.9685 413.496 60.9419C412.952 61.9956 412.393 63.0395 411.822 64.0788C411.571 64.5358 411.325 64.9951 411.081 65.4561C411.046 65.5237 411.01 65.5914 410.973 65.6611C410.775 66.036 410.579 66.4115 410.383 66.7874C409.641 68.2081 409.641 68.2081 409.315 68.738C408.95 69.3449 408.644 69.9848 408.327 70.6179C405.207 70.6179 402.087 70.6179 398.872 70.6179C399.003 70.2229 399.101 69.9341 399.296 69.586C399.361 69.4683 399.361 69.4683 399.428 69.3481C399.474 69.2651 399.521 69.182 399.569 69.0964C399.669 68.9164 399.77 68.7364 399.87 68.5564C399.973 68.3718 400.076 68.1871 400.179 68.0024C400.371 67.659 400.561 67.3153 400.751 66.9713C400.82 66.8463 400.82 66.8463 400.891 66.7188C401.213 66.1323 401.516 65.5385 401.81 64.9377C402.065 64.4212 402.351 63.9272 402.646 63.4328C402.826 63.1195 402.967 62.8061 403.097 62.4697C403.163 62.4697 403.229 62.4697 403.298 62.4697C403.308 62.4165 403.318 62.3633 403.329 62.3085C403.584 61.4231 404.146 60.571 404.608 59.7776C404.898 59.275 405.155 58.7597 405.409 58.238C405.564 57.9271 405.733 57.6255 405.905 57.324C405.956 57.234 406.007 57.144 406.06 57.0513C406.162 56.873 406.265 56.6953 406.369 56.5184C406.416 56.4364 406.462 56.3545 406.51 56.2701C406.553 56.1974 406.595 56.1247 406.639 56.0498C406.74 55.7698 406.701 55.6095 406.617 55.3274C406.498 55.0925 406.498 55.0925 406.347 54.8621C405.943 54.211 405.581 53.5406 405.225 52.8624C404.883 52.2116 404.53 51.5725 404.146 50.9452C403.85 50.4608 403.578 49.972 403.329 49.4614C403.046 48.881 402.734 48.3306 402.392 47.7827C402.045 47.2253 401.726 46.6625 401.437 46.0726C401.195 45.58 400.936 45.1062 400.648 44.6391C400.394 44.2183 400.157 43.7885 399.917 43.3594C399.687 42.9485 399.452 42.5415 399.211 42.1368C398.958 41.7078 398.731 41.2702 398.513 40.8228C398.278 40.3434 398.023 39.9102 397.718 39.4738C397.489 39.1143 397.308 38.7321 397.122 38.3494C396.907 37.9103 396.669 37.4944 396.412 37.0784C396.222 36.7613 396.043 36.4386 395.866 36.1137C395.806 36.0037 395.746 35.8938 395.685 35.7805C395.552 35.5101 395.552 35.5101 395.552 35.3089Z" fill="#E8E8E8"/>
<path d="M182.893 34.806C182.972 34.8232 183.05 34.8405 183.13 34.8583C184.858 35.2485 186.417 35.8875 187.923 36.8179C188.018 36.8766 188.114 36.9354 188.212 36.9959C188.668 37.288 188.668 37.288 188.829 37.4215C188.829 37.4878 188.829 37.5542 188.829 37.6226C188.886 37.6479 188.942 37.6732 189.001 37.6993C190.965 38.7635 192.34 41.3123 192.986 43.3566C193.089 43.7238 193.176 44.0899 193.255 44.4631C193.277 44.567 193.3 44.6709 193.323 44.7779C193.639 46.5419 193.586 48.4589 193.154 50.1971C193.138 50.2663 193.122 50.3355 193.105 50.4068C192.726 51.9945 191.967 53.548 190.941 54.8244C190.875 54.8244 190.808 54.8244 190.74 54.8244C190.711 54.8846 190.682 54.9448 190.652 55.0068C190.539 55.2268 190.539 55.2268 190.338 55.5286C190.271 55.5286 190.205 55.5286 190.136 55.5286C190.136 55.595 190.136 55.6614 190.136 55.7298C190.07 55.7298 190.004 55.7298 189.935 55.7298C189.935 55.7962 189.935 55.8626 189.935 55.931C189.869 55.931 189.802 55.931 189.734 55.931C189.734 55.9974 189.734 56.0638 189.734 56.1322C189.284 56.5346 189.284 56.5346 189.03 56.5346C189.03 56.6009 189.03 56.6673 189.03 56.7357C188.485 57.1381 188.485 57.1381 188.225 57.1381C188.225 57.2045 188.225 57.2709 188.225 57.3393C185.003 59.677 180.332 60.2082 176.503 59.6149C176.33 59.584 176.33 59.584 176.154 59.5524C175.972 59.523 175.972 59.523 175.786 59.4931C172.671 58.9402 169.771 57.338 167.804 54.8244C167.804 54.758 167.804 54.6916 167.804 54.6232C167.738 54.6232 167.671 54.6232 167.603 54.6232C166.605 53.2767 165.886 51.6182 165.491 49.9959C165.472 49.92 165.453 49.8441 165.434 49.7659C165.26 48.9505 165.252 48.1397 165.252 47.3096C165.252 47.0685 165.248 46.8276 165.244 46.5866C165.228 44.3888 165.92 42.395 167.081 40.5399C167.125 40.47 167.169 40.4001 167.214 40.3281C167.531 39.8302 167.857 39.3194 168.307 38.9304C168.374 38.9304 168.44 38.9304 168.508 38.9304C168.531 38.8738 168.554 38.8173 168.578 38.7591C168.747 38.463 168.958 38.2765 169.213 38.0502C169.302 37.9698 169.391 37.8894 169.483 37.8065C169.716 37.6226 169.716 37.6226 169.917 37.6226C169.917 37.5562 169.917 37.4899 169.917 37.4215C170.63 36.8688 171.427 36.421 172.23 36.0131C172.312 35.971 172.394 35.9288 172.478 35.8854C175.594 34.3732 179.527 34.031 182.893 34.806ZM176.154 42.8536C176.054 42.92 175.954 42.9864 175.852 43.0548C175.852 43.1212 175.852 43.1876 175.852 43.256C175.785 43.256 175.719 43.256 175.651 43.256C174.648 44.4178 174.102 45.5052 174.104 47.0472C174.104 47.1451 174.104 47.2431 174.104 47.344C174.119 48.266 174.325 48.9739 174.745 49.7947C174.812 49.7947 174.878 49.7947 174.946 49.7947C174.956 49.8524 174.966 49.9101 174.976 49.9695C175.063 50.2476 175.193 50.4011 175.387 50.6183C175.448 50.6882 175.508 50.7581 175.571 50.8301C175.75 51.0253 175.75 51.0253 176.053 51.1024C176.053 51.1688 176.053 51.2352 176.053 51.3036C176.273 51.4345 176.493 51.5642 176.713 51.6934C176.774 51.7301 176.836 51.7668 176.899 51.8046C178.185 52.5533 179.69 52.521 181.096 52.1528C182.535 51.684 183.467 50.6463 184.141 49.3428C184.721 48.1677 184.799 46.8281 184.428 45.5697C184.256 45.0772 184.05 44.6182 183.799 44.1613C183.732 44.1613 183.666 44.1613 183.598 44.1613C183.572 44.0865 183.546 44.0117 183.519 43.9346C183.163 43.1318 182.341 42.6351 181.586 42.25C181.509 42.2083 181.432 42.1665 181.354 42.1235C179.669 41.3525 177.582 41.7921 176.154 42.8536Z" fill="#E8E8E8"/>
<path d="M265.382 35.3089C266.778 35.2995 268.175 35.2925 269.571 35.2881C270.219 35.286 270.868 35.2831 271.516 35.2786C272.142 35.2742 272.767 35.2718 273.393 35.2708C273.632 35.27 273.871 35.2686 274.109 35.2664C274.443 35.2635 274.777 35.2631 275.112 35.2633C275.26 35.2611 275.26 35.2611 275.412 35.2589C276.081 35.2629 276.081 35.2629 276.411 35.5004C276.548 35.7113 276.548 35.7113 276.548 35.9125C276.614 35.9125 276.68 35.9125 276.749 35.9125C276.848 36.1615 276.848 36.1615 276.95 36.4155C277.016 36.4155 277.083 36.4155 277.151 36.4155C277.347 36.6285 277.347 36.6285 277.566 36.9059C277.676 37.0424 277.676 37.0424 277.787 37.1818C277.956 37.4214 277.956 37.4214 277.956 37.6226C278.022 37.6226 278.089 37.6226 278.157 37.6226C278.321 37.8038 278.321 37.8038 278.516 38.0565C278.899 38.5498 279.295 39.0305 279.698 39.5088C279.867 39.7351 279.867 39.7351 279.867 39.9363C279.934 39.9363 280 39.9363 280.069 39.9363C280.069 40.0027 280.069 40.0691 280.069 40.1375C280.135 40.1375 280.201 40.1375 280.27 40.1375C280.297 40.0794 280.324 40.0213 280.351 39.9615C280.474 39.7296 280.602 39.5319 280.773 39.3328C280.839 39.3328 280.905 39.3328 280.974 39.3328C281.008 39.2542 281.008 39.2542 281.043 39.174C281.223 38.8422 281.449 38.5497 281.678 38.2514C281.723 38.1908 281.769 38.1302 281.816 38.0679C281.932 37.9155 282.056 37.7685 282.181 37.6226C282.247 37.6226 282.314 37.6226 282.382 37.6226C282.409 37.5645 282.436 37.5065 282.464 37.4466C282.586 37.2147 282.715 37.017 282.885 36.8179C282.952 36.8179 283.018 36.8179 283.086 36.8179C283.113 36.7633 283.14 36.7087 283.168 36.6524C283.207 36.5742 283.247 36.496 283.288 36.4155C283.331 36.3239 283.374 36.2323 283.419 36.1379C283.686 35.7015 283.925 35.3794 284.428 35.2471C285.168 35.1487 285.914 35.1823 286.658 35.2009C286.9 35.203 287.142 35.2045 287.385 35.2056C288.02 35.2098 288.656 35.2207 289.291 35.233C289.941 35.2443 290.59 35.2493 291.24 35.2549C292.512 35.2668 293.785 35.2854 295.057 35.3089C294.983 35.6504 294.901 35.7994 294.642 36.0383C294.321 36.3461 294.027 36.667 293.736 37.0037C293.195 37.6273 292.636 38.2347 292.077 38.8424C291.309 39.6551 291.309 39.6551 290.631 40.5399C290.565 40.5399 290.498 40.5399 290.43 40.5399C290.43 40.6063 290.43 40.6727 290.43 40.7411C290.363 40.7411 290.297 40.7411 290.229 40.7411C290.201 40.8009 290.174 40.8607 290.146 40.9224C290.031 41.1374 289.914 41.2859 289.747 41.4618C289.694 41.5186 289.641 41.5754 289.586 41.6339C289.53 41.692 289.475 41.7501 289.418 41.8099C289.025 42.199 289.025 42.199 288.72 42.6524C288.653 42.6524 288.587 42.6524 288.519 42.6524C288.519 42.7188 288.519 42.7852 288.519 42.8536C288.452 42.8536 288.386 42.8536 288.317 42.8536C288.317 42.92 288.317 42.9864 288.317 43.0548C288.251 43.0548 288.185 43.0548 288.116 43.0548C288.075 43.1445 288.075 43.1445 288.033 43.2361C287.918 43.4511 287.802 43.5996 287.635 43.7755C287.581 43.8323 287.528 43.889 287.473 43.9476C287.418 44.0057 287.362 44.0638 287.305 44.1236C286.912 44.5127 286.912 44.5127 286.607 44.9661C286.541 44.9661 286.474 44.9661 286.406 44.9661C286.379 45.0252 286.353 45.0844 286.325 45.1453C286.167 45.4388 285.955 45.653 285.726 45.8935C285.563 46.0912 285.563 46.0912 285.601 46.475C285.668 46.475 285.734 46.475 285.802 46.475C285.802 46.5414 285.802 46.6078 285.802 46.6762C285.869 46.6762 285.935 46.6762 286.004 46.6762C286.004 46.7426 286.004 46.809 286.004 46.8774C286.07 46.8774 286.136 46.8774 286.205 46.8774C286.347 47.0181 286.347 47.0181 286.513 47.2169C286.8 47.5544 287.09 47.8874 287.387 48.2166C287.461 48.2992 287.535 48.3818 287.612 48.4669C287.734 48.6006 287.86 48.7314 287.992 48.8559C288.116 48.9899 288.116 48.9899 288.116 49.1911C288.183 49.1911 288.249 49.1911 288.317 49.1911C288.317 49.2575 288.317 49.3239 288.317 49.3923C288.384 49.3923 288.45 49.3923 288.519 49.3923C288.689 49.5577 288.689 49.5577 288.877 49.7758C288.939 49.847 289.002 49.9182 289.066 49.9915C289.223 50.197 289.223 50.197 289.323 50.4988C289.39 50.4988 289.456 50.4988 289.524 50.4988C289.684 50.6607 289.684 50.6607 289.864 50.8761C290.061 51.1094 290.255 51.329 290.474 51.5425C290.631 51.706 290.631 51.706 290.631 51.9072C290.697 51.9072 290.764 51.9072 290.832 51.9072C290.832 51.9736 290.832 52.04 290.832 52.1084C290.899 52.1084 290.965 52.1084 291.033 52.1084C291.436 52.5581 291.436 52.5581 291.436 52.8125C291.502 52.8125 291.569 52.8125 291.637 52.8125C291.637 52.8789 291.637 52.9453 291.637 53.0137C291.703 53.0137 291.77 53.0137 291.838 53.0137C291.838 53.0801 291.838 53.1465 291.838 53.2149C291.905 53.2149 291.971 53.2149 292.039 53.2149C292.199 53.3768 292.199 53.3768 292.379 53.5921C292.576 53.8254 292.77 54.045 292.989 54.2586C293.146 54.4221 293.146 54.4221 293.146 54.6232C293.212 54.6232 293.279 54.6232 293.347 54.6232C293.499 54.7702 293.499 54.7702 293.661 54.9627C293.716 55.0258 293.77 55.0888 293.826 55.1537C293.951 55.3274 293.951 55.3274 293.951 55.5286C294.017 55.5286 294.083 55.5286 294.152 55.5286C294.152 55.595 294.152 55.6614 294.152 55.7298C294.218 55.7298 294.285 55.7298 294.353 55.7298C294.353 55.7962 294.353 55.8626 294.353 55.931C294.419 55.931 294.486 55.931 294.554 55.931C294.685 56.061 294.685 56.061 294.843 56.2516C295.08 56.5319 295.322 56.8058 295.573 57.0733C295.655 57.1609 295.655 57.1609 295.739 57.2502C295.85 57.3676 295.961 57.4847 296.072 57.6015C296.466 58.0213 296.466 58.0213 296.466 58.2447C296.532 58.2447 296.598 58.2447 296.667 58.2447C296.667 58.3111 296.667 58.3775 296.667 58.4459C296.733 58.4459 296.8 58.4459 296.868 58.4459C296.868 58.5123 296.868 58.5786 296.868 58.6471C296.934 58.6471 297.001 58.6471 297.069 58.6471C297.069 58.7134 297.069 58.7798 297.069 58.8482C295.629 58.8718 294.189 58.8894 292.748 58.9004C292.08 58.9056 291.411 58.9127 290.742 58.9241C290.096 58.9351 289.451 58.9411 288.805 58.9437C288.559 58.9455 288.313 58.9492 288.067 58.9546C286.035 58.9977 286.035 58.9977 285.556 58.6293C285.325 58.3768 285.162 58.1405 284.998 57.8423C284.905 57.7289 284.81 57.6174 284.711 57.5091C284.601 57.3752 284.601 57.3752 284.488 57.2387C284.413 57.1474 284.337 57.0561 284.259 56.9621C284.092 56.7357 284.092 56.7357 284.092 56.5345C284.026 56.5345 283.96 56.5345 283.891 56.5345C283.891 56.4682 283.891 56.4018 283.891 56.3334C283.825 56.3334 283.758 56.3334 283.69 56.3334C283.564 56.1918 283.446 56.0438 283.332 55.8933C282.905 55.3458 282.447 54.8346 281.98 54.3215C281.376 53.651 281.376 53.651 281.376 53.4161C281.31 53.4161 281.243 53.4161 281.175 53.4161C280.983 53.2067 280.983 53.2067 280.766 52.932C280.695 52.8421 280.623 52.7523 280.549 52.6597C280.37 52.4101 280.37 52.4101 280.27 52.1084C279.893 52.2341 279.802 52.3879 279.559 52.6994C279.144 53.2204 278.708 53.7116 278.255 54.1992C278.054 54.4056 278.054 54.4056 277.956 54.6232C277.89 54.6232 277.823 54.6232 277.755 54.6232C277.733 54.6758 277.712 54.7283 277.69 54.7824C277.498 55.1255 277.246 55.4034 276.988 55.6984C276.907 55.7916 276.907 55.7916 276.825 55.8867C276.45 56.3191 276.07 56.7473 275.685 57.1711C275.534 57.3349 275.534 57.3349 275.441 57.5405C275.375 57.5405 275.308 57.5405 275.24 57.5405C275.211 57.6007 275.182 57.6608 275.152 57.7228C275.039 57.9429 275.039 57.9429 274.838 58.2447C274.771 58.2447 274.705 58.2447 274.636 58.2447C274.607 58.3069 274.578 58.3692 274.548 58.4333C274.435 58.6471 274.435 58.6471 274.234 58.8482C274.035 58.873 274.035 58.873 273.786 58.8724C273.645 58.8729 273.645 58.8729 273.5 58.8733C273.397 58.8726 273.293 58.8718 273.186 58.8711C273.077 58.8711 272.968 58.8711 272.856 58.8712C272.495 58.871 272.133 58.8695 271.772 58.8679C271.522 58.8675 271.272 58.8672 271.022 58.867C270.43 58.8663 269.838 58.8647 269.246 58.8627C268.507 58.8603 267.767 58.8592 267.027 58.8581C265.708 58.8559 264.388 58.8525 263.068 58.8482C263.109 58.8005 263.15 58.7527 263.193 58.7035C263.274 58.609 263.274 58.609 263.357 58.5127C263.41 58.4504 263.464 58.3881 263.519 58.3239C263.642 58.1786 263.761 58.0298 263.879 57.88C264.097 57.6132 264.324 57.3714 264.577 57.1381C264.643 57.1381 264.71 57.1381 264.778 57.1381C264.805 57.0785 264.832 57.0189 264.86 56.9575C264.978 56.7376 265.099 56.5859 265.271 56.4061C265.327 56.3461 265.384 56.2861 265.442 56.2243C265.53 56.132 265.53 56.132 265.621 56.0379C265.737 55.9155 265.853 55.7931 265.969 55.6705C266.024 55.6124 266.079 55.5543 266.135 55.4945C266.27 55.3464 266.394 55.1894 266.517 55.0315C266.574 54.9632 266.631 54.8948 266.689 54.8244C266.756 54.8244 266.822 54.8244 266.891 54.8244C266.891 54.758 266.891 54.6916 266.891 54.6232C266.957 54.6232 267.023 54.6232 267.092 54.6232C267.133 54.5339 267.133 54.5339 267.174 54.4427C267.292 54.2228 267.413 54.071 267.585 53.8912C267.641 53.8312 267.698 53.7712 267.756 53.7094C267.844 53.6171 267.844 53.6171 267.934 53.523C268.05 53.4007 268.166 53.2782 268.282 53.1556C268.337 53.0975 268.392 53.0394 268.449 52.9796C268.583 52.8315 268.708 52.6745 268.831 52.5166C268.888 52.4483 268.945 52.38 269.003 52.3095C269.069 52.3095 269.136 52.3095 269.204 52.3095C269.204 52.2432 269.204 52.1768 269.204 52.1084C269.271 52.1084 269.337 52.1084 269.405 52.1084C269.432 52.0493 269.459 51.9902 269.486 51.9294C269.61 51.6989 269.743 51.5394 269.924 51.3507C269.985 51.2858 270.047 51.2208 270.11 51.1539C270.174 51.0871 270.238 51.0203 270.305 50.9515C270.431 50.8186 270.558 50.6855 270.684 50.5523C270.741 50.4937 270.797 50.4352 270.855 50.3749C271.022 50.1956 271.022 50.1956 271.174 49.9737C271.221 49.9146 271.268 49.8555 271.317 49.7947C271.383 49.7947 271.45 49.7947 271.518 49.7947C271.518 49.7283 271.518 49.6619 271.518 49.5935C271.584 49.5935 271.651 49.5935 271.719 49.5935C271.719 49.5271 271.719 49.4607 271.719 49.3923C271.786 49.3923 271.852 49.3923 271.92 49.3923C271.941 49.3394 271.962 49.2865 271.984 49.232C272.18 48.887 272.446 48.6223 272.719 48.336C272.827 48.222 272.935 48.1078 273.042 47.9934C273.092 47.94 273.143 47.8865 273.195 47.8315C273.342 47.672 273.342 47.672 273.505 47.4401C273.567 47.3607 273.567 47.3607 273.63 47.2798C273.697 47.2798 273.763 47.2798 273.832 47.2798C273.832 47.2134 273.832 47.147 273.832 47.0786C273.898 47.0786 273.964 47.0786 274.033 47.0786C274.033 47.0122 274.033 46.9458 274.033 46.8774C274.099 46.8774 274.166 46.8774 274.234 46.8774C274.263 46.8193 274.292 46.7612 274.322 46.7014C274.427 46.4918 274.532 46.2822 274.636 46.0726C274.549 45.9791 274.462 45.8857 274.372 45.7893C274.254 45.6637 274.137 45.5381 274.02 45.4125C273.963 45.3512 273.906 45.2899 273.847 45.2268C273.555 44.9139 273.266 44.5987 272.984 44.278C272.909 44.1936 272.909 44.1936 272.833 44.1075C272.725 43.9601 272.725 43.9601 272.725 43.759C272.659 43.759 272.592 43.759 272.524 43.759C272.122 43.3092 272.122 43.3092 272.122 43.0548C272.055 43.0548 271.989 43.0548 271.92 43.0548C271.747 42.8858 271.747 42.8858 271.556 42.665C271.492 42.5926 271.429 42.5203 271.363 42.4457C271.216 42.25 271.216 42.25 271.216 42.0488C271.15 42.0488 271.083 42.0488 271.015 42.0488C271.015 41.9824 271.015 41.916 271.015 41.8476C270.949 41.8476 270.882 41.8476 270.814 41.8476C270.667 41.6853 270.528 41.5163 270.393 41.3447C270.05 40.9145 269.698 40.4986 269.326 40.0931C269.204 39.9363 269.204 39.9363 269.204 39.7351C269.144 39.7085 269.084 39.6818 269.022 39.6544C268.794 39.5297 268.67 39.4131 268.502 39.2168C268.449 39.1553 268.397 39.0938 268.342 39.0304C268.289 38.9663 268.235 38.9021 268.179 38.8361C268.125 38.7723 268.07 38.7086 268.013 38.6429C267.608 38.1658 267.608 38.1658 267.494 37.8238C267.428 37.8238 267.361 37.8238 267.293 37.8238C267.293 37.7574 267.293 37.691 267.293 37.6226C267.227 37.6226 267.16 37.6226 267.092 37.6226C266.589 37.0718 266.589 37.0718 266.589 36.8179C266.522 36.8179 266.456 36.8179 266.388 36.8179C266.388 36.7515 266.388 36.6851 266.388 36.6167C266.321 36.6167 266.255 36.6167 266.186 36.6167C266.12 36.4507 266.054 36.2847 265.985 36.1137C265.919 36.1137 265.852 36.1137 265.784 36.1137C265.784 36.0473 265.784 35.9809 265.784 35.9125C265.718 35.9125 265.651 35.9125 265.583 35.9125C265.382 35.6107 265.382 35.6107 265.382 35.3089Z" fill="#E8E8E8"/>
<path d="M249.764 34.4727C249.834 34.4729 249.904 34.473 249.976 34.4732C251.11 34.4775 252.202 34.5543 253.31 34.806C253.437 34.8328 253.563 34.8596 253.693 34.8873C255.853 35.4015 257.939 36.465 259.446 38.1256C259.446 38.192 259.446 38.2584 259.446 38.3268C259.513 38.3268 259.579 38.3268 259.648 38.3268C259.949 38.675 259.949 38.675 259.949 38.9304C260.016 38.9304 260.082 38.9304 260.151 38.9304C262.366 41.4703 262.666 45.4367 262.666 48.5875C256.923 48.5875 251.18 48.5875 245.263 48.5875C245.471 50.4611 245.663 51.6033 246.954 52.8942C248.238 53.7759 249.896 53.8881 251.402 53.6746C252.091 53.4934 252.725 53.1117 253.31 52.7119C253.343 52.6455 253.377 52.5791 253.411 52.5107C253.477 52.5107 253.544 52.5107 253.612 52.5107C253.637 52.4547 253.662 52.3987 253.687 52.341C253.844 52.0513 253.98 51.8391 254.216 51.6054C254.498 51.5571 254.718 51.5414 255 51.5483C255.078 51.5482 255.157 51.5481 255.238 51.548C255.497 51.5484 255.756 51.5523 256.015 51.5562C256.195 51.5572 256.375 51.5579 256.555 51.5584C257.028 51.5603 257.501 51.5653 257.974 51.5708C258.457 51.576 258.939 51.5783 259.422 51.5808C260.369 51.5862 261.316 51.5948 262.263 51.6054C262.042 53.2842 261.036 55.1193 259.849 56.3333C259.782 56.3333 259.716 56.3333 259.648 56.3333C259.648 56.3997 259.648 56.4661 259.648 56.5345C259.581 56.5345 259.515 56.5345 259.446 56.5345C259.446 56.6009 259.446 56.6673 259.446 56.7357C259.38 56.7357 259.314 56.7357 259.245 56.7357C259.245 56.8021 259.245 56.8685 259.245 56.9369C256.697 59.1262 253.533 59.7765 250.248 59.7662C250.126 59.7665 250.003 59.7669 249.876 59.7673C248.774 59.7662 247.678 59.736 246.602 59.4832C246.526 59.4657 246.45 59.4481 246.372 59.4301C244.604 59.005 242.638 58.3539 241.239 57.1381C241.239 57.0717 241.239 57.0053 241.239 56.9369C241.179 56.9079 241.118 56.8788 241.056 56.8489C240.836 56.7357 240.836 56.7357 240.535 56.5345C240.535 56.4681 240.535 56.4017 240.535 56.3333C240.441 56.296 240.441 56.296 240.346 56.2579C240.097 56.1114 240.036 55.9935 239.931 55.7298C239.865 55.7298 239.798 55.7298 239.73 55.7298C239.584 55.5552 239.447 55.3737 239.315 55.1891C239.242 55.0887 239.169 54.9883 239.094 54.8849C238.925 54.6232 238.925 54.6232 238.925 54.422C238.859 54.422 238.792 54.422 238.724 54.422C238.173 53.6517 237.834 52.7923 237.517 51.9072C237.462 51.7772 237.408 51.6473 237.353 51.5173C237.122 50.9034 237.029 50.2366 236.913 49.5935C236.896 49.5024 236.878 49.4113 236.86 49.3175C236.807 48.9495 236.793 48.5876 236.789 48.2166C236.788 48.143 236.787 48.0694 236.786 47.9936C236.783 47.7556 236.782 47.5177 236.781 47.2798C236.781 47.1987 236.781 47.1176 236.78 47.0341C236.78 45.7063 236.874 44.4444 237.215 43.1554C237.245 43.0403 237.275 42.9253 237.306 42.8068C237.633 41.7316 238.159 40.7026 238.724 39.7351C238.79 39.7351 238.857 39.7351 238.925 39.7351C238.949 39.6635 238.974 39.592 238.999 39.5182C239.145 39.1895 239.329 38.9548 239.56 38.6789C239.636 38.5865 239.713 38.4942 239.791 38.3991C240.03 38.1276 240.269 37.8679 240.535 37.6226C240.601 37.6226 240.667 37.6226 240.736 37.6226C240.736 37.5562 240.736 37.4898 240.736 37.4214C240.902 37.355 241.068 37.2886 241.239 37.2202C241.239 37.1539 241.239 37.0875 241.239 37.0191C243.759 35.2108 246.69 34.4563 249.764 34.4727ZM246.474 41.3859C245.893 42.1227 245.667 42.8449 245.464 43.7589C248.518 43.7589 251.572 43.7589 254.718 43.7589C254.533 42.9134 254.533 42.9134 254.165 42.1934C254.104 42.0896 254.043 41.9857 253.98 41.8787C253.925 41.802 253.87 41.7254 253.813 41.6464C253.747 41.6464 253.68 41.6464 253.612 41.6464C253.591 41.5904 253.57 41.5344 253.549 41.4767C253.081 40.6889 252.009 40.2218 251.154 39.9992C249.444 39.6998 247.681 40.1025 246.474 41.3859Z" fill="#E8E8E8"/>
<path d="M221.22 28.3679C223.976 28.3679 226.731 28.3679 229.57 28.3679C229.57 30.6584 229.57 32.949 229.57 35.3089C231.097 35.3089 232.624 35.3089 234.197 35.3089C234.339 35.5934 234.31 35.8319 234.311 36.1501C234.311 36.2485 234.311 36.2485 234.311 36.3489C234.312 36.5661 234.311 36.7833 234.311 37.0006C234.311 37.1512 234.311 37.3017 234.311 37.4523C234.311 37.768 234.311 38.0837 234.311 38.3994C234.31 38.8049 234.311 39.2104 234.311 39.6159C234.311 39.9268 234.311 40.2377 234.311 40.5486C234.311 40.6982 234.311 40.8478 234.311 40.9973C234.312 41.2059 234.311 41.4145 234.311 41.6231C234.311 41.742 234.311 41.8609 234.31 41.9834C234.298 42.25 234.298 42.25 234.197 42.3506C232.67 42.3506 231.143 42.3506 229.57 42.3506C229.57 47.7948 229.57 53.239 229.57 58.8482C226.814 58.8482 224.059 58.8482 221.22 58.8482C221.22 53.404 221.22 47.9598 221.22 42.3506C220.291 42.3506 219.361 42.3506 218.404 42.3506C218.401 41.4473 218.399 40.5441 218.398 39.6408C218.398 39.2214 218.397 38.802 218.396 38.3827C218.395 37.9783 218.394 37.5739 218.394 37.1695C218.394 37.0149 218.394 36.8602 218.393 36.7056C218.392 36.4898 218.392 36.274 218.392 36.0581C218.392 35.935 218.392 35.8119 218.392 35.6851C218.404 35.4095 218.404 35.4095 218.504 35.3089C219.401 35.3089 220.297 35.3089 221.22 35.3089C221.22 33.0184 221.22 30.7278 221.22 28.3679Z" fill="#E8E8E8"/>
<path d="M215.788 34.9066C215.788 37.5623 215.788 40.218 215.788 42.9542C215.415 42.8795 215.074 42.7895 214.715 42.6709C214.068 42.4581 213.456 42.2671 212.77 42.25C212.679 42.2461 212.588 42.2422 212.494 42.2382C211.211 42.2081 210.127 42.4607 208.948 42.9542C208.798 43.004 208.798 43.004 208.646 43.0548C208.646 43.1212 208.646 43.1876 208.646 43.256C208.532 43.352 208.413 43.4433 208.294 43.5326C207.168 44.499 206.695 46.0182 206.581 47.4547C206.507 48.5464 206.51 49.64 206.502 50.7338C206.499 50.9686 206.497 51.2034 206.495 51.4382C206.49 52.0517 206.485 52.6653 206.48 53.2788C206.474 54.0173 206.467 54.7559 206.461 55.4944C206.451 56.6123 206.442 57.7303 206.433 58.8482C203.677 58.8482 200.922 58.8482 198.083 58.8482C198.081 55.864 198.079 52.8797 198.078 49.8955C198.078 49.5436 198.078 49.1916 198.078 48.8397C198.078 48.7696 198.078 48.6995 198.078 48.6273C198.077 47.4913 198.077 46.3553 198.076 45.2192C198.075 44.0544 198.074 42.8896 198.074 41.7248C198.074 41.0702 198.073 40.4155 198.073 39.7609C198.072 39.1455 198.072 38.5302 198.072 37.9148C198.072 37.6882 198.072 37.4617 198.071 37.2351C198.071 36.9272 198.071 36.6193 198.071 36.3114C198.071 36.2205 198.071 36.1296 198.07 36.036C198.072 35.421 198.072 35.421 198.184 35.3089C198.441 35.2994 198.695 35.2963 198.953 35.2975C199.073 35.2975 199.073 35.2975 199.196 35.2975C199.464 35.2975 199.731 35.2983 199.998 35.2991C200.183 35.2993 200.368 35.2994 200.553 35.2995C201.04 35.2999 201.527 35.3009 202.015 35.302C202.512 35.3031 203.009 35.3035 203.505 35.304C204.481 35.3051 205.457 35.3069 206.433 35.3089C206.466 36.4708 206.499 37.6327 206.533 38.8298C206.666 38.6306 206.799 38.4314 206.936 38.2262C207.002 38.2262 207.069 38.2262 207.137 38.2262C207.164 38.1681 207.191 38.11 207.219 38.0502C207.341 37.8182 207.469 37.6206 207.64 37.4214C207.706 37.4214 207.773 37.4214 207.841 37.4214C207.841 37.355 207.841 37.2886 207.841 37.2202C207.974 37.0946 207.974 37.0946 208.161 36.9542C208.229 36.9029 208.297 36.8516 208.367 36.7988C208.477 36.718 208.477 36.718 208.589 36.6355C208.663 36.5807 208.738 36.526 208.814 36.4695C211.023 34.8557 212.932 34.9066 215.788 34.9066Z" fill="#E8E8E8"/>
<path d="M55.7298 29.072C55.7962 29.072 55.8626 29.072 55.931 29.072C56.1877 29.6559 56.3881 30.2479 56.5616 30.8611C56.8235 31.7681 57.1276 32.6579 57.4399 33.5485C57.7742 34.502 58.0965 35.4552 58.374 36.4271C58.5465 37.0308 58.7443 37.6246 58.9473 38.2187C59.0246 38.4529 59.0902 38.6911 59.15 38.9304C62.6024 38.9636 66.0549 38.9967 69.6119 39.031C69.4459 39.1969 69.28 39.3629 69.1089 39.5339C69.0426 39.5339 68.9762 39.5339 68.9078 39.5339C68.9078 39.6003 68.9078 39.6667 68.9078 39.7351C68.6763 39.9053 68.6763 39.9053 68.3733 40.0935C68.2741 40.1559 68.1749 40.2182 68.0727 40.2825C67.8012 40.4393 67.8012 40.4393 67.4994 40.5399C67.4994 40.6063 67.4994 40.6727 67.4994 40.7411C67.2887 40.9055 67.0791 41.0571 66.8581 41.2063C66.7671 41.2697 66.7671 41.2697 66.6742 41.3344C66.2184 41.6464 66.2184 41.6464 65.9905 41.6464C65.9905 41.7128 65.9905 41.7792 65.9905 41.8476C65.4461 42.25 65.4461 42.25 65.1857 42.25C65.1857 42.3164 65.1857 42.3828 65.1857 42.4512C64.9896 42.5895 64.9896 42.5895 64.7142 42.753C64.2715 43.0264 63.8533 43.3185 63.4442 43.6395C62.9686 44.0113 62.4879 44.3742 61.9981 44.7272C61.9377 44.7712 61.8773 44.8153 61.8151 44.8607C61.3869 45.1673 61.3869 45.1673 61.1619 45.1673C61.1978 45.2709 61.2338 45.3746 61.2708 45.4815C61.9132 47.3373 62.546 49.1915 63.1046 51.0746C63.3044 51.7358 63.5318 52.3883 63.7551 53.0418C63.8384 53.2859 63.9211 53.5302 64.0037 53.7744C64.0427 53.8877 64.0427 53.8877 64.0825 54.0033C64.22 54.4099 64.3242 54.7993 64.381 55.2268C63.9415 55.0781 63.6211 54.8496 63.2556 54.5666C62.8793 54.2667 62.8793 54.2667 62.4697 54.0196C62.4697 53.9533 62.4697 53.8869 62.4697 53.8185C62.3613 53.7805 62.3613 53.7805 62.2508 53.7418C61.9405 53.6058 61.7122 53.4417 61.4448 53.2337C60.9055 52.8212 60.3604 52.4182 59.8102 52.0203C59.6941 51.9359 59.6941 51.9359 59.5757 51.8498C59.2698 51.6288 58.9704 51.4167 58.6435 51.2273C58.5783 51.1861 58.513 51.1449 58.4458 51.1024C58.4458 51.036 58.4458 50.9696 58.4458 50.9012C58.375 50.8769 58.3042 50.8527 58.2313 50.8277C57.8967 50.6795 57.6413 50.4899 57.3519 50.2662C57.2463 50.1859 57.1408 50.1056 57.032 50.0229C56.8589 49.8895 56.6862 49.7555 56.5149 49.6198C56.2151 49.3671 56.2151 49.3671 55.8465 49.307C55.5549 49.4214 55.3258 49.5825 55.0696 49.7632C55.0139 49.8024 54.9582 49.8415 54.9008 49.8819C54.3018 50.3059 53.7126 50.7435 53.1227 51.18C52.5971 51.569 52.0689 51.9536 51.5353 52.3317C51.1948 52.5732 50.8565 52.8176 50.5196 53.0644C50.437 53.1247 50.3543 53.1851 50.2692 53.2473C50.1061 53.3664 49.9433 53.486 49.7809 53.6059C49.7071 53.6597 49.6333 53.7135 49.5573 53.7689C49.4585 53.8415 49.4585 53.8415 49.3578 53.9156C49.1911 54.0196 49.1911 54.0196 48.9899 54.0196C48.9899 54.086 48.9899 54.1524 48.9899 54.2208C48.8024 54.3623 48.6083 54.4951 48.4115 54.6232C48.3041 54.6938 48.1967 54.7643 48.0861 54.837C47.8538 54.9814 47.6278 55.1115 47.3804 55.2268C47.49 54.5164 47.6993 53.8714 47.9482 53.1984C48.118 52.7294 48.2552 52.2516 48.39 51.7716C48.5578 51.1813 48.7526 50.6006 48.9478 50.019C49.1815 49.3231 49.4106 48.6258 49.6387 47.9281C49.6929 47.7626 49.7473 47.5972 49.8019 47.4319C49.8823 47.1885 49.9619 46.945 50.0414 46.7013C50.0657 46.6283 50.09 46.5552 50.1151 46.48C50.2569 46.042 50.346 45.6249 50.3982 45.1673C50.1908 45.0183 49.9834 44.8696 49.7758 44.7209C49.713 44.6758 49.6502 44.6307 49.5856 44.5843C49.2613 44.3523 48.9356 44.1231 48.6052 43.9C48.5451 43.8593 48.485 43.8185 48.4231 43.7766C48.2553 43.6633 48.087 43.5508 47.9187 43.4383C47.8406 43.3781 47.7626 43.3179 47.6822 43.256C47.6822 43.1896 47.6822 43.1232 47.6822 43.0548C47.6134 43.0318 47.5447 43.0089 47.4739 42.9852C47.108 42.8218 46.8053 42.5971 46.4876 42.3569C46.3544 42.2577 46.2212 42.1586 46.088 42.0594C46.0196 42.0082 45.9512 41.9571 45.8808 41.9044C45.5333 41.6447 45.1837 41.3878 44.834 41.1309C44.7697 41.0833 44.7053 41.0357 44.639 40.9867C44.3121 40.7434 44.3121 40.7434 43.9601 40.5399C43.9601 40.4735 43.9601 40.4071 43.9601 40.3387C43.8889 40.3137 43.8177 40.2886 43.7444 40.2629C43.4232 40.1227 43.1675 39.9484 42.885 39.7414C42.7892 39.672 42.6934 39.6027 42.5946 39.5312C42.3506 39.3327 42.3506 39.3327 42.1494 39.031C45.6018 39.031 49.0543 39.031 52.6113 39.031C52.6777 38.7322 52.7441 38.4334 52.8125 38.1256C52.8899 37.8729 52.9712 37.6213 53.0565 37.3711C53.0796 37.3028 53.1027 37.2344 53.1265 37.164C53.1995 36.9479 53.2732 36.732 53.3469 36.5161C53.6358 35.6689 53.9191 34.8224 54.167 33.9623C54.4349 33.0336 54.7413 32.1189 55.0508 31.2034C55.1326 30.9607 55.2143 30.7181 55.2958 30.4753C55.3459 30.3263 55.3962 30.1772 55.4466 30.0283C55.5531 29.7119 55.6567 29.398 55.7298 29.072Z" fill="#E8E8E8"/>
</g>
<defs>
<clipPath id="clip0_60_29">
<rect width="428" height="84.2988" fill="white"/>
</clipPath>
</defs>
</svg>
