<svg width="620" height="423" viewBox="0 0 620 423" fill="none" xmlns="http://www.w3.org/2000/svg">
<g clip-path="url(#clip0_25_10)">
<path d="M57.7612 0.759822C57.3816 1.20309 56.6224 3.10279 56.0531 4.87584C54.7877 8.61192 52.5735 10.7649 49.9163 10.7649C48.9041 10.7649 45.4245 9.3718 42.1347 7.66207C37.2633 5.06581 36.0612 4.62255 35.4286 5.38243C34.4163 6.58557 31.8857 34.0679 32.6449 35.271C32.9612 35.841 35.1122 36.9808 37.3898 37.9306C44.0959 40.5902 44.2224 40.7802 45.1714 46.5426L45.9306 51.6085L50.6122 52.3684C53.2061 52.7483 63.898 54.3947 74.3367 55.9778C84.7755 57.6242 94.2653 59.0806 95.3408 59.2706C97.1755 59.5239 97.5551 59.3339 98.6306 57.4975C100.276 54.838 110.524 12.9179 109.765 12.158C109.512 11.8414 59.9122 0.0632654 58.7735 -5.79738e-05C58.5204 -5.79738e-05 58.0775 0.379882 57.7612 0.759822Z" fill="#E8E8E8"/>
<path d="M113.941 14.1844C113.498 14.691 112.043 21.2766 110.651 28.8754C106.033 54.0781 99.0102 84.1567 91.9878 108.41C90.0898 115.058 88.5714 121.138 88.698 121.834C88.8878 122.911 91.798 123.797 111.663 128.863C124.19 132.092 137.159 135.449 140.449 136.335C143.739 137.222 146.712 137.728 146.965 137.475C147.978 136.462 149.306 129.876 151.204 116.832C152.216 109.486 153.229 102.9 153.418 102.077C153.735 100.684 153.735 100.684 145.953 100.684C134.945 100.684 135.071 100.811 132.541 87.4495C131.655 83.1435 130.833 79.4708 130.706 79.2808C130.516 79.1541 129.061 79.3441 127.543 79.7874C125.961 80.2306 124.253 80.4206 123.684 80.2306C122.102 79.5974 122.545 75.1648 125.012 66.0462L127.353 57.6875L122.545 52.2417C116.788 45.8461 115.649 43.8197 116.155 41.2868C116.345 40.2103 116.029 37.2341 115.396 34.6378L114.32 29.8886L115.965 22.6697C116.914 18.7437 117.673 15.0076 117.673 14.3744C117.673 13.0446 115.016 12.8546 113.941 14.1844Z" fill="#E8E8E8"/>
<path d="M124.38 16.9073C122.861 19.8835 121.28 28.3688 121.722 31.2184C121.912 32.6748 122.355 35.651 122.671 37.804C123.304 42.3 124.569 44.5796 130.137 51.1019C132.351 53.6982 134.122 56.0411 134.122 56.2311C134.122 56.4844 133.427 59.3973 132.541 62.6901C131.655 65.9829 130.959 68.8958 130.959 69.1491C130.959 69.4024 131.845 70.0989 132.92 70.6055C135.451 71.9353 136.21 73.8983 138.235 84.22C139.12 88.906 140.069 93.2753 140.259 93.9718C140.576 95.0483 141.082 95.1117 147.345 94.6684C154.873 94.2251 155.696 93.7819 156.835 89.9191C157.847 86.4364 155.063 86.2464 200.741 92.5787C223.137 95.6816 229.21 96.3148 229.59 95.6816C230.159 94.795 230.665 90.3624 233.069 64.2732C236.106 32.2949 236.043 30.8385 231.235 30.5218C218.202 29.6986 153.482 20.3901 133.49 16.4641C125.139 14.881 125.455 14.881 124.38 16.9073Z" fill="#E8E8E8"/>
<path d="M594.631 23.2396C590.265 26.9124 590.455 26.8491 588.62 25.3926C587.608 24.5694 586.659 24.2528 586.343 24.5694C586.027 24.886 585.204 28.9387 584.508 33.5613C583.116 43.0598 581.535 49.7088 579.194 55.9145C578.308 58.2574 577.612 60.8537 577.612 61.6136C577.612 62.4368 578.624 65.603 579.89 68.7691C581.155 71.872 584.002 79.0275 586.153 84.6633L590.012 94.985L592.1 90.5524C593.239 88.0827 595.58 84.5366 597.478 82.5103C601.527 78.0777 602.286 76.7479 602.286 73.8983C602.286 72.6952 602.855 71.0488 603.488 70.2256L604.69 68.7058L606.208 70.0989C607.031 70.9221 608.043 71.5553 608.422 71.5553C609.435 71.5553 620 60.2838 620 59.2073C620 55.9778 614.686 49.7721 610.194 47.6824C607.916 46.6059 607.663 46.2893 607.22 43.4398C606.271 36.8542 601.716 26.2158 598.49 23.113L596.718 21.4666L594.631 23.2396Z" fill="#E8E8E8"/>
<path d="M325.816 31.8516C325.816 34.4478 324.741 34.8278 316.833 34.8278H309.367V36.4109C309.367 37.2974 309.937 42.9965 310.633 49.1389C313.353 72.9484 313.859 80.7372 314.239 102.394L314.618 124.747L338.406 124.684C351.502 124.62 363.016 124.43 364.029 124.177L365.927 123.797L360.296 118.731C347.896 107.586 347.516 106.89 346.884 95.7449L346.504 89.9191L349.161 86.183C350.553 84.0934 352.641 80.104 353.716 77.2544C354.792 74.4049 355.994 71.8719 356.437 71.5553C362.384 66.7428 365.99 63.5766 372.569 57.2443L380.351 49.7721L377.884 48.6956C368.647 44.7695 355.614 41.7934 341.443 40.2736C336.698 39.8303 332.333 39.0704 331.89 38.6905C331.384 38.2472 330.814 36.9808 330.624 35.841C329.865 31.7883 325.816 28.4321 325.816 31.8516Z" fill="#E8E8E8"/>
<path d="M239.459 32.4215C239.206 33.2447 237.561 57.6242 236.865 71.3021L236.422 79.0275L238.89 79.4074C242.622 79.9774 254.01 80.9272 273.622 82.3203C292.159 83.6501 303.673 84.6633 306.078 85.2332C307.343 85.4865 307.469 85.2965 307.469 82.9536C307.469 78.5842 302.788 36.2842 302.282 35.7143C302.155 35.651 297.284 35.2711 291.337 34.8911C285.453 34.5112 271.978 33.6247 261.412 32.9281C238.763 31.4083 239.776 31.4717 239.459 32.4215Z" fill="#E8E8E8"/>
<path d="M30.051 43.0598C29.8612 43.3764 28.7224 47.1758 27.5204 51.4185C23.9775 64.4631 18.0306 80.3573 11.0082 95.8082C9.17346 99.9875 7.59183 103.597 7.59183 103.787C7.59183 104.04 9.55305 104.547 12.0204 104.99C14.4245 105.37 28.9755 108.726 44.4122 112.336C79.8408 120.631 82.8143 121.264 83.4469 120.568C83.7633 120.251 85.2184 114.868 86.6735 108.599C88.1286 102.33 91.0388 90.2357 93.0633 81.8137C95.0877 73.3284 96.7959 66.1095 96.7959 65.7929C96.7959 65.4763 96.2898 65.223 95.7204 65.223C95.0877 65.223 82.6245 63.4499 68.0102 61.2969C37.1367 56.6743 38.149 57.0543 38.7816 50.7853C38.9714 48.8856 38.9082 46.7959 38.5286 46.1626C38.2122 45.5294 36.3775 44.4529 34.4796 43.7564C30.3673 42.2366 30.5571 42.2366 30.051 43.0598Z" fill="#E8E8E8"/>
<path d="M395.471 58.954C390.79 61.107 383.578 66.2995 381.173 69.1491C377.82 73.1385 380.035 75.2281 392.118 79.2175C401.355 82.257 403.886 83.5868 405.214 86.1831L406.163 87.9561L408.884 85.2965C410.592 83.5868 414.261 81.3072 419.069 78.9642L426.598 75.2281L430.141 77.0645C433.431 78.7109 434.127 78.8376 440.01 78.6476C443.427 78.5209 446.527 78.2676 446.78 78.141C447.665 77.5711 445.261 74.0883 442.478 71.8087C438.871 68.8325 433.304 66.4262 429.065 66.0462C424.573 65.6663 419.576 67.376 415.78 70.6055L413.186 72.8852L407.935 70.0356C405.025 68.4525 401.608 66.9961 400.28 66.7428C398.951 66.5528 397.686 65.9829 397.559 65.5396C397.369 65.0964 397.812 63.26 398.571 61.487C399.331 59.7772 399.837 58.0042 399.773 57.6876C399.584 57.2443 397.812 57.8142 395.471 58.954Z" fill="#E8E8E8"/>
<path d="M569.894 68.7058C567.869 70.2256 564.263 72.1886 561.796 73.1385C557.431 74.7849 557.367 74.8482 557.367 77.1278C557.367 79.6608 558.949 89.2226 561.227 100.621L562.618 107.713L564.58 107.27C568.249 106.447 580.839 102.077 582.863 100.811C584.002 100.178 584.825 99.2277 584.761 98.7211C584.698 98.2145 583.243 93.1486 581.471 87.4495C579.7 81.6871 577.612 74.5316 576.853 71.4287C575.841 67.4394 575.145 65.8563 574.449 65.9196C573.943 65.9196 571.855 67.1861 569.894 68.7058Z" fill="#E8E8E8"/>
<path d="M365.357 70.2256C361.941 71.7453 361.688 72.1886 359.727 79.1542C358.778 82.447 357.576 85.7398 357.069 86.4364C352.514 92.5787 352.388 93.1486 353.716 99.5443C354.729 104.484 356.057 106.193 363.396 112.336C371.114 118.795 372.253 120.694 373.202 128.61C374.404 138.995 375.416 139.628 390.031 139.565C402.241 139.565 403.316 139.311 403.822 136.842C404.518 133.486 405.72 112.779 405.278 111.259C405.025 110.246 404.265 109.549 402.873 109.169C400.343 108.41 399.963 106.637 401.102 101.254C401.735 98.2145 401.735 97.138 400.849 94.0352C400.216 92.0721 399.141 89.7925 398.318 88.9693C397.559 88.2094 394.522 86.753 391.549 85.8031C378.137 81.3705 376.745 80.6739 373.645 76.4946C372.063 74.4049 370.608 71.872 370.418 70.8588C369.912 68.7058 368.9 68.5792 365.357 70.2256Z" fill="#E8E8E8"/>
<path d="M541.551 77.2545C538.767 77.951 535.541 81.4971 532.441 87.3229C529.404 93.1486 528.329 96.3148 527.633 101.444C526.747 108.79 523.9 111.006 514.347 111.766C509.792 112.146 503.782 113.475 501.567 114.679C500.555 115.248 500.618 115.565 502.01 119.238C503.655 123.67 503.718 123.481 499.986 128.926C497.645 132.282 497.961 133.612 501.061 133.612C502.01 133.612 510.361 132.219 519.471 130.509C528.645 128.8 538.261 127.09 540.855 126.647L545.537 125.887L549.839 130.383C554.204 134.942 556.292 136.272 560.72 137.032C562.555 137.348 563.061 137.285 563.061 136.525C563.061 134.752 559.898 118.415 559.012 115.755C558.506 114.235 558 110.753 557.81 107.966C557.62 105.18 556.545 97.138 555.406 90.1724L553.318 77.3811L551.104 77.0012C548.131 76.4946 544.335 76.6212 541.551 77.2545Z" fill="#E8E8E8"/>
<path d="M422.739 82.1937C417.171 85.1699 412.743 88.9693 411.161 92.1988C409.896 94.8584 409.833 95.4283 410.529 97.7713C412.11 103.154 412.363 106.32 411.731 116.832C411.414 122.721 411.224 131.586 411.351 136.462C411.541 143.997 411.731 145.644 412.869 147.543C414.831 150.9 416.792 150.583 418.816 146.657C420.967 142.161 420.841 135.892 418.247 124.304L416.222 115.375L419.702 106.51C424.067 95.2383 424.763 93.9719 426.851 92.9587C429.002 91.9455 431.28 88.5894 431.849 85.6132C432.229 83.6502 432.039 83.1436 430.584 81.8771C428.369 79.9774 426.788 80.0407 422.739 82.1937Z" fill="#E8E8E8"/>
<path d="M433.874 92.1355C431.406 100.304 430.014 103.217 428.622 103.217C427.42 103.217 424.7 109.106 423.814 113.412C423.182 116.515 423.308 117.971 425.143 126.71C426.661 134.246 427.104 137.665 426.914 141.718L426.725 146.974L442.541 146.91C451.208 146.91 458.547 146.657 458.863 146.34C459.116 146.087 460.571 142.414 461.963 138.298C464.178 131.966 464.62 129.94 464.62 125.697C464.684 121.201 464.431 120.124 462.596 116.388C461.457 114.045 459.749 111.512 458.863 110.816L457.155 109.486L454.371 112.652C452.22 115.185 451.208 115.882 449.69 115.882C447.918 115.882 447.855 115.755 448.235 113.855C448.488 112.716 449.31 110.499 450.006 108.916C450.702 107.27 451.398 104.04 451.588 101.254C451.841 96.8214 451.714 96.1249 450.133 93.212C449.184 91.4389 447.349 89.2859 446.084 88.3994C443.996 87.0063 437.796 84.2201 436.657 84.2201C436.404 84.2201 435.139 87.7662 433.874 92.1355Z" fill="#E8E8E8"/>
<path d="M234.778 106.447C234.018 117.718 233.322 127.533 233.259 128.166C233.133 129.37 233.955 129.496 246.735 130.573C276.786 133.042 299.688 135.639 304.686 137.095C305.635 137.412 306.141 137.158 306.457 136.398C307.153 134.689 308.039 114.362 308.102 101.507V90.0458L306.394 89.6658C304.116 89.2226 295.829 88.7793 267.929 87.6395C255.402 87.1329 243.129 86.563 240.724 86.373L236.233 85.9298L234.778 106.447Z" fill="#E8E8E8"/>
<path d="M161.073 97.8979C159.492 104.61 152.469 149.443 152.469 152.989C152.469 154.952 156.076 155.585 195.173 160.525C210.167 162.361 222.631 163.691 222.947 163.374C223.58 162.741 223.453 163.754 225.857 135.195C228.767 99.7343 228.641 102.774 227.312 102.331C225.161 101.697 174.422 94.6684 166.514 93.9718L162.149 93.5286L161.073 97.8979Z" fill="#E8E8E8"/>
<path d="M588.684 106.193C587.418 106.51 569.388 112.652 565.845 113.982L563.884 114.679L565.718 123.67C566.731 128.61 567.933 135.069 568.376 138.045L569.198 143.427L571.729 143.301C573.12 143.237 575.588 142.604 577.169 141.844C582.61 139.248 602.792 119.618 602.096 117.591C601.969 117.211 600.704 116.642 599.312 116.388C596.592 115.945 590.265 113.032 590.265 112.209C590.265 111.956 591.024 110.626 591.847 109.233C592.733 107.84 593.429 106.51 593.429 106.193C593.429 105.687 590.708 105.687 588.684 106.193Z" fill="#E8E8E8"/>
<path d="M8.03468 111.196C7.90815 111.512 7.14897 114.045 6.38979 116.832C5.6306 119.618 3.85917 124.24 2.40407 127.09C0.379582 131.206 -0.12654 132.726 0.189786 134.372C0.442847 135.512 1.01224 138.741 1.51836 141.528C2.34081 146.024 2.34081 147.29 1.45509 153.116C0.506113 159.512 0.506113 159.638 1.89795 163.438C2.65713 165.591 3.47958 169.327 3.73264 171.86C4.04897 175.152 4.55509 176.989 5.69387 178.572C7.14897 180.598 7.2755 181.358 7.2755 187.437V194.086L9.67958 196.999C10.9449 198.582 12.0204 200.038 12.0204 200.228C12.0204 200.418 11.1347 201.622 10.1224 202.951C9.04693 204.281 8.22448 205.738 8.22448 206.244C8.22448 206.751 9.23673 209.22 10.4388 211.753C13.7918 218.782 15.2469 225.178 15.6265 234.55C15.9428 242.149 16.0694 242.718 17.3347 243.035C18.0306 243.225 20.9408 244.555 23.7245 245.885C27.3939 247.784 30.2408 249.874 34.3531 253.863C39.2877 258.676 40.3633 260.069 43.0204 265.641C44.7286 269.124 46.8796 274.253 47.8286 277.04C48.7775 279.826 49.6 282.169 49.6633 282.232C49.7265 282.359 55.3571 283.309 62.2531 284.385C72.0592 285.905 74.9061 286.158 75.2857 285.588C75.7918 284.828 80.6633 266.275 83.5735 254.18L84.9653 248.418L65.3531 214.603C41.5653 173.696 39.2245 169.517 39.2245 168.63C39.2245 168.187 42.0714 157.549 45.551 144.947C49.0306 132.346 51.8775 121.707 51.8775 121.264C51.8775 120.821 44.2857 118.731 32.4551 115.945C10.6918 110.879 8.54081 110.436 8.03468 111.196Z" fill="#E8E8E8"/>
<path d="M55.7367 122.784C55.0408 124.05 49.4102 147.1 46.5 160.335L45.0449 167.11L47.0061 170.783C53.0796 182.498 82.3082 231.51 85.0918 234.74L87.1796 237.146L87.8755 234.613C88.2551 233.22 88.5714 231.763 88.5714 231.384C88.5714 231.004 89.1408 230.18 89.7735 229.61C90.7224 228.724 91.6082 228.597 93.8225 228.914C96.2265 229.294 96.7327 229.167 97.049 228.154C97.2388 227.521 98.5673 220.745 99.9592 213.083C101.414 205.421 104.514 188.894 106.918 176.356C111.663 151.469 114.257 135.702 113.751 135.195C113.308 134.689 99.4531 131.333 77.7531 126.393C67.7571 124.114 58.9 122.087 58.0143 121.897C56.8122 121.581 56.2429 121.771 55.7367 122.784Z" fill="#E8E8E8"/>
<path d="M337.204 130.573C325.247 130.889 315.314 131.269 315.188 131.396C314.365 132.219 314.429 139.818 315.314 144.251C316.2 148.493 323.033 172.809 323.539 173.316C323.918 173.759 337.52 174.772 350.3 175.406C365.927 176.229 366.876 176.039 368.963 172.493C369.596 171.416 370.292 168.693 370.482 166.477C370.988 161.538 371.684 160.081 375.733 155.649L378.896 152.166L376.745 148.936C375.543 147.163 373.835 145.2 372.886 144.567C368.267 141.338 368.141 141.148 367.382 135.512L366.622 130.129L362.827 130.066C360.739 130.003 349.224 130.256 337.204 130.573Z" fill="#E8E8E8"/>
<path d="M536.173 133.042C523.394 136.145 500.871 140.578 498.088 140.578C496 140.578 495.051 140.198 493.722 138.805L492.078 137.095L492.457 141.844C493.469 153.306 496 168.757 497.202 170.34C498.341 171.923 498.404 171.923 509.033 171.923C519.155 171.923 519.978 171.86 524.153 170.213C526.62 169.263 532.124 167.617 536.49 166.54C547.055 163.944 549.206 163.058 551.927 160.271L554.204 157.928L551.99 155.269C549.206 152.039 548.7 149.38 550.029 144.82C551.673 139.121 551.484 137.982 547.814 134.309C545.98 132.536 544.335 131.079 544.145 131.143C543.955 131.206 540.349 132.029 536.173 133.042Z" fill="#E8E8E8"/>
<path d="M232.5 136.145C232.184 136.652 229.653 159.638 229.653 161.981V163.818L238.257 164.577C243.002 164.957 247.81 165.717 248.949 166.16C251.29 167.174 251.796 168.883 251.796 176.799V181.675L254.516 181.991C255.971 182.181 264.449 182.625 273.306 183.004C282.163 183.384 296.208 184.081 304.559 184.651C312.847 185.157 319.806 185.411 319.996 185.221C320.945 184.271 309.431 149 306.837 145.01C304.053 140.704 302.471 140.135 291.337 139.628C279.38 139.121 254.39 137.538 242.116 136.588C236.929 136.145 232.627 135.955 232.5 136.145Z" fill="#E8E8E8"/>
<path d="M119.382 145.137C115.965 161.031 106.286 211.88 106.286 213.716C106.286 214.223 106.792 214.729 107.424 214.919C110.714 215.933 158.606 222.012 159.112 221.505C160.124 220.492 167.147 164.514 166.324 163.754C166.135 163.564 161.833 162.551 156.708 161.538C151.584 160.525 146.902 159.322 146.396 158.878C145.573 158.182 145.447 157.295 145.763 154.192C147.092 141.971 147.155 142.667 145.067 141.654C142.79 140.451 127.48 137.412 123.747 137.412H121.027L119.382 145.137Z" fill="#E8E8E8"/>
<path d="M556.165 144.441C554.963 147.987 555.343 149.57 558.316 153.242C559.898 155.142 561.163 156.979 561.163 157.295C561.163 158.055 558.443 161.664 555.216 165.147C551.737 168.947 549.269 170.023 538.514 172.619C533.39 173.823 528.708 174.962 528.139 175.152C527.569 175.342 524.912 179.648 522.192 184.778C516.625 195.416 514.473 198.835 512.196 200.292C511.057 201.052 510.235 202.635 509.286 205.928C507.451 212.45 505.237 216.629 502.643 218.402C499.606 220.492 490.369 224.165 488.218 224.165C487.206 224.165 485.814 223.848 485.055 223.468C483.853 222.772 483.473 223.025 481.322 225.431C479.994 226.888 478.918 228.344 478.918 228.661C478.918 229.927 489.357 228.724 527.949 222.898C553.318 219.035 556.735 218.466 556.735 217.896C556.735 217.642 555.216 215.426 553.382 213.02C551.547 210.55 549.396 207.067 548.574 205.168C546.992 201.558 546.169 194.149 546.865 190.35C547.245 188.387 547.561 188.007 548.7 188.197C549.649 188.324 550.661 189.717 552.433 193.453C556.735 202.381 557.051 202.951 557.684 202.825C558.696 202.635 559.139 200.165 559.202 194.339C559.265 187.374 558.443 183.131 556.102 178.002C555.027 175.786 554.204 173.696 554.204 173.379C554.204 172.556 556.608 173.379 559.265 175.152C560.467 175.976 561.669 176.672 561.922 176.672C563.694 176.672 565.149 168.757 565.908 155.142C566.478 145.77 566.098 144.757 561.733 143.491C557.241 142.161 556.988 142.161 556.165 144.441Z" fill="#E8E8E8"/>
<path d="M391.992 145.074C387.816 145.707 384.147 146.53 383.894 146.784C383.578 147.1 383.767 148.367 384.337 149.633C385.602 152.673 384.716 154.952 380.288 159.765C377.188 163.248 377.124 163.438 377.188 166.984C377.314 170.087 376.871 171.543 374.657 176.419C373.202 179.585 372 182.878 372 183.701C372 185.411 375.416 189.843 383.641 198.772C389.018 204.661 388.765 203.838 387.5 210.867C387.057 213.083 387.247 213.273 391.929 217.516C394.712 219.985 397.559 223.278 398.635 225.178C399.9 227.394 400.849 228.407 401.482 228.154C402.747 227.711 406.29 222.645 408.567 218.086C412.743 209.79 413.122 204.978 411.541 184.588C409.643 160.398 408.567 153.749 405.72 147.417C404.139 143.871 404.012 143.744 401.798 143.807C400.533 143.871 396.104 144.441 391.992 145.074Z" fill="#E8E8E8"/>
<path d="M477.969 147.353C473.604 149.633 473.351 149.696 464.051 150.14C458.863 150.393 452.6 150.963 450.196 151.343L445.831 152.103L446.21 155.712C446.463 157.675 447.096 166.477 447.729 175.216C448.614 188.324 448.994 191.3 449.816 191.616C452.916 192.883 469.049 198.202 470.884 198.519C472.908 198.899 473.225 198.709 476.071 195.416C477.716 193.516 481.765 188.07 484.992 183.321L490.939 174.709L489.357 163.818C487.522 151.533 486.637 146.974 485.688 145.77C484.676 144.504 482.651 144.947 477.969 147.353Z" fill="#E8E8E8"/>
<path d="M426.408 154.192C421.031 155.206 417.551 156.472 416.286 157.992C415.59 158.815 415.653 161.728 416.602 175.089C418.437 201.811 417.488 211.437 411.857 221.568C410.782 223.468 410.086 225.178 410.339 225.368C410.845 225.938 430.837 215.616 433.494 213.4C434.759 212.323 437.543 208.65 439.631 205.168L443.427 198.899L441.845 179.712C441.022 169.137 440.137 158.942 439.884 157.042L439.378 153.559L435.265 153.432C432.988 153.369 429.002 153.749 426.408 154.192Z" fill="#E8E8E8"/>
<path d="M174.106 166.034C173.22 167.174 165.755 216.502 165.755 221.315C165.755 222.455 166.198 222.898 167.527 223.151C170.627 223.785 211.939 229.484 229.969 231.763C235.537 232.46 241.041 233.157 242.18 233.347L244.204 233.726V224.038C244.204 218.719 244.52 204.851 244.9 193.263C245.28 181.675 245.469 171.986 245.28 171.796C245.027 171.606 241.231 171.1 236.739 170.656C232.247 170.213 226.49 169.39 223.896 168.82C221.302 168.25 210.104 167.237 198.969 166.54C175.118 165.021 174.929 165.021 174.106 166.034Z" fill="#E8E8E8"/>
<path d="M510.867 176.735C508.084 177.052 502.833 177.685 499.163 178.129L492.52 178.888L485.688 191.173L478.792 203.521L480.88 207.954C483.916 214.286 486.067 216.566 488.978 216.566C491.571 216.566 498.278 213.59 499.986 211.627C500.682 210.93 502.01 207.004 503.086 202.888C505.49 193.136 506.376 191.49 508.78 192.25C509.349 192.44 510.424 191.933 511.184 191.11C512.829 189.337 518.839 177.242 518.396 176.545C518.016 175.976 517.953 175.976 510.867 176.735Z" fill="#E8E8E8"/>
<path d="M325.816 181.358C325.816 182.181 329.422 189.463 331.763 193.389C333.345 195.922 334.927 199.279 335.243 200.798C335.622 202.318 336.065 212.513 336.318 223.405L336.761 243.225L345.365 242.845C350.11 242.592 361.498 242.338 370.735 242.338C383.767 242.212 387.816 242.402 389.018 243.035C390.537 243.922 390.537 244.175 389.335 249.621C389.018 251.14 389.145 251.394 390.22 251.394C391.612 251.394 393.131 249.557 395.408 245.125C397.116 241.642 396.927 237.273 394.776 231.447C393.32 227.647 390.473 224.291 383.451 218.339L380.667 215.933L381.11 210.234L381.553 204.598L374.467 197.759C370.608 194.023 367.065 190.16 366.559 189.21C366.053 188.26 365.673 186.044 365.673 184.271V181.105H345.745C334.8 181.105 325.816 181.231 325.816 181.358Z" fill="#E8E8E8"/>
<path d="M251.669 190.097C250.784 190.793 250.467 193.579 249.645 205.801C248.316 226.634 248.127 231.13 248.696 231.51C249.012 231.7 257.427 232.207 267.422 232.713C277.482 233.22 294.373 234.043 305.002 234.613C315.631 235.12 325.816 235.563 327.714 235.563H331.067L330.688 221.125C330.435 213.21 329.929 205.484 329.549 203.901C328.6 199.785 324.235 192.693 321.894 191.49C318.667 189.843 309.81 189.4 280.518 189.337C259.198 189.337 252.429 189.527 251.669 190.097Z" fill="#E8E8E8"/>
<path d="M448.235 202.761C446.969 204.598 444.312 208.524 442.288 211.5C438.049 217.769 437.353 218.276 420.841 225.874C406.163 232.587 403 234.55 403 236.576C403 239.742 407.745 239.996 411.667 237.019C414.388 234.993 417.298 234.55 438.112 233.03C460.318 231.384 465.253 230.814 468.1 229.421C469.998 228.471 479.551 217.769 479.551 216.566C479.551 215.616 472.592 207.194 470.757 205.991C468.48 204.471 453.929 199.469 451.778 199.469C450.955 199.469 449.69 200.672 448.235 202.761Z" fill="#E8E8E8"/>
<path d="M526.178 227.711L493.343 234.233L487.586 239.616C476.198 250.064 469.429 256.776 469.429 257.536C469.429 259.119 473.478 258.359 479.171 255.636L484.929 252.977H493.469C501.504 252.977 502.137 253.04 504.035 254.497C505.996 255.953 506.376 256.016 513.018 255.636L519.914 255.256L524.849 259.689C527.633 262.159 531.492 265.261 533.453 266.655C536.68 268.871 537.376 269.124 539.59 268.744C541.931 268.364 542.184 268.111 544.461 263.488C546.296 259.689 548.067 257.473 552.812 252.787C558.569 247.088 558.696 246.834 557.684 245.695C556.418 244.301 556.671 243.732 560.784 238.792C564.706 234.106 565.086 232.967 564.01 229.8C562.998 226.951 560.214 221.885 559.392 221.442C559.139 221.252 544.208 224.101 526.178 227.711Z" fill="#E8E8E8"/>
<path d="M103.122 226.191C101.035 233.663 100.782 233.98 96.6061 234.17C93.8225 234.296 92.8735 234.613 92.3674 235.563C91.9878 236.196 91.4184 240.122 91.102 244.238C90.1531 255.383 83.3837 283.435 80.3469 288.564C78.8918 291.034 78.3225 290.401 89.8367 298.063C108.753 310.601 123.367 317.313 138.488 320.416C146.08 321.936 145.953 321.936 146.712 320.543C147.724 318.58 157.531 238.159 157.531 231.51V228.724L150.761 227.711C139.627 226.001 107.361 221.632 105.843 221.632C104.641 221.632 104.261 222.328 103.122 226.191Z" fill="#E8E8E8"/>
<path d="M164.173 230.624C163.92 231.384 154.241 295.72 151.837 312.501C151.141 317.44 151.014 320.353 151.394 320.859C152.027 321.683 156.645 321.999 158.416 321.303C158.986 321.113 159.429 320.226 159.429 319.403C159.429 316.743 161.58 316.363 168.855 317.503C177.965 318.96 178.218 318.896 179.294 316.3C180.749 312.881 178.408 312.944 218.392 315.73C223.833 316.11 223.896 316.11 224.212 314.654C225.604 308.638 229.78 238.096 228.767 238.096C228.641 238.096 224.022 237.399 218.518 236.576C201.69 233.98 170.31 229.864 167.273 229.864C165.565 229.864 164.363 230.18 164.173 230.624Z" fill="#E8E8E8"/>
<path d="M454.878 237.779C419.955 241.072 419.006 241.199 415.527 244.112C413.818 245.568 413.122 245.695 407.682 245.695H401.671L397.306 254.687C394.839 259.689 392.878 264.058 392.878 264.502C392.878 265.072 394.016 265.325 396.547 265.325C399.71 265.325 438.239 261.969 453.929 260.322L459.622 259.689L463.988 255.066C470.441 248.228 480.816 236.386 480.816 235.943C480.816 235.373 479.867 235.5 454.878 237.779Z" fill="#E8E8E8"/>
<path d="M236.233 237.779C235.98 238.349 236.106 239.109 236.422 239.426C237.371 240.375 243.635 241.199 258.122 242.402L271.092 243.478L271.282 259.309C271.345 267.984 271.661 275.33 271.978 275.646C272.294 275.963 278.873 279.193 286.655 282.802L300.763 289.388L311.835 288.691C324.171 287.931 328.473 288.121 331.51 289.704L333.598 290.781L333.218 288.058C333.029 286.538 332.522 274.95 332.08 262.412L331.257 239.552L300.257 239.109C267.106 238.602 240.345 237.779 238.067 237.083C237.055 236.829 236.486 237.019 236.233 237.779Z" fill="#E8E8E8"/>
<path d="M235.473 248.291C235.157 249.114 233.702 263.932 232.247 281.156C230.792 298.38 229.273 314.21 228.831 316.3L228.071 320.1L220.48 319.973C216.304 319.91 207.194 319.276 200.235 318.58C184.608 316.933 183.09 316.933 182.584 318.326C182.267 319.15 183.09 320.289 185.557 322.632C190.049 326.812 192.2 330.295 199.412 345.112C206.245 359.107 208.902 362.526 215.798 365.946C221.049 368.605 222.82 368.542 223.833 365.756C225.035 362.4 229.337 358.03 232.5 356.764C234.588 356.004 236.549 355.814 240.092 356.004C245.976 356.384 246.861 357.144 253.061 366.452C257.806 373.608 261.855 381.46 267.612 394.758C271.788 404.32 276.027 411.348 279.569 414.705C283.871 418.694 298.233 424.266 299.941 422.557C300.32 422.177 300.32 419.011 299.941 414.008C298.929 400.71 300.7 393.301 306.204 387.666C307.533 386.272 311.139 383.423 314.239 381.333C317.276 379.244 322.653 375.064 326.133 372.025C329.612 368.985 334.673 365.186 337.457 363.603C340.178 362.02 342.771 360.057 343.278 359.36C344.733 357.144 346.757 346.569 346.757 341.313C346.757 337.703 346.314 335.234 344.859 330.738C342.392 323.392 341.19 316.49 340.62 306.485C340.431 302.116 339.988 298.126 339.671 297.556C338.849 295.973 328.6 292.427 324.867 292.364C323.159 292.364 317.212 292.87 311.771 293.504L301.839 294.707L296.904 293.06C294.184 292.111 286.149 288.818 279 285.715L266.031 280.016L266.157 264.755L266.347 249.494L264.892 249.241C264.133 249.051 258.502 248.671 252.429 248.291C246.355 247.848 240.155 247.404 238.7 247.214C236.296 246.834 235.98 246.961 235.473 248.291Z" fill="#E8E8E8"/>
<path d="M367.888 248.228C360.612 248.481 350.806 248.734 346.251 248.797L337.837 248.861V269.694V290.528L339.608 291.161C342.961 292.364 344.227 293.947 344.669 297.62L345.112 301.103L359.347 301.482C367.192 301.736 374.531 302.116 375.669 302.369L377.82 302.876L377.378 297.24C376.808 290.211 376.998 289.578 384.084 271.467C387.247 263.552 389.714 256.713 389.588 256.333C389.398 255.89 388.322 255.256 387.12 254.877C385.096 254.18 384.969 253.99 384.78 250.887C384.59 247.721 384.527 247.594 382.882 247.721C381.933 247.784 375.227 248.038 367.888 248.228Z" fill="#E8E8E8"/>
<path d="M489.737 258.423C485.814 259.119 481.006 261.525 478.602 264.058L476.957 265.768L489.104 279.003C505.49 296.86 511.627 303.319 512.259 303.319C512.512 303.319 513.651 301.799 514.79 299.963C515.865 298.126 519.218 293.694 522.255 290.084C527.696 283.499 529.341 280.902 530.733 276.596C531.176 275.33 531.871 273.937 532.378 273.557C533.833 272.354 532.567 270.771 525.355 265.072L518.712 259.816L513.208 260.639C505.553 261.842 504.604 261.779 502.327 259.816C499.986 257.853 495.62 257.346 489.737 258.423Z" fill="#E8E8E8"/>
<path d="M456.269 266.275C453.676 266.718 451.461 267.288 451.271 267.478C451.082 267.668 451.398 271.024 451.967 274.95C453.422 284.448 461.078 324.595 461.9 327.192C463.039 330.675 465.316 330.991 481.322 329.661C494.798 328.585 502.833 327.698 504.984 327.002C505.616 326.812 506.249 326.052 506.376 325.292C506.502 324.532 507.451 320.353 508.463 315.984L510.298 308.068L490.622 288.121C479.741 277.103 470.694 267.478 470.441 266.718C469.998 265.451 469.555 265.325 465.443 265.388C462.912 265.388 458.8 265.831 456.269 266.275Z" fill="#E8E8E8"/>
<path d="M434.316 268.174C430.837 268.618 425.649 269.188 422.739 269.441L417.488 269.884L417.804 280.712C418.057 286.728 418.5 303.445 418.88 317.883C419.386 338.59 419.702 344.352 420.398 345.049C421.284 345.999 428.306 346.885 428.306 346.125C428.306 345.872 427.547 342.833 426.598 339.35C425.016 333.397 425.016 333.017 426.029 331.878C427.42 330.358 432.229 329.471 445.514 328.395C451.271 327.888 456.269 327.382 456.649 327.128C457.408 326.685 457.029 324.532 452.79 307.435C450.892 299.773 448.108 288.058 446.653 281.472C444.122 270.137 442.984 267.098 441.339 267.288C440.959 267.351 437.796 267.731 434.316 268.174Z" fill="#E8E8E8"/>
<path d="M400.469 271.721C389.461 272.924 389.082 273.24 384.716 284.195L381.427 292.301L382.755 300.659C384.653 312.881 384.463 315.73 381.49 325.229C379.465 331.561 379.086 333.397 379.718 333.841C380.161 334.094 384.59 334.347 389.588 334.347C398.255 334.347 398.698 334.411 400.09 335.867C401.039 336.754 401.925 338.78 402.367 341.06C403.38 345.999 404.012 347.012 405.91 347.012C407.998 347.012 415.653 345.049 415.653 344.542C415.653 344.289 415.4 341.883 415.02 339.097C413.882 330.041 412.49 305.915 412.047 288.248L411.667 271.024L408.441 271.087C406.669 271.151 403.063 271.404 400.469 271.721Z" fill="#E8E8E8"/>
<path d="M368.204 306.928C367.002 307.055 361.371 307.561 355.741 308.005C350.047 308.448 345.239 309.018 344.986 309.271C344.1 310.158 346.124 321.556 348.402 328.332C351.249 337.07 351.502 342.073 349.288 350.685C348.022 355.751 347.896 356.764 348.655 357.46C349.161 357.904 352.135 358.727 355.235 359.297C358.398 359.803 362.827 360.626 365.231 361.07C369.09 361.766 369.659 361.703 371.431 360.69C373.898 359.233 375.29 359.487 383.641 363.096C395.788 368.289 410.592 371.328 410.592 368.605C410.592 368.352 409.137 365.692 407.365 362.779C403 355.561 401.102 351.761 401.102 350.051C401.102 349.228 400.28 346.315 399.331 343.529L397.622 338.463L387.057 338.717C381.3 338.78 375.922 338.717 375.227 338.463C373.329 337.893 373.518 335.994 376.492 325.799C379.339 316.237 380.035 309.461 378.39 307.561C377.567 306.485 373.961 306.295 368.204 306.928Z" fill="#E8E8E8"/>
<path d="M486.194 333.714C466.076 337.197 462.786 337.45 459.812 335.614C457.345 334.157 453.486 333.967 443.173 335.044C433.937 335.994 433.367 336.247 433.367 339.35C433.367 343.086 434.506 343.846 440.2 343.846C446.463 343.846 448.298 344.416 455.131 348.342C461.52 351.951 460.825 352.015 467.467 347.329C472.086 344.036 473.857 343.782 479.361 345.872C482.145 346.885 484.106 348.278 487.522 351.698C493.849 358.03 495.114 360.816 496.38 371.391C498.025 385.639 499.606 388.869 511.627 401.47C521.306 411.602 527.127 416.288 531.429 417.301C533.833 417.871 534.908 417.871 535.414 417.364C535.857 416.921 536.11 412.488 536.11 404.193C536.173 389.439 536.68 391.022 527.19 375.824C515.233 356.574 513.398 352.964 508.653 339.413C506.882 334.347 505.3 330.801 504.794 330.738C504.288 330.738 495.937 332.068 486.194 333.714Z" fill="#E8E8E8"/>
</g>
<defs>
<clipPath id="clip0_25_10">
<rect width="620" height="423" fill="white"/>
</clipPath>
</defs>
</svg>
